Russolo-24ptSemiBold.ufo
<glyph name="exclam" format="2">
  <advance width="520.9536842105263"/>
  <unicode hex="0021"/>
  <note>
exclam
</note>
  <outline>
    <contour>
      <point x="227.78894736842105" y="332.96315789473687" type="curve"/>
      <point x="293.46473684210525" y="332.96315789473687" type="line"/>
      <point x="290.6963157894737" y="775.392"/>
      <point x="368.9678947368421" y="1074.4025263157894"/>
      <point x="368.9678947368421" y="1218.5526315789473" type="curve" smooth="yes"/>
      <point x="368.9678947368421" y="1295.4751578947369"/>
      <point x="285.49726315789474" y="1323.4751578947369"/>
      <point x="297.5923157894737" y="1463.991052631579" type="curve"/>
      <point x="223.88768421052632" y="1463.991052631579" type="line"/>
      <point x="235.98273684210525" y="1323.5488421052632"/>
      <point x="151.9857894736842" y="1295.4751578947369"/>
      <point x="151.9857894736842" y="1218.5526315789473" type="curve" smooth="yes"/>
      <point x="151.9857894736842" y="1074.3288421052632"/>
      <point x="230.33105263157896" y="775.392"/>
    </contour>
    <contour>
      <point x="259.91168421052635" y="-25.040105263157894" type="curve" smooth="yes"/>
      <point x="328.57715789473684" y="-25.040105263157894"/>
      <point x="380.08673684210527" y="27.981263157894738"/>
      <point x="380.08673684210527" y="99.43494736842106" type="curve" smooth="yes"/>
      <point x="380.08673684210527" y="171.7683157894737"/>
      <point x="327.37315789473683" y="222.15536842105263"/>
      <point x="259.91168421052635" y="222.15536842105263" type="curve" smooth="yes"/>
      <point x="192.4502105263158" y="222.15536842105263"/>
      <point x="139.73663157894737" y="171.7683157894737"/>
      <point x="139.73663157894737" y="99.43494736842106" type="curve" smooth="yes"/>
      <point x="139.73663157894737" y="27.981263157894738"/>
      <point x="191.2462105263158" y="-25.040105263157894"/>
    </contour>
  </outline>
</glyph>
<glyph name="quotedbl" format="2">
  <advance width="608.4633684210527"/>
  <unicode hex="0022"/>
  <note>
quotedbl
</note>
  <outline>
    <contour>
      <point x="372.34494736842106" y="832.03" type="line"/>
      <point x="456.85936842105264" y="832.03" type="line"/>
      <point x="474.36842105263156" y="1358.312105263158" type="line"/>
      <point x="354.16726315789475" y="1358.312105263158" type="line"/>
    </contour>
    <contour>
      <point x="151.54031578947368" y="832.03" type="line"/>
      <point x="234.25073684210525" y="832.03" type="line"/>
      <point x="254.4677894736842" y="1358.312105263158" type="line"/>
      <point x="134.49294736842106" y="1358.312105263158" type="line"/>
    </contour>
  </outline>
</glyph>
<glyph name="numbersign" format="2">
  <advance width="1390.8308421052632"/>
  <unicode hex="0023"/>
  <note>
numbersign
</note>
  <outline>
    <contour>
      <point x="729.7961052631579" y="-0.17168421052631577" type="line"/>
      <point x="876.0728421052631" y="-0.17168421052631577" type="line"/>
      <point x="1172.9733684210526" y="1432.6647368421052" type="line"/>
      <point x="1026.6966315789473" y="1432.6647368421052" type="line"/>
    </contour>
    <contour>
      <point x="102.12231578947369" y="474.05905263157894" type="line"/>
      <point x="1204.1555789473684" y="474.05905263157894" type="line"/>
      <point x="1204.1555789473684" y="545.848947368421" type="line"/>
      <point x="102.12231578947369" y="545.848947368421" type="line"/>
    </contour>
    <contour>
      <point x="210.29505263157895" y="-0.17168421052631577" type="line"/>
      <point x="356.6454736842105" y="-0.17168421052631577" type="line"/>
      <point x="654.3176842105263" y="1432.6647368421052" type="line"/>
      <point x="507.96726315789476" y="1432.6647368421052" type="line"/>
    </contour>
    <contour>
      <point x="187.17326315789475" y="905.0528421052632" type="line"/>
      <point x="1289.6045263157896" y="905.0528421052632" type="line"/>
      <point x="1289.6045263157896" y="977.2164210526316" type="line"/>
      <point x="187.17326315789475" y="977.2164210526316" type="line"/>
    </contour>
  </outline>
</glyph>
<glyph name="percent" format="2">
  <advance width="1522.6386315789473"/>
  <unicode hex="0025"/>
  <note>
percent
</note>
  <outline>
    <contour>
      <point x="226.84052631578948" y="-7.5594736842105235" type="line"/>
      <point x="347.49" y="-7.5594736842105235" type="line"/>
      <point x="1287.254" y="1434.2542105263158" type="line"/>
      <point x="1166.8308421052632" y="1434.2542105263158" type="line"/>
    </contour>
    <contour>
      <point x="1111.1393684210527" y="-24.006842105263157" type="curve" smooth="yes"/>
      <point x="1288.3811578947368" y="-24.006842105263157"/>
      <point x="1391.4093684210527" y="152.5061052631579"/>
      <point x="1391.4093684210527" y="362.5578947368421" type="curve" smooth="yes"/>
      <point x="1391.4093684210527" y="563.3169473684211"/>
      <point x="1280.4824210526317" y="749.4963157894737"/>
      <point x="1111.1393684210527" y="749.4963157894737" type="curve" smooth="yes"/>
      <point x="944.7963157894737" y="749.4963157894737"/>
      <point x="829.6956842105263" y="563.7735789473684"/>
      <point x="829.6956842105263" y="362.5578947368421" type="curve" smooth="yes"/>
      <point x="829.6956842105263" y="156.4961052631579"/>
      <point x="931.735894736842" y="-24.006842105263157"/>
    </contour>
    <contour>
      <point x="1111.1393684210527" y="44.49105263157895" type="curve" smooth="yes"/>
      <point x="1016.7923157894737" y="44.49105263157895"/>
      <point x="972.0777894736842" y="163.07957894736842"/>
      <point x="972.0777894736842" y="362.5578947368421" type="curve" smooth="yes"/>
      <point x="972.0777894736842" y="564.0118947368421"/>
      <point x="1016.6943157894736" y="681.0773684210526"/>
      <point x="1111.1393684210527" y="681.0773684210526" type="curve" smooth="yes"/>
      <point x="1204.4107368421053" y="681.0773684210526"/>
      <point x="1250.7272631578946" y="563.3685263157895"/>
      <point x="1250.7272631578946" y="362.5578947368421" type="curve" smooth="yes"/>
      <point x="1250.7272631578946" y="163.44726315789472"/>
      <point x="1204.7107368421052" y="44.49105263157895"/>
    </contour>
    <contour>
      <point x="413.2183157894737" y="678.6773684210526" type="curve" smooth="yes"/>
      <point x="590.2337894736842" y="678.6773684210526"/>
      <point x="693.4883157894736" y="854.9639999999999"/>
      <point x="693.4883157894736" y="1065.542105263158" type="curve" smooth="yes"/>
      <point x="693.4883157894736" y="1265.6274736842106"/>
      <point x="582.2613684210527" y="1452.1068421052632"/>
      <point x="413.2183157894737" y="1452.1068421052632" type="curve" smooth="yes"/>
      <point x="246.27526315789476" y="1452.1068421052632"/>
      <point x="131.40094736842104" y="1266.4577894736842"/>
      <point x="131.40094736842104" y="1065.542105263158" type="curve" smooth="yes"/>
      <point x="131.40094736842104" y="859.254"/>
      <point x="233.44115789473685" y="678.6773684210526"/>
    </contour>
    <contour>
      <point x="413.2183157894737" y="747.2489473684211" type="curve" smooth="yes"/>
      <point x="318.79757894736844" y="747.2489473684211"/>
      <point x="274.15673684210526" y="865.3901052631579"/>
      <point x="274.15673684210526" y="1065.542105263158" type="curve" smooth="yes"/>
      <point x="274.15673684210526" y="1267.3697894736842"/>
      <point x="318.6995789473684" y="1383.608947368421"/>
      <point x="413.2183157894737" y="1383.608947368421" type="curve" smooth="yes"/>
      <point x="506.1896842105263" y="1383.608947368421"/>
      <point x="552.5062105263158" y="1265.979052631579"/>
      <point x="552.5062105263158" y="1065.542105263158" type="curve" smooth="yes"/>
      <point x="552.5062105263158" y="866.5788421052631"/>
      <point x="506.1896842105263" y="747.2489473684211"/>
    </contour>
  </outline>
</glyph>
<glyph name="ampersand" format="2">
  <advance width="1368.7767368421053"/>
  <unicode hex="0026"/>
  <note>
ampersand
</note>
  <outline>
    <contour>
      <point x="628.0466315789474" y="-29.580736842105264" type="curve" smooth="yes"/>
      <point x="728.2882105263158" y="-29.580736842105264"/>
      <point x="869.8053684210527" y="-13.364631578947368"/>
      <point x="927.8227368421053" y="23.172000000000004" type="curve"/>
      <point x="868.4388421052631" y="94.00431578947368" type="line"/>
      <point x="823.2921052631579" y="56.812315789473686"/>
      <point x="664.3573684210527" y="41.52242105263158"/>
      <point x="622.0466315789474" y="41.52242105263158" type="curve" smooth="yes"/>
      <point x="426.7935789473684" y="41.52242105263158"/>
      <point x="369.14294736842106" y="215.0997894736842"/>
      <point x="369.14294736842106" y="392.98526315789474" type="curve" smooth="yes"/>
      <point x="369.14294736842106" y="582.2201052631578"/>
      <point x="452.8761052631579" y="744.136"/>
      <point x="640.1361052631579" y="743.5412631578947" type="curve"/>
      <point x="645.8624210526316" y="816.0837894736842" type="line"/>
      <point x="488.5341052631579" y="813.9153684210527"/>
      <point x="447.7429473684211" y="979.6773684210526"/>
      <point x="447.7429473684211" y="1091.321052631579" type="curve" smooth="yes"/>
      <point x="447.7429473684211" y="1267.6062105263159"/>
      <point x="542.008" y="1390.887894736842"/>
      <point x="660.6097894736843" y="1390.887894736842" type="curve" smooth="yes"/>
      <point x="825.1903157894737" y="1390.887894736842" type="line"/>
      <point x="825.1903157894737" y="1461.991052631579" type="line"/>
      <point x="656.6097894736843" y="1461.991052631579" type="line" smooth="yes"/>
      <point x="388.7145263157895" y="1461.991052631579"/>
      <point x="230.87136842105264" y="1346.692"/>
      <point x="230.87136842105264" y="1091.321052631579" type="curve" smooth="yes"/>
      <point x="230.87136842105264" y="993.6176842105262"/>
      <point x="257.73873684210525" y="834.9504210526316"/>
      <point x="387.7312631578947" y="786.7223157894737" type="curve"/>
      <point x="232.1042105263158" y="744.1407368421053"/>
      <point x="133.02926315789475" y="571.0722105263158"/>
      <point x="133.02926315789475" y="386.98526315789474" type="curve" smooth="yes"/>
      <point x="133.02926315789475" y="111.98431578947368"/>
      <point x="334.79052631578946" y="-29.580736842105264"/>
    </contour>
    <contour>
      <point x="1036.1987368421053" y="-28.182736842105264" type="curve" smooth="yes"/>
      <point x="1127.2423157894737" y="-28.182736842105264"/>
      <point x="1193.4447368421052" y="-16.187684210526317"/>
      <point x="1250.0424210526317" y="6.982526315789474" type="curve"/>
      <point x="1250.0424210526317" y="107.80915789473686" type="line"/>
      <point x="1171.8723157894738" y="62.39136842105263"/>
      <point x="1143.1096842105262" y="50.46778947368421"/>
      <point x="1086.0542105263157" y="50.46778947368421" type="curve" smooth="yes"/>
      <point x="1064.992" y="50.46778947368421"/>
      <point x="1052.374" y="133.99484210526316"/>
      <point x="1052.374" y="233.7798947368421" type="curve" smooth="yes"/>
      <point x="1052.374" y="743.5412631578947" type="line"/>
      <point x="1193.874" y="743.5412631578947" type="line"/>
      <point x="1193.874" y="815.7837894736842" type="line"/>
      <point x="1052.374" y="815.7837894736842" type="line"/>
      <point x="1052.374" y="1127.6416842105264" type="line"/>
      <point x="969.4024210526316" y="1127.6416842105264" type="line"/>
      <point x="976.5708421052632" y="897.929052631579"/>
      <point x="824.9613684210526" y="815.7837894736842"/>
      <point x="685.3708421052631" y="815.7837894736842" type="curve" smooth="yes"/>
      <point x="637.5205263157895" y="815.7837894736842" type="line"/>
      <point x="628.9034736842106" y="743.5412631578947" type="line"/>
      <point x="823.2392631578947" y="743.5412631578947" type="line"/>
      <point x="823.2392631578947" y="205.10305263157895" type="line" smooth="yes"/>
      <point x="823.2392631578947" y="71.19894736842106"/>
      <point x="895.5271578947369" y="-28.182736842105264"/>
    </contour>
  </outline>
</glyph>
<glyph name="quotesingle" format="2">
  <advance width="387.7344210526316"/>
  <unicode hex="0027"/>
  <note>
quotesingle
</note>
  <outline>
    <contour>
      <point x="151.54031578947368" y="832.03" type="line"/>
      <point x="234.25073684210525" y="832.03" type="line"/>
      <point x="254.4677894736842" y="1358.312105263158" type="line"/>
      <point x="134.49294736842106" y="1358.312105263158" type="line"/>
    </contour>
  </outline>
</glyph>
<glyph name="parenleft" format="2">
  <advance width="572.269894736842"/>
  <unicode hex="0028"/>
  <note>
parenleft
</note>
  <outline>
    <contour>
      <point x="437.16936842105264" y="-411.49052631578945" type="curve"/>
      <point x="491.6223157894737" y="-368.1355789473684" type="line"/>
      <point x="334.7945263157895" y="-86.76894736842105"/>
      <point x="260.19042105263156" y="223.7063157894737"/>
      <point x="260.19042105263156" y="563.2437894736842" type="curve" smooth="yes"/>
      <point x="260.19042105263156" y="898.3905263157894"/>
      <point x="333.78473684210525" y="1200.9630526315789"/>
      <point x="492.22757894736844" y="1504.8492631578947" type="curve"/>
      <point x="435.92073684210527" y="1539.1668421052632" type="line"/>
      <point x="216.43726315789473" y="1246.9417894736841"/>
      <point x="100.20094736842105" y="930.8962105263158"/>
      <point x="100.20094736842105" y="566.2395789473684" type="curve" smooth="yes"/>
      <point x="100.20094736842105" y="206.66715789473685"/>
      <point x="213.19515789473684" y="-97.57221052631579"/>
    </contour>
  </outline>
</glyph>
<glyph name="parenright" format="2">
  <advance width="572.3435789473684"/>
  <unicode hex="0029"/>
  <note>
parenright
</note>
  <outline>
    <contour>
      <point x="135.40052631578948" y="-411.49052631578945" type="line"/>
      <point x="359.4484210526316" y="-97.57221052631579"/>
      <point x="472.1426315789474" y="206.66715789473685"/>
      <point x="472.1426315789474" y="566.2395789473684" type="curve" smooth="yes"/>
      <point x="472.1426315789474" y="930.5962105263158"/>
      <point x="356.05894736842106" y="1246.9417894736841"/>
      <point x="136.34915789473683" y="1539.3931578947368" type="curve"/>
      <point x="80.04231578947369" y="1504.8492631578947" type="line"/>
      <point x="239.01147368421053" y="1200.7367368421053"/>
      <point x="312.3057894736842" y="898.0957894736842"/>
      <point x="312.3057894736842" y="563.2437894736842" type="curve" smooth="yes"/>
      <point x="312.3057894736842" y="223.33263157894737"/>
      <point x="237.40168421052633" y="-87.21631578947368"/>
      <point x="80.64757894736843" y="-368.1355789473684" type="curve"/>
    </contour>
  </outline>
</glyph>
<glyph name="asterisk" format="2">
  <advance width="802.6073684210527"/>
  <unicode hex="002A"/>
  <note>
asterisk
</note>
  <outline>
    <contour>
      <point x="408.34684210526314" y="1135.8267368421052" type="line"/>
      <point x="523.7367368421053" y="1200.2498947368422"/>
      <point x="601.9445263157895" y="1202.8562105263159"/>
      <point x="636.4993684210526" y="1223.2766315789474" type="curve" smooth="yes"/>
      <point x="658.6006315789474" y="1236.3641052631579"/>
      <point x="646.3637894736842" y="1268.8034736842105"/>
      <point x="678.8387368421053" y="1287.6626315789474" type="curve"/>
      <point x="660.2203157894737" y="1319.2851578947368" type="line"/>
      <point x="628.3473684210527" y="1300.5240000000001"/>
      <point x="601.0089473684211" y="1322.776105263158"/>
      <point x="584.51" y="1313.2292631578948" type="curve" smooth="yes"/>
      <point x="551.1591578947368" y="1294.0128421052632"/>
      <point x="507.10957894736845" y="1229.0688421052632"/>
      <point x="393.8302105263158" y="1161.550947368421" type="curve"/>
    </contour>
    <contour>
      <point x="141.85873684210526" y="977.4905263157895" type="line"/>
      <point x="173.50536842105265" y="996.0253684210526"/>
      <point x="202.13778947368422" y="972.7238947368421"/>
      <point x="218.56905263157896" y="982.0747368421053" type="curve" smooth="yes"/>
      <point x="256.8338947368421" y="1004.2031578947368"/>
      <point x="294.76747368421053" y="1067.7068421052631"/>
      <point x="408.34684210526314" y="1135.8267368421052" type="curve"/>
      <point x="393.8302105263158" y="1161.550947368421" type="line"/>
      <point x="278.4403157894737" y="1096.752105263158"/>
      <point x="208.52884210526315" y="1095.2594736842104"/>
      <point x="166.57968421052632" y="1072.0273684210526" type="curve" smooth="yes"/>
      <point x="157.06905263157896" y="1066.3902105263157"/>
      <point x="155.64157894736843" y="1027.874210526316"/>
      <point x="123.16663157894737" y="1009.113052631579" type="curve"/>
    </contour>
    <contour>
      <point x="382.6115789473684" y="837.8298947368421" type="curve"/>
      <point x="418.4917894736842" y="837.8298947368421" type="line"/>
      <point x="418.4917894736842" y="874.5238947368421"/>
      <point x="453.46473684210525" y="888.5757894736842"/>
      <point x="453.46473684210525" y="906.1001052631578" type="curve" smooth="yes"/>
      <point x="453.46473684210525" y="949.5052631578948"/>
      <point x="416.9308421052632" y="1015.3609473684211"/>
      <point x="415.1203157894737" y="1147.302" type="curve"/>
      <point x="385.88505263157896" y="1147.302" type="line"/>
      <point x="384.07452631578946" y="1015.5872631578948"/>
      <point x="349.7123157894737" y="949.2789473684211"/>
      <point x="349.7123157894737" y="906.1001052631578" type="curve" smooth="yes"/>
      <point x="349.7123157894737" y="888.3494736842106"/>
      <point x="382.6115789473684" y="874.5238947368421"/>
    </contour>
    <contour>
      <point x="393.6282105263158" y="1135.2247368421054" type="curve"/>
      <point x="408.94884210526317" y="1160.7772631578948" type="line"/>
      <point x="295.5957894736842" y="1228.9708421052633"/>
      <point x="248.7602105263158" y="1295.2028421052632"/>
      <point x="217.66705263157894" y="1313.1312631578946" type="curve" smooth="yes"/>
      <point x="198.6724210526316" y="1324.092105263158"/>
      <point x="174.13168421052632" y="1300.3523157894738"/>
      <point x="141.65673684210526" y="1318.887157894737" type="curve"/>
      <point x="123.86663157894736" y="1287.5646315789475" type="line"/>
      <point x="155.51326315789476" y="1268.8034736842105"/>
      <point x="151.10473684210527" y="1232.0661052631579"/>
      <point x="165.6776842105263" y="1223.1786315789473" type="curve" smooth="yes"/>
      <point x="197.97484210526318" y="1204.0462105263157"/>
      <point x="278.2383157894737" y="1199.949894736842"/>
    </contour>
    <contour>
      <point x="584.1363157894737" y="981.9767368421053" type="curve" smooth="yes"/>
      <point x="599.9272631578947" y="972.9338947368421"/>
      <point x="628.6716842105263" y="996.0253684210526"/>
      <point x="660.2446315789474" y="977.4905263157895" type="curve"/>
      <point x="678.9367368421052" y="1008.8130526315789" type="line"/>
      <point x="647.0637894736842" y="1027.5742105263157"/>
      <point x="655.188" y="1060.3422105263157"/>
      <point x="636.1256842105263" y="1071.4253684210526" type="curve" smooth="yes"/>
      <point x="594.6982105263158" y="1095.1334736842105"/>
      <point x="524.1124210526316" y="1096.6541052631578"/>
      <point x="408.94884210526317" y="1160.7772631578948" type="curve"/>
      <point x="393.6282105263158" y="1135.2247368421054" type="line"/>
      <point x="507.3358947368421" y="1067.4068421052632"/>
      <point x="540.9051578947368" y="1007.2271578947368"/>
    </contour>
    <contour>
      <point x="385.88505263157896" y="1147.302" type="curve"/>
      <point x="415.72231578947367" y="1147.302" type="line"/>
      <point x="417.53284210526317" y="1279.845052631579"/>
      <point x="453.46473684210525" y="1345.4744210526317"/>
      <point x="453.46473684210525" y="1389.1058947368422" type="curve" smooth="yes"/>
      <point x="453.46473684210525" y="1406.1262105263158"/>
      <point x="419.0937894736842" y="1420.7801052631578"/>
      <point x="419.0937894736842" y="1457.474105263158" type="curve"/>
      <point x="382.6115789473684" y="1457.474105263158" type="line"/>
      <point x="382.6115789473684" y="1420.5537894736842"/>
      <point x="349.7123157894737" y="1406.1262105263158"/>
      <point x="349.7123157894737" y="1389.1058947368422" type="curve" smooth="yes"/>
      <point x="349.7123157894737" y="1345.927052631579"/>
      <point x="384.07452631578946" y="1279.6187368421054"/>
    </contour>
  </outline>
</glyph>
<glyph name="plus" format="2">
  <advance width="1081.3187368421052"/>
  <unicode hex="002B"/>
  <note>
plus
</note>
  <outline>
    <contour>
      <point x="124.43936842105263" y="601.5089473684211" type="line"/>
      <point x="956.8793684210526" y="601.5089473684211" type="line"/>
      <point x="956.8793684210526" y="734.57" type="line"/>
      <point x="124.43936842105263" y="734.57" type="line"/>
    </contour>
    <contour>
      <point x="482.8656842105263" y="251.81947368421052" type="line"/>
      <point x="598.3793684210526" y="251.81947368421052" type="line"/>
      <point x="598.3793684210526" y="1084.2594736842104" type="line"/>
      <point x="482.8656842105263" y="1084.2594736842104" type="line"/>
    </contour>
  </outline>
</glyph>
<glyph name="comma" format="2">
  <advance width="553.5684210526316"/>
  <unicode hex="002C"/>
  <note>
comma
</note>
  <outline>
    <contour>
      <point x="132.92726315789474" y="-161.48368421052632" type="curve"/>
      <point x="294.1786315789474" y="-161.48368421052632" type="line"/>
      <point x="351.8972631578947" y="-54.47"/>
      <point x="399.6647368421053" y="61.56"/>
      <point x="426.46547368421056" y="164.8542105263158" type="curve"/>
      <point x="230.71157894736842" y="164.8542105263158" type="line"/>
      <point x="195.15863157894736" y="85.92600000000002"/>
      <point x="149.34578947368422" y="-61.83210526315789"/>
    </contour>
  </outline>
</glyph>
<glyph name="hyphen" format="2">
  <advance width="685.7147368421053"/>
  <unicode hex="002D"/>
  <note>
hyphen
</note>
  <outline>
    <contour>
      <point x="74.9718947368421" y="450.76157894736843" type="line"/>
      <point x="571.2620000000001" y="450.76157894736843" type="line"/>
      <point x="611.9491578947368" y="573.9721052631579" type="line"/>
      <point x="115.05905263157894" y="573.9721052631579" type="line"/>
    </contour>
  </outline>
</glyph>
<glyph name="period" format="2">
  <advance width="528.3504210526316"/>
  <unicode hex="002E"/>
  <note>
period
</note>
  <outline>
    <contour>
      <point x="263.8742105263158" y="-22.098" type="curve" smooth="yes"/>
      <point x="337.0568421052632" y="-22.098"/>
      <point x="394.0494736842105" y="31.880105263157894"/>
      <point x="394.0494736842105" y="108.30357894736842" type="curve" smooth="yes"/>
      <point x="394.0494736842105" y="185.93105263157895"/>
      <point x="335.85284210526316" y="237.50115789473685"/>
      <point x="263.8742105263158" y="237.50115789473685" type="curve" smooth="yes"/>
      <point x="191.89557894736842" y="237.50115789473685"/>
      <point x="133.69894736842105" y="185.93105263157895"/>
      <point x="133.69894736842105" y="108.30357894736842" type="curve" smooth="yes"/>
      <point x="133.69894736842105" y="32.10642105263158"/>
      <point x="190.46526315789475" y="-22.098"/>
    </contour>
  </outline>
</glyph>
<glyph name="slash" format="2">
  <advance width="697.3071578947369"/>
  <unicode hex="002F"/>
  <note>
slash
</note>
  <outline>
    <contour>
      <point x="47.39694736842105" y="-400.3015789473684" type="line"/>
      <point x="161.87884210526317" y="-400.3015789473684" type="line"/>
      <point x="649.9102105263158" y="1497.2436842105262" type="line"/>
      <point x="535.6546315789474" y="1497.2436842105262" type="line"/>
    </contour>
  </outline>
</glyph>
<glyph name="zero" format="2">
  <advance width="1285.4898947368422"/>
  <unicode hex="0030"/>
  <note>
zero
</note>
  <anchor x="637.7481052631579" y="712.2103157894737" name="center"/>
  <outline>
    <contour>
      <point x="642.7081052631579" y="-35.398736842105265" type="curve" smooth="yes"/>
      <point x="988.1411578947368" y="-35.398736842105265"/>
      <point x="1195.9686315789475" y="327.13915789473685"/>
      <point x="1195.9686315789475" y="712.2103157894737" type="curve" smooth="yes"/>
      <point x="1195.9686315789475" y="1100.6762105263158"/>
      <point x="966.9158947368421" y="1461.612105263158"/>
      <point x="642.7081052631579" y="1461.612105263158" type="curve" smooth="yes"/>
      <point x="313.8026315789474" y="1461.612105263158"/>
      <point x="89.52126315789474" y="1101.4935789473684"/>
      <point x="89.52126315789474" y="712.2103157894737" type="curve" smooth="yes"/>
      <point x="89.52126315789474" y="331.78757894736844"/>
      <point x="297.9414736842105" y="-35.398736842105265"/>
    </contour>
    <contour>
      <point x="642.7081052631579" y="33.0601052631579" type="curve" smooth="yes"/>
      <point x="440.46536842105263" y="33.0601052631579"/>
      <point x="325.8981052631579" y="302.53063157894735"/>
      <point x="325.8981052631579" y="712.2103157894737" type="curve" smooth="yes"/>
      <point x="325.8981052631579" y="1121.4676842105264"/>
      <point x="439.66736842105263" y="1393.3058947368422"/>
      <point x="642.7081052631579" y="1393.3058947368422" type="curve" smooth="yes"/>
      <point x="844.4468421052632" y="1393.3058947368422"/>
      <point x="959.4391578947368" y="1120.7696842105263"/>
      <point x="959.4391578947368" y="712.2103157894737" type="curve" smooth="yes"/>
      <point x="959.4391578947368" y="303.5963157894737"/>
      <point x="845.4468421052632" y="33.0601052631579"/>
    </contour>
  </outline>
</glyph>
<glyph name="one" format="2">
  <advance width="639.4507368421052"/>
  <unicode hex="0031"/>
  <note>
one
</note>
  <outline>
    <contour>
      <point x="253.60631578947368" y="-0.22631578947368425" type="line"/>
      <point x="482.9717894736842" y="-0.22631578947368425" type="line"/>
      <point x="482.9717894736842" y="1428.455894736842" type="line"/>
      <point x="391.2663157894737" y="1428.455894736842" type="line"/>
      <point x="46.58294736842105" y="916.4433684210526" type="line"/>
      <point x="99.04168421052631" y="879.2175789473685" type="line"/>
      <point x="305.9002105263158" y="1177.4218947368422" type="line"/>
      <point x="253.60631578947368" y="1163.092105263158" type="line"/>
    </contour>
  </outline>
</glyph>
<glyph name="two" format="2">
  <advance width="1126.422210526316"/>
  <unicode hex="0032"/>
  <note>
two
</note>
  <outline>
    <contour>
      <point x="61.380947368421054" y="0.0" type="line"/>
      <point x="1020.0938947368421" y="0.0" type="line"/>
      <point x="1020.0938947368421" y="181.47231578947367" type="line"/>
      <point x="280.6197894736842" y="181.4723157894737" type="line"/>
      <point x="272.00747368421054" y="121.45326315789474" type="line"/>
      <point x="465.0202105263158" y="284.5602105263158"/>
      <point x="636.9242105263158" y="440.08147368421055"/>
      <point x="800.0372631578947" y="612.9887368421053" type="curve" smooth="yes"/>
      <point x="906.168" y="724.6357894736842"/>
      <point x="1028.2156842105264" y="866.0443157894737"/>
      <point x="1028.2156842105264" y="1071.832" type="curve" smooth="yes"/>
      <point x="1028.2156842105264" y="1362.3016842105262"/>
      <point x="806.9397894736842" y="1461.991052631579"/>
      <point x="591.892" y="1461.991052631579" type="curve" smooth="yes"/>
      <point x="307.12863157894736" y="1461.991052631579"/>
      <point x="113.97947368421052" y="1297.3388421052632"/>
      <point x="113.97947368421052" y="1047.1268421052632" type="curve" smooth="yes"/>
      <point x="113.97947368421052" y="1038.6814736842105"/>
      <point x="114.35315789473685" y="1016.3736842105263"/>
      <point x="118.3438947368421" y="987.5673684210526" type="curve"/>
      <point x="334.7707368421053" y="989.3501052631578" type="line"/>
      <point x="334.7707368421053" y="1025.4148421052632" type="line" smooth="yes"/>
      <point x="334.7707368421053" y="1195.908105263158"/>
      <point x="413.8872631578947" y="1397.229052631579"/>
      <point x="569.7614736842105" y="1397.229052631579" type="curve" smooth="yes"/>
      <point x="682.6203157894737" y="1397.229052631579"/>
      <point x="798.9171578947369" y="1301.8552631578948"/>
      <point x="798.9171578947369" y="1091.0863157894737" type="curve" smooth="yes"/>
      <point x="798.9171578947369" y="855.042"/>
      <point x="647.9251578947368" y="639.1082105263158"/>
      <point x="423.44863157894736" y="393.54705263157894" type="curve" smooth="yes"/>
    </contour>
  </outline>
</glyph>
<glyph name="three" format="2">
  <advance width="1114.4006315789475"/>
  <unicode hex="0033"/>
  <note>
three
</note>
  <outline>
    <contour>
      <point x="525.2765263157895" y="-33.30821052631579" type="curve" smooth="yes"/>
      <point x="814.0075789473684" y="-33.30821052631579"/>
      <point x="1022.4833684210527" y="127.41705263157894"/>
      <point x="1022.4833684210527" y="398.85884210526314" type="curve" smooth="yes"/>
      <point x="1022.4833684210527" y="608.5893684210527"/>
      <point x="893.0908421052632" y="779.864"/>
      <point x="682.8470526315789" y="790.3525263157894" type="curve"/>
      <point x="648.8967368421052" y="745.0933684210527" type="line"/>
      <point x="871.6349473684211" y="770.6651578947368"/>
      <point x="986.5991578947369" y="905.2304210526315"/>
      <point x="986.5991578947369" y="1093.2017894736841" type="curve" smooth="yes"/>
      <point x="986.5991578947369" y="1321.747894736842"/>
      <point x="822.3005263157895" y="1461.612105263158"/>
      <point x="559.5765263157895" y="1461.612105263158" type="curve" smooth="yes"/>
      <point x="285.35147368421053" y="1461.612105263158"/>
      <point x="109.66136842105263" y="1310.5824210526316"/>
      <point x="100.42231578947369" y="1069.9325263157896" type="curve"/>
      <point x="300.14589473684214" y="1070.1468421052632" type="line"/>
      <point x="303.696" y="1210.745894736842"/>
      <point x="394.4245263157895" y="1394.4724210526315"/>
      <point x="555.2765263157895" y="1394.4724210526315" type="curve" smooth="yes"/>
      <point x="702.1590526315789" y="1394.4724210526315"/>
      <point x="776.5071578947368" y="1235.0844210526316"/>
      <point x="776.5071578947368" y="1072.1073684210526" type="curve" smooth="yes"/>
      <point x="776.5071578947368" y="903.8946315789474"/>
      <point x="695.7431578947369" y="798.7603157894737"/>
      <point x="511.2028421052632" y="798.7603157894737" type="curve" smooth="yes"/>
      <point x="322.5486315789474" y="798.7603157894737" type="line"/>
      <point x="322.5486315789474" y="738.3173684210526" type="line"/>
      <point x="515.2028421052631" y="738.3173684210526" type="line" smooth="yes"/>
      <point x="701.1207368421053" y="738.3173684210526"/>
      <point x="791.0777894736842" y="584.9114736842105"/>
      <point x="791.0777894736842" y="403.72726315789475" type="curve" smooth="yes"/>
      <point x="791.0777894736842" y="215.97294736842105"/>
      <point x="697.8016842105263" y="31.803368421052635"/>
      <point x="531.2765263157895" y="31.803368421052635" type="curve" smooth="yes"/>
      <point x="371.67547368421054" y="31.803368421052635"/>
      <point x="283.3747368421053" y="203.37536842105263"/>
      <point x="283.3747368421053" y="352.8037894736842" type="curve" smooth="yes"/>
      <point x="283.3747368421053" y="374.3316842105263" type="line"/>
      <point x="73.67494736842104" y="374.9196842105263" type="line"/>
      <point x="73.67494736842104" y="344.7338947368421" type="line" smooth="yes"/>
      <point x="73.67494736842104" y="112.75242105263158"/>
      <point x="250.0218947368421" y="-33.30821052631579"/>
    </contour>
  </outline>
</glyph>
<glyph name="four" format="2">
  <advance width="1068.8804210526316"/>
  <unicode hex="0034"/>
  <note>
four
</note>
  <outline>
    <contour>
      <point x="647.5274736842106" y="0.0" type="line"/>
      <point x="837.882947368421" y="0.0" type="line"/>
      <point x="837.882947368421" y="449.63978947368423" type="line"/>
      <point x="719.8286315789474" y="344.61905263157894" type="line"/>
      <point x="1011.3461052631579" y="344.61905263157894" type="line"/>
      <point x="1011.3461052631579" y="507.1043157894737" type="line"/>
      <point x="719.8286315789474" y="507.1043157894737" type="line"/>
      <point x="837.882947368421" y="407.1066315789474" type="line"/>
      <point x="837.882947368421" y="878.9005263157895" type="line"/>
      <point x="647.5274736842106" y="878.9005263157895" type="line"/>
      <point x="647.5274736842106" y="407.1066315789474" type="line"/>
      <point x="752.9028421052632" y="507.1043157894737" type="line"/>
      <point x="194.8481052631579" y="507.1043157894737" type="line"/>
      <point x="245.3237894736842" y="453.9656842105263" type="line"/>
      <point x="409.8261052631579" y="776.3163157894737"/>
      <point x="567.5592631578947" y="1067.6213684210527"/>
      <point x="680.1434736842106" y="1448.15" type="curve"/>
      <point x="559.5822105263157" y="1448.15" type="line"/>
      <point x="462.8337894736842" y="1091.9135789473685"/>
      <point x="283.1121052631579" y="759.3505263157895"/>
      <point x="46.852631578947374" y="344.61905263157894" type="curve"/>
      <point x="752.9028421052632" y="344.61905263157894" type="line"/>
      <point x="647.5274736842106" y="449.63978947368423" type="line"/>
    </contour>
  </outline>
</glyph>
<glyph name="five" format="2">
  <advance width="1020.7725263157895"/>
  <unicode hex="0035"/>
  <note>
five
</note>
  <outline>
    <contour>
      <point x="401.4978947368421" y="-29.89778947368421" type="curve" smooth="yes"/>
      <point x="723.5502105263158" y="-29.89778947368421"/>
      <point x="933.0775789473685" y="175.73263157894738"/>
      <point x="933.0775789473685" y="458.9976842105263" type="curve" smooth="yes"/>
      <point x="933.0775789473685" y="733.9348421052632"/>
      <point x="738.582" y="874.2085263157895"/>
      <point x="459.8093684210526" y="874.2085263157895" type="curve" smooth="yes"/>
      <point x="346.65305263157893" y="874.2085263157895"/>
      <point x="232.17126315789474" y="845.2353684210526"/>
      <point x="183.45094736842105" y="777.5046315789474" type="curve"/>
      <point x="219.80905263157894" y="785.3594736842106" type="line"/>
      <point x="342.66136842105266" y="1322.2475789473683" type="line"/>
      <point x="256.2968421052632" y="1226.5488421052632" type="line"/>
      <point x="869.8521052631579" y="1226.5488421052632" type="line"/>
      <point x="869.8521052631579" y="1431.372" type="line"/>
      <point x="270.9567368421053" y="1431.372" type="line"/>
      <point x="122.89094736842105" y="740.8169473684211" type="line"/>
      <point x="179.66957894736842" y="719.7141052631579" type="line"/>
      <point x="232.58957894736844" y="776.482947368421"/>
      <point x="308.7361052631579" y="800.5748421052632"/>
      <point x="389.56094736842107" y="800.5748421052632" type="curve" smooth="yes"/>
      <point x="595.0227368421052" y="800.5748421052632"/>
      <point x="708.6091578947369" y="665.3563157894737"/>
      <point x="708.6091578947369" y="450.58" type="curve" smooth="yes"/>
      <point x="708.6091578947369" y="271.65736842105264"/>
      <point x="621.0392631578948" y="43.166210526315794"/>
      <point x="401.7547368421053" y="43.166210526315794" type="curve" smooth="yes"/>
      <point x="299.438" y="43.166210526315794"/>
      <point x="189.2561052631579" y="90.87652631578948"/>
      <point x="91.57684210526315" y="163.4262105263158" type="curve"/>
      <point x="60.02663157894737" y="97.36252631578948" type="line"/>
      <point x="160.9563157894737" y="15.77957894736842"/>
      <point x="259.8817894736842" y="-29.89778947368421"/>
    </contour>
  </outline>
</glyph>
<glyph name="six" format="2">
  <advance width="1113.7787368421052"/>
  <unicode hex="0036"/>
  <note>
six
</note>
  <outline>
    <contour>
      <point x="552.3985263157895" y="-36.230315789473686" type="curve" smooth="yes"/>
      <point x="883.4726315789474" y="-36.682947368421054"/>
      <point x="1043.322105263158" y="182.35484210526317"/>
      <point x="1043.322105263158" y="436.42705263157893" type="curve" smooth="yes"/>
      <point x="1043.322105263158" y="698.3043157894737"/>
      <point x="865.7031578947368" y="894.6301052631579"/>
      <point x="580.0997894736843" y="894.6301052631579" type="curve" smooth="yes"/>
      <point x="427.4157894736842" y="894.6301052631579"/>
      <point x="309.69936842105267" y="828.1615789473684"/>
      <point x="243.23094736842106" y="694.7362105263157" type="curve"/>
      <point x="283.14473684210526" y="687.3526315789474" type="line"/>
      <point x="312.8685263157895" y="871.7888421052631"/>
      <point x="360.2707368421053" y="979.5532631578948"/>
      <point x="434.6824210526316" y="1081.7486315789474" type="curve" smooth="yes"/>
      <point x="518.8331578947368" y="1202.449052631579"/>
      <point x="641.1428421052632" y="1306.642842105263"/>
      <point x="811.0512631578947" y="1356.127157894737" type="curve"/>
      <point x="810.3038947368422" y="1455.5285263157896" type="line"/>
      <point x="531.1092631578947" y="1410.072947368421"/>
      <point x="344.45063157894737" y="1259.5613684210525"/>
      <point x="233.76557894736843" y="1066.9112631578948" type="curve" smooth="yes"/>
      <point x="130.38315789473685" y="906.2533684210526"/>
      <point x="86.59094736842106" y="702.2935789473685"/>
      <point x="86.59094736842106" y="528.4911578947368" type="curve" smooth="yes"/>
      <point x="86.59094736842106" y="141.53347368421055"/>
      <point x="278.72684210526313" y="-35.77768421052632"/>
    </contour>
    <contour>
      <point x="566.5847368421053" y="38.37778947368422" type="curve" smooth="yes"/>
      <point x="397.33178947368424" y="38.83042105263158"/>
      <point x="309.6941052631579" y="230.42873684210525"/>
      <point x="310.14673684210527" y="430.2286315789474" type="curve" smooth="yes"/>
      <point x="310.59936842105265" y="642.9676842105264"/>
      <point x="416.7113684210526" y="817.5838947368421"/>
      <point x="579.6872631578948" y="817.5838947368421" type="curve" smooth="yes"/>
      <point x="752.6511578947368" y="817.5838947368421"/>
      <point x="821.8921052631579" y="600.0693684210527"/>
      <point x="821.8921052631579" y="424.89326315789475" type="curve" smooth="yes"/>
      <point x="821.8921052631579" y="225.1661052631579"/>
      <point x="729.2568421052631" y="38.15147368421053"/>
    </contour>
  </outline>
</glyph>
<glyph name="seven" format="2">
  <advance width="1024.0834736842105"/>
  <unicode hex="0037"/>
  <note>
seven
</note>
  <outline>
    <contour>
      <point x="280.88505263157896" y="-0.602" type="curve"/>
      <point x="425.89673684210527" y="-0.602" type="line"/>
      <point x="503.6062105263158" y="520.1833684210526"/>
      <point x="672.9871578947368" y="931.722"/>
      <point x="977.1085263157895" y="1418.7384210526316" type="curve"/>
      <point x="58.286" y="1418.7384210526316" type="line"/>
      <point x="58.286" y="1219.157894736842" type="line"/>
      <point x="816.6285263157895" y="1219.157894736842" type="line"/>
      <point x="776.9215789473684" y="1314.8226315789473" type="line"/>
      <point x="535.3802105263158" y="910.5721052631579"/>
      <point x="370.5205263157895" y="518.5092631578948"/>
    </contour>
  </outline>
</glyph>
<glyph name="eight" format="2">
  <advance width="1100.0346315789475"/>
  <unicode hex="0038"/>
  <note>
eight
</note>
  <outline>
    <contour>
      <point x="540.6217894736842" y="-33.873684210526314" type="curve" smooth="yes"/>
      <point x="830.8581052631579" y="-33.873684210526314"/>
      <point x="1020.7396842105263" y="129.59273684210527"/>
      <point x="1020.7396842105263" y="380.2373684210526" type="curve" smooth="yes"/>
      <point x="1020.7396842105263" y="598.3531578947368"/>
      <point x="888.3367368421052" y="749.9494736842105"/>
      <point x="599.9503157894737" y="850.638" type="curve" smooth="yes"/>
      <point x="417.56000000000006" y="914.7105263157895"/>
      <point x="348.5518947368421" y="992.4403157894736"/>
      <point x="348.5518947368421" y="1107.4363157894736" type="curve" smooth="yes"/>
      <point x="348.5518947368421" y="1276.3281052631578"/>
      <point x="437.16557894736843" y="1384.4468421052632"/>
      <point x="579.8452631578947" y="1384.4468421052632" type="curve" smooth="yes"/>
      <point x="729.7081052631579" y="1384.4468421052632"/>
      <point x="847.7063157894737" y="1271.6406315789475"/>
      <point x="847.7063157894737" y="1123.8135789473683" type="curve" smooth="yes"/>
      <point x="847.7063157894737" y="998.9062105263158"/>
      <point x="778.613052631579" y="882.2315789473685"/>
      <point x="583.2310526315789" y="808.2318947368422" type="curve"/>
      <point x="685.0815789473684" y="782.8649473684211" type="line"/>
      <point x="840.5087368421052" y="851.5704210526316"/>
      <point x="938.408" y="980.0475789473684"/>
      <point x="938.408" y="1126.374947368421" type="curve" smooth="yes"/>
      <point x="938.408" y="1318.3333684210527"/>
      <point x="772.3452631578947" y="1450.718105263158"/>
      <point x="558.6295789473684" y="1450.5464210526316" type="curve" smooth="yes"/>
      <point x="321.55747368421055" y="1450.1484210526316"/>
      <point x="151.26263157894738" y="1313.2408421052633"/>
      <point x="151.26263157894738" y="1098.6618947368422" type="curve" smooth="yes"/>
      <point x="151.26263157894738" y="914.0891578947368"/>
      <point x="277.3396842105263" y="779.5810526315789"/>
      <point x="476.1856842105263" y="707.1258947368422" type="curve" smooth="yes"/>
      <point x="743.7574736842105" y="608.4846315789474"/>
      <point x="812.788" y="525.3023157894737"/>
      <point x="812.788" y="364.76768421052634" type="curve" smooth="yes"/>
      <point x="812.788" y="164.89473684210526"/>
      <point x="709.6928421052631" y="39.581263157894746"/>
      <point x="526.2735789473684" y="38.377263157894745" type="curve" smooth="yes"/>
      <point x="320.70557894736845" y="37.17326315789474"/>
      <point x="200.15684210526317" y="179.95336842105263"/>
      <point x="199.98515789473686" y="360.2225263157895" type="curve" smooth="yes"/>
      <point x="199.58715789473683" y="517.7367368421053"/>
      <point x="286.08242105263156" y="655.3906315789474"/>
      <point x="467.60084210526315" y="750.1116842105263" type="curve"/>
      <point x="394.93505263157897" y="778.3450526315789" type="line"/>
      <point x="194.76463157894736" y="695.5726315789474"/>
      <point x="80.97494736842106" y="542.71"/>
      <point x="80.97494736842106" y="355.91852631578945" type="curve" smooth="yes"/>
      <point x="80.97494736842106" y="126.7038947368421"/>
      <point x="254.89084210526318" y="-33.873684210526314"/>
    </contour>
  </outline>
</glyph>
<glyph name="nine" format="2">
  <advance width="1115.5987368421054"/>
  <unicode hex="0039"/>
  <note>
nine
</note>
  <outline>
    <contour>
      <point x="220.4523157894737" y="-51.33052631578948" type="line"/>
      <point x="426.09526315789475" y="-27.983368421052635"/>
      <point x="613.2228421052631" y="68.28494736842104"/>
      <point x="734.0305263157895" y="171.5797894736842" type="curve" smooth="yes"/>
      <point x="795.2911578947369" y="223.75863157894736"/>
      <point x="854.9810526315789" y="294.4370526315789"/>
      <point x="905.8254736842105" y="387.70178947368424" type="curve" smooth="yes"/>
      <point x="999.5187368421052" y="559.282"/>
      <point x="1028.7977894736841" y="767.5525263157895"/>
      <point x="1028.7977894736841" y="916.6428421052632" type="curve" smooth="yes"/>
      <point x="1028.7977894736841" y="1297.6785263157894"/>
      <point x="838.7455789473685" y="1450.8116842105262"/>
      <point x="566.6022105263158" y="1451.2643157894736" type="curve" smooth="yes"/>
      <point x="238.6221052631579" y="1451.716947368421"/>
      <point x="72.06663157894738" y="1237.7677894736842"/>
      <point x="72.06663157894738" y="984.1888421052631" type="curve" smooth="yes"/>
      <point x="72.06663157894738" y="716.8130526315789"/>
      <point x="254.7397894736842" y="515.2512631578948"/>
      <point x="533.8586315789473" y="515.2512631578948" type="curve" smooth="yes"/>
      <point x="689.4429473684211" y="515.2512631578948"/>
      <point x="800.5367368421053" y="584.482947368421"/>
      <point x="872.1577894736843" y="720.5241052631579" type="curve"/>
      <point x="834.5895789473684" y="730.0893684210527" type="line"/>
      <point x="799.5838947368421" y="559.1415789473684"/>
      <point x="762.9633684210527" y="441.8501052631579"/>
      <point x="678.3493684210526" y="329.92705263157893" type="curve" smooth="yes"/>
      <point x="597.3243157894738" y="217.37463157894737"/>
      <point x="447.6523157894737" y="87.12021052631579"/>
      <point x="227.17336842105263" y="56.36031578947368" type="curve"/>
    </contour>
    <contour>
      <point x="534.5711578947369" y="595.0606315789473" type="curve" smooth="yes"/>
      <point x="362.4009473684211" y="595.0606315789473"/>
      <point x="295.1387368421053" y="814.6846315789473"/>
      <point x="295.1387368421053" y="988.4986315789474" type="curve" smooth="yes"/>
      <point x="295.1387368421053" y="1188.693157894737"/>
      <point x="386.3163157894737" y="1375.9877894736842"/>
      <point x="548.8776842105264" y="1375.5351578947368" type="curve" smooth="yes"/>
      <point x="716.5255789473684" y="1375.3088421052632"/>
      <point x="803.8262105263158" y="1180.825052631579"/>
      <point x="803.3735789473684" y="983.1632631578948" type="curve" smooth="yes"/>
      <point x="802.920947368421" y="769.4808421052632"/>
      <point x="696.324947368421" y="595.0606315789473"/>
    </contour>
  </outline>
</glyph>
<glyph name="greater" format="2">
  <advance width="1081.3187368421052"/>
  <unicode hex="003E"/>
  <note>
greater
</note>
  <outline>
    <contour>
      <point x="125.04136842105264" y="244.9202105263158" type="line"/>
      <point x="948.6306315789474" y="619.2096842105263" type="line"/>
      <point x="948.6306315789474" y="746.4218947368421" type="line"/>
      <point x="125.04136842105264" y="1120.4113684210527" type="line"/>
      <point x="124.43936842105263" y="987.1696842105263" type="line"/>
      <point x="795.0892631578947" y="683.6263157894737" type="line"/>
      <point x="124.43936842105263" y="378.2355789473684" type="line"/>
    </contour>
  </outline>
</glyph>
<glyph name="question" format="2">
  <advance width="1034.8853684210526"/>
  <unicode hex="003F"/>
  <note>
question
</note>
  <outline>
    <contour>
      <point x="429.9665263157895" y="425.544" type="curve"/>
      <point x="529.6910526315789" y="425.544" type="line"/>
      <point x="509.04084210526315" y="483.04642105263156"/>
      <point x="483.63484210526315" y="565.5391578947368"/>
      <point x="483.63484210526315" y="630.8421052631579" type="curve" smooth="yes"/>
      <point x="483.63484210526315" y="903.9998947368421"/>
      <point x="928.2633684210526" y="867.4433684210526"/>
      <point x="928.2633684210526" y="1170.3578947368421" type="curve" smooth="yes"/>
      <point x="928.2633684210526" y="1401.5596842105263"/>
      <point x="688.9801052631578" y="1464.6496842105264"/>
      <point x="485.7764210526316" y="1464.6496842105264" type="curve" smooth="yes"/>
      <point x="249.32621052631578" y="1464.6496842105264"/>
      <point x="101.22" y="1382.1476842105262"/>
      <point x="101.22" y="1180.3894736842105" type="curve" smooth="yes"/>
      <point x="101.22" y="1168.4744210526317"/>
      <point x="101.22" y="1156.7731578947369"/>
      <point x="101.22" y="1133.9713684210526" type="curve"/>
      <point x="264.18568421052635" y="1133.9713684210526" type="line"/>
      <point x="258.13705263157897" y="1157.7626315789473"/>
      <point x="257.06336842105264" y="1187.8927368421053"/>
      <point x="257.06336842105264" y="1200.9736842105262" type="curve" smooth="yes"/>
      <point x="257.06336842105264" y="1321.300105263158"/>
      <point x="340.4821052631579" y="1394.3334736842105"/>
      <point x="483.8501052631579" y="1394.3334736842105" type="curve" smooth="yes"/>
      <point x="631.8017894736843" y="1394.3334736842105"/>
      <point x="717.6757894736842" y="1299.248947368421"/>
      <point x="717.6757894736842" y="1161.1631578947367" type="curve" smooth="yes"/>
      <point x="717.6757894736842" y="893.7335789473684"/>
      <point x="399.01042105263156" y="949.0740000000001"/>
      <point x="399.01042105263156" y="619.1421052631579" type="curve" smooth="yes"/>
      <point x="399.01042105263156" y="549.8764210526316"/>
      <point x="415.21884210526315" y="475.1656842105263"/>
    </contour>
    <contour>
      <point x="482.46852631578946" y="-25.040105263157894" type="curve" smooth="yes"/>
      <point x="551.134" y="-25.040105263157894"/>
      <point x="602.6435789473684" y="27.981263157894738"/>
      <point x="602.6435789473684" y="99.43494736842106" type="curve" smooth="yes"/>
      <point x="602.6435789473684" y="171.7683157894737"/>
      <point x="549.9300000000001" y="222.15536842105263"/>
      <point x="482.46852631578946" y="222.15536842105263" type="curve" smooth="yes"/>
      <point x="415.007052631579" y="222.15536842105263"/>
      <point x="362.29347368421054" y="171.7683157894737"/>
      <point x="362.29347368421054" y="99.43494736842106" type="curve" smooth="yes"/>
      <point x="362.29347368421054" y="27.981263157894738"/>
      <point x="413.80305263157896" y="-25.040105263157894"/>
    </contour>
  </outline>
</glyph>
<glyph name="at" format="2">
  <advance width="1726.439894736842"/>
  <unicode hex="0040"/>
  <note>
at
</note>
  <outline>
    <contour>
      <point x="907.1676842105263" y="-33.85947368421053" type="curve" smooth="yes"/>
      <point x="1196.6004210526316" y="-33.85947368421053"/>
      <point x="1454.0081052631579" y="124.91957894736842"/>
      <point x="1586.156" y="363.40684210526314" type="curve"/>
      <point x="1494.9433684210526" y="364.77526315789476" type="line"/>
      <point x="1370.6087368421051" y="163.93757894736842"/>
      <point x="1154.6467368421052" y="35.891052631578944"/>
      <point x="906.7150526315789" y="35.891052631578944" type="curve" smooth="yes"/>
      <point x="527.0062105263158" y="35.891052631578944"/>
      <point x="218.29031578947368" y="340.41557894736843"/>
      <point x="218.29031578947368" y="714.8789473684211" type="curve" smooth="yes"/>
      <point x="218.29031578947368" y="1087.9423157894737"/>
      <point x="527.0062105263158" y="1392.3931578947368"/>
      <point x="906.7150526315789" y="1392.3931578947368" type="curve" smooth="yes"/>
      <point x="1241.5545263157894" y="1392.3931578947368"/>
      <point x="1489.2976842105263" y="1158.7392631578948"/>
      <point x="1489.2976842105263" y="838.2578947368421" type="curve" smooth="yes"/>
      <point x="1489.2976842105263" y="727.8582105263158"/>
      <point x="1456.5916842105264" y="624.5553684210527"/>
      <point x="1406.880947368421" y="552.9471578947368" type="curve" smooth="yes"/>
      <point x="1370.1706315789475" y="498.6691578947368"/>
      <point x="1277.586947368421" y="385.91736842105263"/>
      <point x="1222.5992631578947" y="374.0436842105263" type="curve" smooth="yes"/>
      <point x="1176.5911578947369" y="375.9121052631579"/>
      <point x="1155.7166315789473" y="401.3495789473684"/>
      <point x="1151.4344210526315" y="435.3190526315789" type="curve"/>
      <point x="1316.7369473684212" y="1088.0331578947369" type="line"/>
      <point x="1116.9297894736842" y="1088.0331578947369" type="line"/>
      <point x="1088.7617894736843" y="977.4564210526315" type="line"/>
      <point x="1064.5005263157896" y="1073.255894736842"/>
      <point x="1007.6694736842105" y="1109.433157894737"/>
      <point x="909.9624210526316" y="1109.433157894737" type="curve" smooth="yes"/>
      <point x="629.8862105263158" y="1109.433157894737"/>
      <point x="419.77663157894733" y="814.8754736842105"/>
      <point x="419.77663157894733" y="562.1157894736842" type="curve" smooth="yes"/>
      <point x="419.77663157894733" y="385.7102105263158"/>
      <point x="528.5021052631579" y="271.6615789473684"/>
      <point x="711.2571578947368" y="271.6615789473684" type="curve" smooth="yes"/>
      <point x="823.2042105263158" y="271.6615789473684"/>
      <point x="897.1967368421052" y="313.172"/>
      <point x="977.1465263157895" y="422.0842105263158" type="curve"/>
      <point x="1003.4716842105263" y="345.0721052631579"/>
      <point x="1047.864" y="285.36157894736846"/>
      <point x="1140.930842105263" y="285.36157894736846" type="curve" smooth="yes"/>
      <point x="1207.2883157894737" y="285.36157894736846"/>
      <point x="1280.0588421052632" y="317.5563157894737"/>
      <point x="1344.0508421052632" y="366.3345263157895" type="curve" smooth="yes"/>
      <point x="1423.9568421052631" y="427.8964210526316"/>
      <point x="1472.9335789473685" y="498.1336842105263"/>
      <point x="1504.4937894736843" y="557.2718947368421" type="curve" smooth="yes"/>
      <point x="1544.844" y="633.7427368421053"/>
      <point x="1571.4587368421053" y="722.5371578947369"/>
      <point x="1571.4587368421053" y="834.8631578947368" type="curve" smooth="yes"/>
      <point x="1571.4587368421053" y="1208.6138947368422"/>
      <point x="1298.1033684210527" y="1461.9173684210527"/>
      <point x="907.1676842105263" y="1461.9173684210527" type="curve" smooth="yes"/>
      <point x="480.9850526315789" y="1461.9173684210527"/>
      <point x="136.42926315789472" y="1127.5313684210525"/>
      <point x="136.42926315789472" y="714.8789473684211" type="curve" smooth="yes"/>
      <point x="136.42926315789472" y="300.3548421052632"/>
      <point x="480.51336842105263" y="-33.85947368421053"/>
    </contour>
    <contour>
      <point x="749.1045263157895" y="344.04894736842107" type="curve" smooth="yes"/>
      <point x="660.9850526315789" y="344.04894736842107"/>
      <point x="624.0008421052631" y="432.1651578947368"/>
      <point x="624.0008421052631" y="545.2473684210527" type="curve" smooth="yes"/>
      <point x="624.0008421052631" y="773.2874736842106"/>
      <point x="765.1284210526316" y="1040.4405263157894"/>
      <point x="928.4518947368421" y="1040.4405263157894" type="curve" smooth="yes"/>
      <point x="1007.6508421052631" y="1040.4405263157894"/>
      <point x="1037.5503157894736" y="963.1290526315789"/>
      <point x="1037.5503157894736" y="856.4894736842106" type="curve" smooth="yes"/>
      <point x="1037.5503157894736" y="649.7998947368421"/>
      <point x="911.6046315789474" y="344.04894736842107"/>
    </contour>
  </outline>
</glyph>
<glyph name="A" format="2">
  <advance width="1435.8157894736842"/>
  <unicode hex="0041"/>
  <note>
A
</note>
  <anchor x="700.123052631579" y="-1.8926315789473662" name="bottom"/>
  <anchor x="1144.1058947368422" y="0.0" name="ogonek"/>
  <anchor x="716.9230526315789" y="1422.16" name="top"/>
  <outline>
    <contour>
      <point x="80.49894736842106" y="0.0" type="line"/>
      <point x="156.6384210526316" y="0.0" type="line"/>
      <point x="647.188" y="1156.3058947368422" type="line"/>
      <point x="613.7916842105263" y="1157.491052631579" type="line"/>
      <point x="1097.5226315789473" y="0.0" type="line"/>
      <point x="1355.4148421052632" y="0.0" type="line"/>
      <point x="716.5493684210526" y="1483.6877894736842" type="line"/>
    </contour>
    <contour>
      <point x="297.5357894736842" y="438.09736842105264" type="line"/>
      <point x="963.5492631578948" y="438.09736842105264" type="line"/>
      <point x="934.9101052631579" y="511.51631578947365" type="line"/>
      <point x="328.54136842105265" y="511.51631578947365" type="line"/>
    </contour>
  </outline>
</glyph>
<glyph name="B" format="2">
  <advance width="1274.6470526315788"/>
  <unicode hex="0042"/>
  <note>
B
</note>
  <anchor x="656.6544210526316" y="5.947368421052637" name="bottom"/>
  <anchor x="656.6544210526316" y="1430.0" name="top"/>
  <outline>
    <contour>
      <point x="163.79494736842105" y="0.0" type="line"/>
      <point x="581.907052631579" y="0.0" type="line" smooth="yes"/>
      <point x="955.1237894736843" y="0.0"/>
      <point x="1171.838105263158" y="101.65484210526316"/>
      <point x="1171.838105263158" y="412.47673684210525" type="curve" smooth="yes"/>
      <point x="1171.838105263158" y="653.7724210526316"/>
      <point x="1034.3572631578947" y="742.5613684210526"/>
      <point x="846.5033684210526" y="771.274" type="curve"/>
      <point x="844.1244210526315" y="746.3807368421053" type="line"/>
      <point x="1002.2416842105263" y="790.7156842105263"/>
      <point x="1108.579157894737" y="866.4616842105263"/>
      <point x="1108.579157894737" y="1048.9689473684211" type="curve" smooth="yes"/>
      <point x="1108.579157894737" y="1305.1571578947369"/>
      <point x="909.6321052631579" y="1432.6647368421052"/>
      <point x="584.1702105263158" y="1432.6647368421052" type="curve" smooth="yes"/>
      <point x="163.79494736842105" y="1432.6647368421052" type="line"/>
    </contour>
    <contour>
      <point x="397.68231578947365" y="12.724315789473684" type="line"/>
      <point x="397.68231578947365" y="763.6293684210526" type="line"/>
      <point x="302.1361052631579" y="722.9107368421053" type="line"/>
      <point x="630.2438947368421" y="722.9107368421053" type="line" smooth="yes"/>
      <point x="828.1413684210527" y="722.9107368421053"/>
      <point x="920.7854736842105" y="575.8687368421052"/>
      <point x="920.7854736842105" y="413.3083157894737" type="curve" smooth="yes"/>
      <point x="920.7854736842105" y="220.88694736842106"/>
      <point x="793.2526315789473" y="71.10315789473685"/>
      <point x="576.9281052631579" y="71.10315789473685" type="curve" smooth="yes"/>
      <point x="251.10336842105264" y="71.10315789473685" type="line"/>
    </contour>
    <contour>
      <point x="397.68231578947365" y="751.9406315789473" type="line"/>
      <point x="397.68231578947365" y="1416.570947368421" type="line"/>
      <point x="246.1981052631579" y="1361.5615789473684" type="line"/>
      <point x="581.907052631579" y="1361.5615789473684" type="line" smooth="yes"/>
      <point x="816.3856842105263" y="1361.5615789473684"/>
      <point x="860.2223157894737" y="1156.2654736842105"/>
      <point x="860.2223157894737" y="1030.8531578947368" type="curve" smooth="yes"/>
      <point x="860.2223157894737" y="882.2835789473684"/>
      <point x="801.0485263157894" y="793.6349473684211"/>
      <point x="584.1702105263158" y="793.6349473684211" type="curve" smooth="yes"/>
      <point x="311.67063157894734" y="793.6349473684211" type="line"/>
    </contour>
  </outline>
</glyph>
<glyph name="C" format="2">
  <advance width="1513.3652631578948"/>
  <unicode hex="0043"/>
  <note>
C
</note>
  <anchor x="762.6972631578948" y="-2.0326315789473632" name="bottom"/>
  <anchor x="808.495" y="1430.0" name="top"/>
  <outline>
    <contour>
      <point x="815.8972631578947" y="-28.57" type="curve" smooth="yes"/>
      <point x="1080.837052631579" y="-28.57"/>
      <point x="1305.2334736842106" y="110.394"/>
      <point x="1427.8703157894736" y="345.7289473684211" type="curve"/>
      <point x="1211.946105263158" y="345.7289473684211" type="line"/>
      <point x="1130.4836842105262" y="150.70884210526316"/>
      <point x="989.802105263158" y="40.66052631578948"/>
      <point x="811.3288421052631" y="40.66052631578948" type="curve" smooth="yes"/>
      <point x="529.5145263157895" y="40.66052631578948"/>
      <point x="340.762" y="309.8073684210526"/>
      <point x="340.762" y="714.3315789473684" type="curve" smooth="yes"/>
      <point x="340.762" y="1118.6214736842105"/>
      <point x="529.6558947368421" y="1391.3973684210525"/>
      <point x="811.3498947368421" y="1391.3973684210525" type="curve" smooth="yes"/>
      <point x="989.5001052631579" y="1391.3973684210525"/>
      <point x="1132.2731578947369" y="1280.8964210526315"/>
      <point x="1208.4533684210526" y="1088.028947368421" type="curve"/>
      <point x="1420.4597894736842" y="1088.028947368421" type="line"/>
      <point x="1322.8488421052632" y="1302.9853684210527"/>
      <point x="1067.023894736842" y="1460.3278947368422"/>
      <point x="809.8025263157895" y="1460.3278947368422" type="curve" smooth="yes"/>
      <point x="415.62252631578946" y="1460.3278947368422"/>
      <point x="103.32726315789473" y="1126.1648421052632"/>
      <point x="103.32726315789473" y="716.6526315789474" type="curve" smooth="yes"/>
      <point x="103.32726315789473" y="296.08947368421053"/>
      <point x="400.43726315789473" y="-28.57"/>
    </contour>
  </outline>
</glyph>
<glyph name="D" format="2">
  <advance width="1509.3273684210526"/>
  <unicode hex="0044"/>
  <note>
D
</note>
  <anchor x="775.5840000000001" y="-2.489473684210523" name="bottom"/>
  <anchor x="290.0261052631579" y="715.0" name="center"/>
  <anchor x="775.5840000000001" y="1430.0" name="top"/>
  <outline>
    <contour>
      <point x="163.89294736842106" y="0.07368421052631577" type="line"/>
      <point x="565.6313684210527" y="0.07368421052631577" type="line" smooth="yes"/>
      <point x="846.4954736842105" y="0.07368421052631577"/>
      <point x="1000.6882105263157" y="26.704842105263157"/>
      <point x="1145.1007368421053" y="131.11505263157895" type="curve" smooth="yes"/>
      <point x="1304.230947368421" y="246.50894736842105"/>
      <point x="1403.7961052631579" y="445.80115789473683"/>
      <point x="1403.7961052631579" y="714.3273684210526" type="curve" smooth="yes"/>
      <point x="1403.7961052631579" y="945.9567368421052"/>
      <point x="1328.4317894736841" y="1146.4462105263158"/>
      <point x="1180.5348421052631" y="1274.735894736842" type="curve" smooth="yes"/>
      <point x="1005.0753684210526" y="1426.552"/>
      <point x="816.6212631578948" y="1432.591052631579"/>
      <point x="503.25768421052635" y="1432.591052631579" type="curve" smooth="yes"/>
      <point x="163.89294736842106" y="1432.591052631579" type="line"/>
    </contour>
    <contour>
      <point x="406.00663157894735" y="10.254842105263158" type="line"/>
      <point x="406.00663157894735" y="1422.409894736842" type="line"/>
      <point x="257.8434736842105" y="1361.487894736842" type="line"/>
      <point x="518.6892631578947" y="1361.487894736842" type="line" smooth="yes"/>
      <point x="997.6005263157895" y="1361.487894736842"/>
      <point x="1149.4192631578946" y="1133.5485263157896"/>
      <point x="1149.4192631578946" y="721.1010526315789" type="curve" smooth="yes"/>
      <point x="1149.4192631578946" y="270.04463157894736"/>
      <point x="969.8874736842105" y="71.17684210526316"/>
      <point x="517.8576842105263" y="71.17684210526316" type="curve" smooth="yes"/>
      <point x="257.8434736842105" y="71.17684210526316" type="line"/>
    </contour>
  </outline>
</glyph>
<glyph name="E" format="2">
  <advance width="1156.5053684210527"/>
  <unicode hex="0045"/>
  <note>
E
</note>
  <anchor x="589.2878947368421" y="5.947368421052637" name="bottom"/>
  <anchor x="949.8773684210527" y="0.0" name="ogonek"/>
  <anchor x="606.85" y="1431.47" name="top"/>
  <anchor x="50.780315789473676" y="1431.47" name="topleft"/>
  <outline>
    <contour>
      <point x="163.89294736842106" y="0.0" type="line"/>
      <point x="1055.7803157894737" y="0.0" type="line"/>
      <point x="1055.7803157894737" y="71.10315789473685" type="line"/>
      <point x="279.6142105263158" y="71.10315789473685" type="line"/>
      <point x="397.78031578947366" y="18.35157894736842" type="line"/>
      <point x="397.78031578947366" y="748.746" type="line"/>
      <point x="273.21084210526317" y="693.0457894736842" type="line"/>
      <point x="1055.7803157894737" y="693.0457894736842" type="line"/>
      <point x="1055.7803157894737" y="764.1489473684211" type="line"/>
      <point x="279.6142105263158" y="764.1489473684211" type="line"/>
      <point x="397.78031578947366" y="711.3973684210526" type="line"/>
      <point x="397.78031578947366" y="1420.1667368421054" type="line"/>
      <point x="250.06978947368424" y="1361.5615789473684" type="line"/>
      <point x="1055.7803157894737" y="1361.5615789473684" type="line"/>
      <point x="1055.7803157894737" y="1432.6647368421052" type="line"/>
      <point x="163.89294736842106" y="1432.6647368421052" type="line"/>
    </contour>
  </outline>
</glyph>
<glyph name="F" format="2">
  <advance width="1090.121894736842"/>
  <unicode hex="0046"/>
  <note>
F
</note>
  <anchor x="560.810947368421" y="5.947368421052637" name="bottom"/>
  <anchor x="560.810947368421" y="1430.0" name="top"/>
  <outline>
    <contour>
      <point x="163.89294736842106" y="0.0" type="line"/>
      <point x="397.78031578947366" y="0.0" type="line"/>
      <point x="397.78031578947366" y="750.3667368421053" type="line"/>
      <point x="251.88031578947368" y="691.3089473684211" type="line"/>
      <point x="1000.6118947368421" y="691.3089473684211" type="line"/>
      <point x="1000.6118947368421" y="760.6384210526315" type="line"/>
      <point x="248.7118947368421" y="760.6384210526315" type="line"/>
      <point x="397.78031578947366" y="700.2314736842105" type="line"/>
      <point x="397.78031578947366" y="1416.7972631578948" type="line"/>
      <point x="250.06978947368424" y="1361.5615789473684" type="line"/>
      <point x="1000.6118947368421" y="1361.5615789473684" type="line"/>
      <point x="1000.6118947368421" y="1432.6647368421052" type="line"/>
      <point x="163.89294736842106" y="1432.6647368421052" type="line"/>
    </contour>
  </outline>
</glyph>
<glyph name="G" format="2">
  <advance width="1602.5812631578947"/>
  <unicode hex="0047"/>
  <note>
G
</note>
  <anchor x="803.4373684210526" y="5.947368421052637" name="bottom"/>
  <anchor x="809.0373684210526" y="1430.0" name="top"/>
  <outline>
    <contour>
      <point x="813.6531578947369" y="-28.57" type="curve" smooth="yes"/>
      <point x="1196.826" y="-28.57"/>
      <point x="1482.2986315789474" y="254.62326315789474"/>
      <point x="1516.658" y="639.791052631579" type="curve"/>
      <point x="1277.2074736842105" y="639.791052631579" type="line"/>
      <point x="1256.9415789473685" y="277.164"/>
      <point x="1075.162210526316" y="38.79631578947368"/>
      <point x="811.1057894736842" y="37.66473684210527" type="curve"/>
      <point x="530.5401052631579" y="39.02263157894737"/>
      <point x="342.8021052631579" y="308.94094736842106"/>
      <point x="342.8021052631579" y="713.3315789473684" type="curve" smooth="yes"/>
      <point x="342.8021052631579" y="1118.2182105263157"/>
      <point x="531.2624210526316" y="1393.4142105263159"/>
      <point x="811.8794736842106" y="1394.0931578947368" type="curve"/>
      <point x="990.1276842105264" y="1393.6405263157894"/>
      <point x="1130.9185263157894" y="1283.4395789473683"/>
      <point x="1209.361894736842" y="1091.3247368421053" type="curve"/>
      <point x="1425.230947368421" y="1091.3247368421053" type="line"/>
      <point x="1313.8287368421052" y="1309.992947368421"/>
      <point x="1062.3786315789473" y="1460.3278947368422"/>
      <point x="811.1057894736842" y="1460.3278947368422" type="curve" smooth="yes"/>
      <point x="414.60136842105265" y="1460.3278947368422"/>
      <point x="103.49894736842106" y="1124.9048421052632"/>
      <point x="103.49894736842106" y="716.7263157894737" type="curve" smooth="yes"/>
      <point x="103.49894736842106" y="293.218947368421"/>
      <point x="397.6302105263158" y="-28.57"/>
    </contour>
    <contour>
      <point x="877.9673684210527" y="568.4615789473684" type="line"/>
      <point x="1369.1126315789475" y="568.4615789473684" type="line"/>
      <point x="1369.1126315789475" y="639.5647368421053" type="line"/>
      <point x="877.9673684210527" y="639.5647368421053" type="line"/>
    </contour>
  </outline>
</glyph>
<glyph name="H" format="2">
  <advance width="1543.6658947368421"/>
  <unicode hex="0048"/>
  <note>
H
</note>
  <anchor x="771.9461052631578" y="5.947368421052637" name="bottom"/>
  <anchor x="771.9461052631578" y="715.0" name="center"/>
  <anchor x="771.9461052631578" y="1430.0" name="top"/>
  <anchor x="50.388315789473694" y="1430.0" name="topleft"/>
  <outline>
    <contour>
      <point x="163.89294736842106" y="0.0" type="line"/>
      <point x="395.5371578947369" y="0.0" type="line"/>
      <point x="395.5371578947369" y="762.312" type="line"/>
      <point x="246.5318947368421" y="698.0257894736842" type="line"/>
      <point x="1294.9445263157895" y="698.0257894736842" type="line"/>
      <point x="1148.1287368421054" y="762.312" type="line"/>
      <point x="1148.1287368421054" y="0.0" type="line"/>
      <point x="1379.772947368421" y="0.0" type="line"/>
      <point x="1379.772947368421" y="1432.6647368421052" type="line"/>
      <point x="1148.1287368421054" y="1432.6647368421052" type="line"/>
      <point x="1148.1287368421054" y="705.2901052631579" type="line"/>
      <point x="1294.9445263157895" y="769.5763157894737" type="line"/>
      <point x="246.5318947368421" y="769.5763157894737" type="line"/>
      <point x="395.5371578947369" y="705.2901052631579" type="line"/>
      <point x="395.5371578947369" y="1432.6647368421052" type="line"/>
      <point x="163.89294736842106" y="1432.6647368421052" type="line"/>
    </contour>
  </outline>
</glyph>
<glyph name="I" format="2">
  <advance width="561.446947368421"/>
  <unicode hex="0049"/>
  <note>
I
</note>
  <anchor x="280.8734736842105" y="5.947368421052637" name="bottom"/>
  <anchor x="296.61578947368423" y="0.0" name="ogonek"/>
  <anchor x="280.8734736842105" y="1430.0" name="top"/>
  <anchor x="19.466631578947368" y="1430.0" name="topleft"/>
  <outline>
    <contour>
      <point x="163.89294736842106" y="0.0" type="line"/>
      <point x="397.78031578947366" y="0.0" type="line"/>
      <point x="397.78031578947366" y="1432.6647368421052" type="line"/>
      <point x="163.89294736842106" y="1432.6647368421052" type="line"/>
    </contour>
  </outline>
</glyph>
<glyph name="J" format="2">
  <advance width="898.2053684210526"/>
  <unicode hex="004A"/>
  <note>
J
</note>
  <anchor x="474.3141052631579" y="5.947368421052634" name="bottom"/>
  <anchor x="474.3141052631579" y="1430.0" name="top"/>
  <outline>
    <contour>
      <point x="85.52831578947368" y="-25.685894736842116" type="line"/>
      <point x="147.92789473684212" y="-104.31768421052631"/>
      <point x="284.53410526315787" y="-153.23842105263157"/>
      <point x="396.0298947368421" y="-153.23842105263157" type="curve" smooth="yes"/>
      <point x="613.6992631578947" y="-153.23842105263157"/>
      <point x="741.8314736842106" y="35.49315789473684"/>
      <point x="741.8314736842106" y="356.8315789473684" type="curve" smooth="yes"/>
      <point x="741.8314736842106" y="1432.6647368421052" type="line"/>
      <point x="508.0177894736842" y="1432.6647368421052" type="line"/>
      <point x="508.0177894736842" y="329.7947368421053" type="line" smooth="yes"/>
      <point x="508.0177894736842" y="-10.488315789473681"/>
      <point x="492.79610526315787" y="-66.17210526315789"/>
      <point x="397.83936842105265" y="-66.17210526315789" type="curve" smooth="yes"/>
      <point x="279.5517894736842" y="-66.17210526315789"/>
      <point x="168.99147368421052" y="16.15294736842106"/>
      <point x="85.52831578947368" y="145.1121052631579" type="curve"/>
    </contour>
  </outline>
</glyph>
<glyph name="K" format="2">
  <advance width="1448.7313684210526"/>
  <unicode hex="004B"/>
  <note>
K
</note>
  <anchor x="699.9125263157895" y="5.947368421052637" name="bottom"/>
  <anchor x="699.9125263157895" y="1430.0" name="top"/>
  <outline>
    <contour>
      <point x="163.89294736842106" y="0.0" type="line"/>
      <point x="397.78031578947366" y="0.0" type="line"/>
      <point x="397.78031578947366" y="1432.6647368421052" type="line"/>
      <point x="163.89294736842106" y="1432.6647368421052" type="line"/>
    </contour>
    <contour>
      <point x="349.3237894736842" y="475.68547368421054" type="line"/>
      <point x="1193.0166315789475" y="1432.6647368421052" type="line"/>
      <point x="1082.8416842105264" y="1432.6647368421052" type="line"/>
      <point x="303.41031578947366" y="545.4168421052632" type="line"/>
    </contour>
    <contour>
      <point x="1080.4687368421053" y="0.0" type="line"/>
      <point x="1372.6587368421053" y="0.0" type="line"/>
      <point x="655.5313684210527" y="872.4725263157895" type="line"/>
      <point x="499.92431578947367" y="707.5125263157895" type="line"/>
    </contour>
  </outline>
</glyph>
<glyph name="L" format="2">
  <advance width="1095.7014736842104"/>
  <unicode hex="004C"/>
  <note>
L
</note>
  <anchor x="573.793894736842" y="5.947368421052637" name="bottom"/>
  <anchor x="284.24336842105265" y="715.602" name="center"/>
  <anchor x="772.5707368421052" y="753.7010526315789" name="dot"/>
  <anchor x="998.5555789473684" y="10.0" name="ogonek"/>
  <anchor x="391.0781052631579" y="1430.0" name="top"/>
  <anchor x="-6.656421052631579" y="1430.0" name="topleft"/>
  <anchor x="833.4371578947369" y="1430.0" name="topright"/>
  <outline>
    <contour>
      <point x="163.89294736842106" y="0.0" type="line"/>
      <point x="1017.6308421052631" y="0.0" type="line"/>
      <point x="1017.6308421052631" y="65.74894736842106" type="line"/>
      <point x="251.19084210526316" y="65.74894736842106" type="line"/>
      <point x="398.9066315789473" y="15.946421052631578" type="line"/>
      <point x="398.9066315789473" y="1431.9857894736842" type="line"/>
      <point x="163.89294736842106" y="1431.9857894736842" type="line"/>
    </contour>
  </outline>
</glyph>
<glyph name="M" format="2">
  <advance width="1718.9292631578946"/>
  <unicode hex="004D"/>
  <note>
M
</note>
  <anchor x="859.5014736842105" y="5.947368421052637" name="bottom"/>
  <anchor x="859.5014736842105" y="1430.0" name="top"/>
  <outline>
    <contour>
      <point x="163.89294736842106" y="0.0" type="line"/>
      <point x="255.73378947368423" y="0.0" type="line"/>
      <point x="255.73378947368423" y="1327.720947368421" type="line"/>
      <point x="201.63494736842105" y="1297.3874736842106" type="line"/>
      <point x="789.9684210526316" y="44.53505263157894" type="line"/>
      <point x="1381.2552631578947" y="1345.0787368421052" type="line"/>
      <point x="1324.0710526315788" y="1313.4782105263157" type="line"/>
      <point x="1324.0710526315788" y="0.0" type="line"/>
      <point x="1555.0363157894737" y="0.0" type="line"/>
      <point x="1555.0363157894737" y="1432.6647368421052" type="line"/>
      <point x="1321.6282105263158" y="1432.6647368421052" type="line"/>
      <point x="812.8657894736842" y="324.5335789473684" type="line"/>
      <point x="897.6955789473684" y="336.52273684210525" type="line"/>
      <point x="382.52315789473687" y="1432.6647368421052" type="line"/>
      <point x="163.89294736842106" y="1432.6647368421052" type="line"/>
    </contour>
  </outline>
</glyph>
<glyph name="N" format="2">
  <advance width="1468.9448421052632"/>
  <unicode hex="004E"/>
  <note>
N
</note>
  <anchor x="734.6224210526316" y="5.947368421052637" name="bottom"/>
  <anchor x="734.6224210526316" y="1430.0" name="top"/>
  <outline>
    <contour>
      <point x="166.96242105263158" y="0.0" type="line"/>
      <point x="255.6782105263158" y="0.0" type="line"/>
      <point x="255.6782105263158" y="1226.2057894736843" type="line"/>
      <point x="198.37747368421054" y="1175.866947368421" type="line"/>
      <point x="1179.1623157894737" y="0.0" type="line"/>
      <point x="1305.051894736842" y="0.0" type="line"/>
      <point x="1305.051894736842" y="1432.6647368421052" type="line"/>
      <point x="1215.8887368421053" y="1432.6647368421052" type="line"/>
      <point x="1215.8887368421053" y="183.69263157894736" type="line"/>
      <point x="1269.3" y="256.41378947368423" type="line"/>
      <point x="293.1193684210526" y="1432.6647368421052" type="line"/>
      <point x="163.89294736842106" y="1432.6647368421052" type="line"/>
    </contour>
  </outline>
</glyph>
<glyph name="O" format="2">
  <advance width="1621.237894736842"/>
  <unicode hex="004F"/>
  <note>
O
</note>
  <anchor x="810.7321052631579" y="-2.489473684210523" name="bottom"/>
  <anchor x="810.7321052631579" y="715.0" name="center"/>
  <anchor x="953.9418947368421" y="0.0" name="ogonek"/>
  <anchor x="810.7321052631579" y="1430.0" name="top"/>
  <anchor x="45.19168421052631" y="1430.0" name="topleft"/>
  <anchor x="1417.3894736842105" y="1430.0" name="topright"/>
  <outline>
    <contour>
      <point x="811.4321052631578" y="-28.57" type="curve" smooth="yes"/>
      <point x="1219.4555789473684" y="-28.57"/>
      <point x="1517.8126315789473" y="291.1390526315789"/>
      <point x="1517.8126315789473" y="711.7736842105263" type="curve" smooth="yes"/>
      <point x="1517.8126315789473" y="1127.730947368421"/>
      <point x="1214.7623157894736" y="1460.4015789473683"/>
      <point x="811.5057894736842" y="1460.4015789473683" type="curve" smooth="yes"/>
      <point x="411.82389473684213" y="1460.4015789473683"/>
      <point x="103.49894736842106" y="1129.5206315789474"/>
      <point x="103.49894736842106" y="711.7" type="curve" smooth="yes"/>
      <point x="103.49894736842106" y="294.84905263157896"/>
      <point x="402.33294736842106" y="-28.57"/>
    </contour>
    <contour>
      <point x="811.4321052631578" y="38.038421052631584" type="curve"/>
      <point x="530.9077894736843" y="39.39631578947368"/>
      <point x="342.8757894736842" y="309.8193684210526"/>
      <point x="342.8757894736842" y="712.0" type="curve" smooth="yes"/>
      <point x="342.8757894736842" y="1118.1472631578947"/>
      <point x="531.1887368421053" y="1393.1142105263157"/>
      <point x="811.5057894736842" y="1394.0194736842104" type="curve"/>
      <point x="1090.3734736842105" y="1393.1142105263157"/>
      <point x="1278.6621052631579" y="1118.0735789473683"/>
      <point x="1278.6621052631579" y="711.9263157894737" type="curve" smooth="yes"/>
      <point x="1278.6621052631579" y="309.6173684210526"/>
      <point x="1091.224105263158" y="39.39631578947368"/>
    </contour>
  </outline>
</glyph>
<glyph name="P" format="2">
  <advance width="1162.668947368421"/>
  <unicode hex="0050"/>
  <note>
P
</note>
  <anchor x="576.4545263157895" y="-12.15789473684211" name="bottom"/>
  <anchor x="576.4545263157895" y="1430.0" name="top"/>
  <outline>
    <contour>
      <point x="163.79494736842105" y="0.0" type="line"/>
      <point x="394.76021052631575" y="0.0" type="line"/>
      <point x="394.76021052631575" y="638.1912631578947" type="line"/>
      <point x="284.52884210526315" y="598.8188421052631" type="line"/>
      <point x="556.5892631578947" y="598.8188421052631" type="line" smooth="yes"/>
      <point x="742.811052631579" y="598.8188421052631"/>
      <point x="832.7142105263158" y="619.3851578947368"/>
      <point x="914.4871578947368" y="681.1182105263158" type="curve" smooth="yes"/>
      <point x="1010.9243157894737" y="754.1988421052631"/>
      <point x="1068.8456842105263" y="881.2487368421052"/>
      <point x="1068.8456842105263" y="1016.3687368421052" type="curve" smooth="yes"/>
      <point x="1068.8456842105263" y="1148.4807368421052"/>
      <point x="1017.0211578947369" y="1264.716"/>
      <point x="929.5216842105264" y="1335.5493684210526" type="curve" smooth="yes"/>
      <point x="846.8335789473684" y="1402.8603157894736"/>
      <point x="743.2365263157894" y="1432.6647368421052"/>
      <point x="543.1727368421052" y="1432.6647368421052" type="curve" smooth="yes"/>
      <point x="163.79494736842105" y="1432.6647368421052" type="line"/>
    </contour>
    <contour>
      <point x="394.76021052631575" y="622.2246315789473" type="line"/>
      <point x="394.76021052631575" y="1418.1273684210526" type="line"/>
      <point x="245.91810526315788" y="1364.3984210526316" type="line"/>
      <point x="509.1398947368421" y="1364.3984210526316" type="line" smooth="yes"/>
      <point x="764.7153684210526" y="1364.3984210526316"/>
      <point x="829.7077894736842" y="1192.682947368421"/>
      <point x="829.7077894736842" y="1004.3518947368422" type="curve" smooth="yes"/>
      <point x="829.7077894736842" y="839.8743157894737"/>
      <point x="769.7866315789473" y="670.2526315789473"/>
      <point x="509.1398947368421" y="670.2526315789473" type="curve" smooth="yes"/>
      <point x="306.559052631579" y="670.2526315789473" type="line"/>
    </contour>
  </outline>
</glyph>
<glyph name="Q" format="2">
  <advance width="1621.237894736842"/>
  <unicode hex="0051"/>
  <note>
Q
</note>
  <anchor x="777.6008421052632" y="19.794736842105266" name="bottom"/>
  <anchor x="777.6008421052632" y="1414.2105263157894" name="top"/>
  <anchor x="810.7321052631579" y="729.0403818421053" name="center"/>
  <anchor x="953.9418947368421" y="13.394736842105264" name="ogonek"/>
  <anchor x="45.19168421052631" y="1444.6860268421053" name="topleft"/>
  <anchor x="1417.3894736842105" y="1444.6860268421053" name="topright"/>
  <outline>
    <contour>
      <point x="1052.8705263157894" y="-401.9542105263158" type="curve" smooth="yes"/>
      <point x="1158.7146315789473" y="-401.9542105263158"/>
      <point x="1194.8445263157894" y="-387.7376842105263"/>
      <point x="1192.3813684210527" y="-311.04052631578946" type="curve"/>
      <point x="1154.5812631578947" y="-311.04052631578946"/>
      <point x="1116.0074736842105" y="-311.04052631578946"/>
      <point x="1078.1336842105263" y="-311.04052631578946" type="curve" smooth="yes"/>
      <point x="945.8258947368421" y="-311.04052631578946"/>
      <point x="877.3036842105263" y="-248.98252631578947"/>
      <point x="877.3036842105263" y="-175.53684210526316" type="curve" smooth="yes"/>
      <point x="877.3036842105263" y="25.05947368421054" type="line"/>
      <point x="655.7163157894737" y="25.05947368421054" type="line"/>
      <point x="655.7163157894737" y="-164.2578947368421" type="line" smooth="yes"/>
      <point x="655.7163157894737" y="-272.24105263157895"/>
      <point x="725.2262105263158" y="-333.23336842105266"/>
      <point x="809.7987368421053" y="-364.40357894736843" type="curve" smooth="yes"/>
      <point x="882.7033684210526" y="-391.4855789473684"/>
      <point x="963.7271578947368" y="-401.9542105263158"/>
    </contour>
    <component base="O" yScale="1.0009029999999999" yOffset="13.394736842105264"/>
  </outline>
</glyph>
<glyph name="R" format="2">
  <advance width="1254.8226315789475"/>
  <unicode hex="0052"/>
  <note>
R
</note>
  <anchor x="624.4366315789474" y="5.947368421052637" name="bottom"/>
  <anchor x="624.4366315789474" y="1430.0" name="top"/>
  <outline>
    <contour>
      <point x="163.89294736842106" y="0.0" type="line"/>
      <point x="395.8382105263158" y="0.0" type="line"/>
      <point x="395.8382105263158" y="724.9921052631579" type="line"/>
      <point x="286.74052631578945" y="683.9931578947369" type="line"/>
      <point x="537.4576842105263" y="683.9931578947369" type="line"/>
      <point x="719.3333684210527" y="697.3351578947368" type="line"/>
      <point x="934.4003157894737" y="700.634"/>
      <point x="1094.2276842105264" y="821.6937894736842"/>
      <point x="1094.2276842105264" y="1054.4789473684211" type="curve" smooth="yes"/>
      <point x="1094.2276842105264" y="1311.2869473684211"/>
      <point x="901.244105263158" y="1432.6647368421052"/>
      <point x="568.7787368421052" y="1432.6647368421052" type="curve" smooth="yes"/>
      <point x="163.89294736842106" y="1432.6647368421052" type="line"/>
    </contour>
    <contour>
      <point x="301.45105263157893" y="752.4805263157895" type="line"/>
      <point x="395.8382105263158" y="708.6447368421052" type="line"/>
      <point x="395.8382105263158" y="1409.6552631578948" type="line"/>
      <point x="260.00894736842105" y="1364.3984210526316" type="line"/>
      <point x="563.6418947368421" y="1364.3984210526316" type="line" smooth="yes"/>
      <point x="797.5313684210527" y="1364.3984210526316"/>
      <point x="853.1297894736842" y="1226.1474736842106"/>
      <point x="853.1297894736842" y="1058.621052631579" type="curve" smooth="yes"/>
      <point x="853.1297894736842" y="876.6183157894736"/>
      <point x="793.5026315789473" y="752.4805263157895"/>
      <point x="563.6418947368421" y="752.4805263157895" type="curve" smooth="yes"/>
    </contour>
    <contour>
      <point x="506.74715789473686" y="683.9931578947369" type="line"/>
      <point x="622.7771578947368" y="683.9931578947369"/>
      <point x="695.8764210526316" y="673.5097894736842"/>
      <point x="755.0651578947369" y="582.2751578947368" type="curve" smooth="yes"/>
      <point x="786.0864210526315" y="535.5937894736842"/>
      <point x="804.0054736842105" y="502.09126315789473"/>
      <point x="868.6731578947368" y="214.05536842105263" type="curve" smooth="yes"/>
      <point x="887.9297894736842" y="127.0458947368421"/>
      <point x="901.7317894736842" y="65.51189473684211"/>
      <point x="917.2461052631579" y="0.0" type="curve"/>
      <point x="1158.4216842105263" y="0.0" type="line"/>
      <point x="1137.273052631579" y="76.46694736842106"/>
      <point x="1113.773052631579" y="175.15557894736844"/>
      <point x="1092.7001052631579" y="270.9393684210526" type="curve" smooth="yes"/>
      <point x="1030.2324210526317" y="554.4928421052632"/>
      <point x="1004.3387368421053" y="603.9628421052631"/>
      <point x="958.4321052631578" y="651.0431578947369" type="curve" smooth="yes"/>
      <point x="913.4278947368421" y="696.3736842105263"/>
      <point x="855.6392631578948" y="712.7647368421053"/>
      <point x="777.3276842105263" y="719.382" type="curve"/>
    </contour>
  </outline>
</glyph>
<glyph name="S" format="2">
  <advance width="1213.012105263158"/>
  <unicode hex="0053"/>
  <note>
S
</note>
  <anchor x="607.3070526315789" y="5.947368421052637" name="bottom"/>
  <anchor x="591.655052631579" y="1430.0" name="top"/>
  <outline>
    <contour>
      <point x="609.503052631579" y="-29.933157894736844" type="curve" smooth="yes"/>
      <point x="952.9073684210526" y="-29.933157894736844"/>
      <point x="1114.2151578947369" y="136.2443157894737"/>
      <point x="1114.2151578947369" y="418.06315789473683" type="curve" smooth="yes"/>
      <point x="1114.2151578947369" y="681.9145263157894"/>
      <point x="933.3033684210527" y="782.8526315789474"/>
      <point x="640.2038947368421" y="867.7193684210526" type="curve" smooth="yes"/>
      <point x="452.4294736842105" y="922.6861052631579"/>
      <point x="336.37305263157896" y="979.336105263158"/>
      <point x="336.37305263157896" y="1130.6842105263158" type="curve" smooth="yes"/>
      <point x="336.37305263157896" y="1282.835052631579"/>
      <point x="442.75694736842104" y="1396.3984210526316"/>
      <point x="571.9356842105263" y="1396.3984210526316" type="curve" smooth="yes"/>
      <point x="732.8505263157895" y="1396.3984210526316"/>
      <point x="856.8854736842105" y="1244.501157894737"/>
      <point x="863.3310526315789" y="1107.0878947368421" type="curve"/>
      <point x="1056.0953684210526" y="1107.0878947368421" type="line"/>
      <point x="1021.7956842105264" y="1345.9607368421052"/>
      <point x="820.2613684210527" y="1465.6173684210526"/>
      <point x="588.0304210526316" y="1465.6173684210526" type="curve" smooth="yes"/>
      <point x="264.8974736842105" y="1465.6173684210526"/>
      <point x="139.20147368421053" y="1259.5537894736842"/>
      <point x="139.20147368421053" y="1057.721052631579" type="curve" smooth="yes"/>
      <point x="139.20147368421053" y="862.1953684210526"/>
      <point x="292.7358947368421" y="761.0233684210526"/>
      <point x="567.4786315789473" y="671.2701052631579" type="curve" smooth="yes"/>
      <point x="773.3507368421052" y="603.2098947368421"/>
      <point x="929.233052631579" y="557.9697894736842"/>
      <point x="929.233052631579" y="362.5684210526316" type="curve" smooth="yes"/>
      <point x="929.233052631579" y="186.34663157894738"/>
      <point x="806.5516842105263" y="44.90684210526316"/>
      <point x="622.3714736842105" y="44.90684210526316" type="curve" smooth="yes"/>
      <point x="424.7422105263158" y="44.90684210526316"/>
      <point x="314.56126315789476" y="215.90115789473685"/>
      <point x="296.24547368421054" y="417.20684210526315" type="curve"/>
      <point x="97.79294736842105" y="417.20684210526315" type="line"/>
      <point x="123.50642105263158" y="86.91463157894736"/>
      <point x="342.53526315789475" y="-29.933157894736844"/>
    </contour>
  </outline>
</glyph>
<glyph name="T" format="2">
  <advance width="1289.0995789473684"/>
  <unicode hex="0054"/>
  <note>
T
</note>
  <anchor x="645.3017894736843" y="5.947368421052637" name="bottom"/>
  <anchor x="645.3017894736843" y="715.602" name="center"/>
  <anchor x="645.3017894736843" y="1430.0" name="top"/>
  <outline>
    <contour>
      <point x="528.8929473684211" y="0.0" type="line"/>
      <point x="763.0066315789473" y="0.0" type="line"/>
      <point x="763.0066315789473" y="1413.6488421052632" type="line"/>
      <point x="603.6013684210526" y="1344.4615789473685" type="line"/>
      <point x="1210.311894736842" y="1344.4615789473685" type="line"/>
      <point x="1210.311894736842" y="1432.6647368421052" type="line"/>
      <point x="78.78768421052632" y="1432.6647368421052" type="line"/>
      <point x="78.78768421052632" y="1344.4615789473685" type="line"/>
      <point x="688.2982105263159" y="1344.4615789473685" type="line"/>
      <point x="528.8929473684211" y="1413.6488421052632" type="line"/>
    </contour>
  </outline>
</glyph>
<glyph name="U" format="2">
  <advance width="1494.5048421052632"/>
  <unicode hex="0055"/>
  <note>
U
</note>
  <anchor x="746.1155789473685" y="15.047368421052639" name="bottom"/>
  <anchor x="879.3957894736842" y="0.0" name="ogonek"/>
  <anchor x="746.1155789473685" y="1439.1" name="top"/>
  <anchor x="1416.1823157894737" y="1439.1" name="topright"/>
  <outline>
    <contour>
      <point x="747.2155789473684" y="-30.006842105263157" type="curve" smooth="yes"/>
      <point x="1076.6047368421052" y="-30.006842105263157"/>
      <point x="1354.4382105263157" y="230.56336842105264"/>
      <point x="1354.4382105263157" y="549.442" type="curve" smooth="yes"/>
      <point x="1354.4382105263157" y="1432.6647368421052" type="line"/>
      <point x="1254.3403157894736" y="1432.6647368421052" type="line"/>
      <point x="1252.7718947368421" y="539.2178947368421" type="line" smooth="yes"/>
      <point x="1252.3982105263158" y="236.97494736842106"/>
      <point x="997.8693684210526" y="41.39631578947369"/>
      <point x="748.762947368421" y="41.39631578947369" type="curve" smooth="yes"/>
      <point x="541.4462105263158" y="41.39631578947369"/>
      <point x="367.6066315789474" y="177.58136842105262"/>
      <point x="367.6066315789474" y="548.0578947368421" type="curve" smooth="yes"/>
      <point x="367.6066315789474" y="1432.6647368421052" type="line"/>
      <point x="140.06663157894738" y="1432.6647368421052" type="line"/>
      <point x="140.06663157894738" y="555.9052631578948" type="line" smooth="yes"/>
      <point x="140.06663157894738" y="231.7581052631579"/>
      <point x="416.77905263157896" y="-30.006842105263157"/>
    </contour>
  </outline>
</glyph>
<glyph name="V" format="2">
  <advance width="1412.4267368421054"/>
  <unicode hex="0056"/>
  <note>
V
</note>
  <anchor x="706.9653684210526" y="5.947368421052637" name="bottom"/>
  <anchor x="706.9653684210526" y="1430.0" name="top"/>
  <outline>
    <contour>
      <point x="706.8370526315789" y="-46.78989473684211" type="line"/>
      <point x="1331.529789473684" y="1432.6647368421052" type="line"/>
      <point x="1240.1061052631578" y="1432.6647368421052" type="line"/>
      <point x="730.6074736842105" y="217.5921052631579" type="line"/>
      <point x="815.3466315789474" y="279.79084210526315" type="line"/>
      <point x="336.6206315789474" y="1432.6647368421052" type="line"/>
      <point x="80.89694736842105" y="1432.6647368421052" type="line"/>
    </contour>
  </outline>
</glyph>
<glyph name="W" format="2">
  <advance width="1979.819157894737"/>
  <unicode hex="0057"/>
  <note>
W
</note>
  <anchor x="996.7287368421053" y="2.2631578947368496" name="bottom"/>
  <anchor x="996.7287368421053" y="1430.5157894736842" name="top"/>
  <outline>
    <contour>
      <point x="1339.3207368421054" y="-43.69610526315789" type="line"/>
      <point x="1897.6202105263158" y="1432.6647368421052" type="line"/>
      <point x="1823.7787368421052" y="1432.6647368421052" type="line"/>
      <point x="1374.8823157894738" y="223.13631578947368" type="line"/>
      <point x="1440.7363157894738" y="299.1791578947368" type="line"/>
      <point x="976.4712631578948" y="1432.6647368421052" type="line"/>
      <point x="720.3069473684211" y="1432.6647368421052" type="line"/>
    </contour>
    <contour>
      <point x="698.226" y="-43.69610526315789" type="line"/>
      <point x="1046.2397894736841" y="877.118947368421" type="line"/>
      <point x="1015.16" y="979.733052631579" type="line"/>
      <point x="733.7086315789473" y="222.67842105263156" type="line"/>
      <point x="801.2836842105263" y="296.86336842105266" type="line"/>
      <point x="336.44894736842105" y="1432.6647368421052" type="line"/>
      <point x="80.89694736842105" y="1432.6647368421052" type="line"/>
    </contour>
    <contour>
      <point x="1078.7102105263157" y="867.1136842105263" type="line"/>
      <point x="1290.1412631578946" y="1432.6647368421052" type="line"/>
      <point x="1215.8037894736842" y="1432.6647368421052" type="line"/>
      <point x="1047.5567368421052" y="969.8751578947368" type="line"/>
    </contour>
  </outline>
</glyph>
<glyph name="X" format="2">
  <advance width="1366.5113684210526"/>
  <unicode hex="0058"/>
  <note>
X
</note>
  <anchor x="682.7346315789474" y="5.947368421052637" name="bottom"/>
  <anchor x="682.7346315789474" y="1430.0" name="top"/>
  <outline>
    <contour>
      <point x="1002.5787368421053" y="0.0" type="line"/>
      <point x="1288.5861052631578" y="0.0" type="line"/>
      <point x="375.9115789473684" y="1430.7963157894737" type="line"/>
      <point x="89.75157894736842" y="1430.7963157894737" type="line"/>
    </contour>
    <contour>
      <point x="102.28315789473685" y="0.0" type="line"/>
      <point x="202.55894736842106" y="0.0" type="line"/>
      <point x="690.0502105263158" y="746.8618947368421" type="line"/>
      <point x="629.4132631578948" y="809.3868421052632" type="line"/>
    </contour>
    <contour>
      <point x="687.6011578947368" y="721.6763157894737" type="line"/>
      <point x="1154.226" y="1439.6647368421052" type="line"/>
      <point x="1054.2502105263159" y="1439.6647368421052" type="line"/>
      <point x="626.4925263157895" y="784.2012631578948" type="line"/>
    </contour>
  </outline>
</glyph>
<glyph name="Y" format="2">
  <advance width="1194.5692631578947"/>
  <unicode hex="0059"/>
  <note>
Y
</note>
  <anchor x="601.6083157894736" y="5.947368421052632" name="bottom"/>
  <anchor x="546.5666315789474" y="1430.0" name="top"/>
  <anchor x="-51.12568421052631" y="1430.0" name="topleft"/>
  <outline>
    <contour>
      <point x="486.01200000000006" y="0.0" type="line"/>
      <point x="719.8256842105263" y="0.0" type="line"/>
      <point x="719.8256842105263" y="609.2807368421053" type="line"/>
      <point x="1114.4703157894737" y="1432.6647368421052" type="line"/>
      <point x="1019.5498947368421" y="1432.6647368421052" type="line"/>
      <point x="612.7667368421053" y="576.9271578947369" type="line"/>
      <point x="722.4146315789474" y="676.7762105263158" type="line"/>
      <point x="351.6246315789474" y="1432.6647368421052" type="line"/>
      <point x="79.79894736842105" y="1432.6647368421052" type="line"/>
      <point x="486.01200000000006" y="606.5228421052632" type="line"/>
    </contour>
  </outline>
</glyph>
<glyph name="Z" format="2">
  <advance width="1299.3166315789474"/>
  <unicode hex="005A"/>
  <note>
Z
</note>
  <anchor x="645.0943157894737" y="5.947368421052637" name="bottom"/>
  <anchor x="645.0943157894737" y="715.0" name="center"/>
  <anchor x="645.0943157894737" y="1430.0" name="top"/>
  <outline>
    <contour>
      <point x="78.39894736842106" y="0.0" type="line"/>
      <point x="1204.8256842105263" y="0.0" type="line"/>
      <point x="1204.5993684210525" y="83.05052631578948" type="line"/>
      <point x="204.66736842105263" y="83.05052631578948" type="line"/>
      <point x="319.57947368421054" y="20.149578947368422" type="line"/>
      <point x="1195.9703157894737" y="1432.6647368421052" type="line"/>
      <point x="177.94884210526317" y="1432.6647368421052" type="line"/>
      <point x="177.94884210526317" y="1349.6142105263157" type="line"/>
      <point x="1067.5886315789473" y="1349.6142105263157" type="line"/>
      <point x="962.4867368421053" y="1416.0504210526317" type="line"/>
    </contour>
  </outline>
</glyph>
<glyph name="bracketleft" format="2">
  <advance width="607.8955789473684"/>
  <unicode hex="005B"/>
  <note>
bracketleft
</note>
  <outline>
    <contour>
      <point x="159.29094736842106" y="-398.44894736842105" type="line"/>
      <point x="526.4098947368421" y="-398.44894736842105" type="line"/>
      <point x="526.4098947368421" y="-295.53526315789475" type="line"/>
      <point x="274.9151578947368" y="-295.53526315789475" type="line"/>
      <point x="274.9151578947368" y="1361.3773684210526" type="line"/>
      <point x="526.4098947368421" y="1361.3773684210526" type="line"/>
      <point x="526.4098947368421" y="1463.991052631579" type="line"/>
      <point x="159.29094736842106" y="1463.991052631579" type="line"/>
    </contour>
  </outline>
</glyph>
<glyph name="bracketright" format="2">
  <advance width="607.8955789473684"/>
  <unicode hex="005D"/>
  <note>
bracketright
</note>
  <outline>
    <contour>
      <point x="81.48568421052632" y="-398.44894736842105" type="line"/>
      <point x="448.60463157894736" y="-398.44894736842105" type="line"/>
      <point x="448.60463157894736" y="1463.991052631579" type="line"/>
      <point x="81.48568421052632" y="1463.991052631579" type="line"/>
      <point x="81.48568421052632" y="1361.3773684210526" type="line"/>
      <point x="333.2067368421053" y="1361.3773684210526" type="line"/>
      <point x="333.2067368421053" y="-295.53526315789475" type="line"/>
      <point x="81.48568421052632" y="-295.53526315789475" type="line"/>
    </contour>
  </outline>
</glyph>
<glyph name="asciicircum" format="2">
  <advance width="1090.9522105263159"/>
  <unicode hex="005E"/>
  <note>
asciicircum
</note>
  <outline>
    <contour>
      <point x="123.30094736842105" y="825.0142105263158" type="line"/>
      <point x="272.141052631579" y="825.0142105263158" type="line"/>
      <point x="581.4596842105263" y="1354.673052631579" type="line"/>
      <point x="507.1221052631579" y="1354.3625263157894" type="line"/>
      <point x="818.8111578947369" y="825.0142105263158" type="line"/>
      <point x="967.6512631578947" y="825.0142105263158" type="line"/>
      <point x="612.1589473684211" y="1434.8594736842106" type="line"/>
      <point x="478.34063157894735" y="1434.8594736842106" type="line"/>
    </contour>
  </outline>
</glyph>
<glyph name="underscore" format="2">
  <advance width="1466.5993684210525"/>
  <unicode hex="005F"/>
  <note>
underscore
</note>
  <outline>
    <contour>
      <point x="84.35336842105264" y="-421.5278947368421" type="line"/>
      <point x="1382.246" y="-421.5278947368421" type="line"/>
      <point x="1382.246" y="-319.7457894736842" type="line"/>
      <point x="84.35336842105264" y="-319.7457894736842" type="line"/>
    </contour>
  </outline>
</glyph>
<glyph name="a" format="2">
  <advance width="1217.215052631579"/>
  <unicode hex="0061"/>
  <note>
a
</note>
  <anchor x="551.4909473684211" y="0.7947368421052659" name="bottom"/>
  <anchor x="1007.5268421052632" y="0.0" name="ogonek"/>
  <anchor x="554.4909473684211" y="959.6028421052631" name="top"/>
  <outline>
    <contour>
      <point x="530.43" y="-32.37747368421053" type="curve" smooth="yes"/>
      <point x="742.9237894736842" y="-32.37747368421053"/>
      <point x="884.096" y="82.37789473684211"/>
      <point x="935.3506315789474" y="288.24810526315787" type="curve"/>
      <point x="877.554947368421" y="332.1975789473684" type="line"/>
      <point x="872.9607368421052" y="0.0" type="line"/>
      <point x="1096.032105263158" y="0.0" type="line"/>
      <point x="1096.032105263158" y="944.1452631578948" type="line"/>
      <point x="870.8436842105264" y="944.1452631578948" type="line"/>
      <point x="870.8436842105264" y="601.7987368421052" type="line"/>
      <point x="932.7862105263158" y="643.3725263157895" type="line"/>
      <point x="883.5676842105263" y="853.9592631578947"/>
      <point x="738.931052631579" y="971.6492631578948"/>
      <point x="526.914947368421" y="971.6492631578948" type="curve" smooth="yes"/>
      <point x="251.89378947368422" y="971.6492631578948"/>
      <point x="74.19694736842105" y="764.6966315789474"/>
      <point x="74.19694736842105" y="460.7897894736842" type="curve" smooth="yes"/>
      <point x="74.19694736842105" y="163.19926315789473"/>
      <point x="252.13589473684212" y="-32.37747368421053"/>
    </contour>
    <contour>
      <point x="552.8085263157894" y="43.58810526315789" type="curve" smooth="yes"/>
      <point x="392.3203157894737" y="43.58810526315789"/>
      <point x="304.52589473684213" y="201.39410526315788"/>
      <point x="304.52589473684213" y="468.20105263157893" type="curve" smooth="yes"/>
      <point x="304.52589473684213" y="739.2816842105264"/>
      <point x="394.55663157894736" y="895.4573684210526"/>
      <point x="550.0671578947369" y="895.4573684210526" type="curve" smooth="yes"/>
      <point x="714.792" y="895.4573684210526"/>
      <point x="838.7062105263158" y="709.7978947368421"/>
      <point x="838.7062105263158" y="462.1564210526316" type="curve" smooth="yes"/>
      <point x="838.7062105263158" y="220.0423157894737"/>
      <point x="715.578" y="43.58810526315789"/>
    </contour>
  </outline>
</glyph>
<glyph name="b" format="2">
  <advance width="1197.112105263158"/>
  <unicode hex="0062"/>
  <note>
b
</note>
  <anchor x="612.4912631578948" y="9.457894736842107" name="bottom"/>
  <anchor x="612.4912631578948" y="1516.622105263158" name="top"/>
  <outline>
    <contour>
      <point x="681.2841052631579" y="-40.44105263157895" type="curve" smooth="yes"/>
      <point x="952.5338947368422" y="-40.44105263157895"/>
      <point x="1122.915157894737" y="161.43336842105262"/>
      <point x="1122.915157894737" y="460.40684210526314" type="curve" smooth="yes"/>
      <point x="1122.915157894737" y="760.5343157894737"/>
      <point x="952.5846315789473" y="969.4652631578947"/>
      <point x="684.6451578947368" y="969.4652631578947" type="curve" smooth="yes"/>
      <point x="477.58736842105264" y="969.4652631578947"/>
      <point x="358.7061052631579" y="846.8066315789474"/>
      <point x="313.70157894736843" y="644.7195789473684" type="curve"/>
      <point x="360.82042105263156" y="617.0727368421052" type="line"/>
      <point x="360.82042105263156" y="1516.622105263158" type="line"/>
      <point x="132.86463157894735" y="1516.622105263158" type="line"/>
      <point x="132.86463157894735" y="0.0" type="line"/>
      <point x="357.04673684210525" y="0.0" type="line"/>
      <point x="357.04673684210525" y="302.09526315789475" type="line"/>
      <point x="308.12484210526316" y="274.4697894736842" type="line"/>
      <point x="354.18778947368423" y="83.87063157894737"/>
      <point x="465.73368421052635" y="-40.44105263157895"/>
    </contour>
    <contour>
      <point x="647.3135789473685" y="36.95684210526317" type="curve" smooth="yes"/>
      <point x="463.26410526315794" y="36.95684210526317"/>
      <point x="359.6098947368421" y="244.98336842105263"/>
      <point x="359.6098947368421" y="456.80578947368423" type="curve" smooth="yes"/>
      <point x="359.6098947368421" y="677.4795789473684"/>
      <point x="469.7761052631579" y="892.0673684210526"/>
      <point x="651.8609473684211" y="892.0673684210526" type="curve" smooth="yes"/>
      <point x="824.0991578947369" y="892.0673684210526"/>
      <point x="895.5962105263158" y="713.6633684210526"/>
      <point x="895.5962105263158" y="466.0121052631579" type="curve" smooth="yes"/>
      <point x="895.5962105263158" y="242.21252631578946"/>
      <point x="834.6817894736843" y="36.95684210526317"/>
    </contour>
  </outline>
</glyph>
<glyph name="c" format="2">
  <advance width="961.3886315789474"/>
  <unicode hex="0063"/>
  <note>
c
</note>
  <anchor x="507.5843157894737" y="-11.490526315789474" name="bottom"/>
  <anchor x="559.5043157894737" y="949.7468421052631" name="top"/>
  <outline>
    <contour>
      <point x="564.4511578947369" y="-42.98947368421052" type="curve" smooth="yes"/>
      <point x="683.5532631578948" y="-42.98947368421052"/>
      <point x="795.0076842105263" y="-8.654315789473683"/>
      <point x="880.7632631578947" y="49.294105263157896" type="curve"/>
      <point x="880.7632631578947" y="234.86547368421054" type="line"/>
      <point x="801.1151578947369" y="106.16263157894737"/>
      <point x="680.6401052631579" y="34.40842105263159"/>
      <point x="578.7143157894736" y="34.40842105263159" type="curve" smooth="yes"/>
      <point x="399.99168421052633" y="34.40842105263159"/>
      <point x="303.3316842105263" y="252.89947368421053"/>
      <point x="303.3316842105263" y="461.52263157894737" type="curve" smooth="yes"/>
      <point x="303.3316842105263" y="671.1290526315789"/>
      <point x="399.8716842105263" y="892.8210526315789"/>
      <point x="586.4143157894737" y="892.8210526315789" type="curve" smooth="yes"/>
      <point x="686.9437894736842" y="892.8210526315789"/>
      <point x="790.3094736842105" y="829.6511578947368"/>
      <point x="869.3369473684211" y="705.2206315789474" type="curve"/>
      <point x="869.3369473684211" y="881.1273684210527" type="line"/>
      <point x="772.3533684210527" y="937.6617894736842"/>
      <point x="670.9226315789474" y="970.4452631578947"/>
      <point x="561.6511578947368" y="970.4452631578947" type="curve" smooth="yes"/>
      <point x="283.7061052631579" y="970.4452631578947"/>
      <point x="74.19694736842105" y="756.7216842105263"/>
      <point x="74.19694736842105" y="455.22263157894736" type="curve" smooth="yes"/>
      <point x="74.19694736842105" y="157.396"/>
      <point x="276.6434736842105" y="-42.98947368421052"/>
    </contour>
  </outline>
</glyph>
<glyph name="d" format="2">
  <advance width="1196.8857894736843"/>
  <unicode hex="0064"/>
  <note>
d
</note>
  <anchor x="557.0073684210527" y="9.457894736842107" name="bottom"/>
  <anchor x="945.3070526315789" y="1288.7625263157895" name="center"/>
  <anchor x="602.4768421052631" y="1516.622105263158" name="top"/>
  <anchor x="1196.7812631578947" y="1516.1321052631579" name="topright"/>
  <outline>
    <contour>
      <point x="515.828" y="-40.44105263157895" type="curve" smooth="yes"/>
      <point x="731.1521052631579" y="-40.44105263157895"/>
      <point x="843.1506315789474" y="82.96536842105263"/>
      <point x="889.2135789473684" y="274.01715789473684" type="curve"/>
      <point x="839.839052631579" y="301.4163157894737" type="line"/>
      <point x="839.839052631579" y="-4.440892098500626e-16" type="line"/>
      <point x="1064.021157894737" y="-4.440892098500626e-16" type="line"/>
      <point x="1064.021157894737" y="1516.622105263158" type="line"/>
      <point x="836.518" y="1516.622105263158" type="line"/>
      <point x="836.518" y="617.0727368421053" type="line"/>
      <point x="883.4105263157895" y="644.4932631578947" type="line"/>
      <point x="838.406" y="847.2592631578948"/>
      <point x="719.751052631579" y="969.6915789473684"/>
      <point x="512.4669473684211" y="969.6915789473684" type="curve" smooth="yes"/>
      <point x="244.7537894736842" y="969.6915789473684"/>
      <point x="74.19694736842105" y="761.4092631578948"/>
      <point x="74.19694736842105" y="460.6331578947368" type="curve" smooth="yes"/>
      <point x="74.19694736842105" y="161.40305263157896"/>
      <point x="244.5782105263158" y="-40.44105263157895"/>
    </contour>
    <contour>
      <point x="549.7985263157894" y="37.183157894736844" type="curve" smooth="yes"/>
      <point x="362.5283157894737" y="37.183157894736844"/>
      <point x="301.5158947368421" y="241.79021052631578"/>
      <point x="301.5158947368421" y="466.0121052631579" type="curve" smooth="yes"/>
      <point x="301.5158947368421" y="714.1463157894736"/>
      <point x="372.68863157894737" y="892.0673684210526"/>
      <point x="545.2511578947368" y="892.0673684210526" type="curve" smooth="yes"/>
      <point x="727.4643157894737" y="892.0673684210526"/>
      <point x="837.5022105263158" y="677.2532631578947"/>
      <point x="837.5022105263158" y="456.12684210526317" type="curve" smooth="yes"/>
      <point x="837.5022105263158" y="244.0781052631579"/>
      <point x="733.946" y="37.183157894736844"/>
    </contour>
  </outline>
</glyph>
<glyph name="e" format="2">
  <advance width="1087.4075789473684"/>
  <unicode hex="0065"/>
  <note>
e
</note>
  <anchor x="546.360105263158" y="-8.622105263157895" name="bottom"/>
  <anchor x="714.0926315789474" y="3.9800000000000004" name="ogonek"/>
  <anchor x="548.3201052631579" y="947.7868421052632" name="top"/>
  <outline>
    <contour>
      <point x="557.4288421052631" y="-41.519473684210524" type="curve" smooth="yes"/>
      <point x="788.7514736842105" y="-41.519473684210524"/>
      <point x="924.5193684210526" y="82.56315789473685"/>
      <point x="997.5191578947368" y="283.5773684210526" type="curve"/>
      <point x="870.8613684210526" y="283.5773684210526" type="line"/>
      <point x="842.223052631579" y="154.77989473684212"/>
      <point x="697.7930526315789" y="35.78042105263158"/>
      <point x="565.5972631578948" y="35.78042105263158" type="curve" smooth="yes"/>
      <point x="383.1354736842105" y="35.78042105263158"/>
      <point x="305.43568421052635" y="265.91463157894736"/>
      <point x="305.43568421052635" y="459.3647368421053" type="curve" smooth="yes"/>
      <point x="305.43568421052635" y="665.5138947368421"/>
      <point x="399.0424210526316" y="891.3753684210526"/>
      <point x="557.4288421052631" y="891.3753684210526" type="curve" smooth="yes"/>
      <point x="701.8058947368421" y="891.3753684210526"/>
      <point x="768.3521052631579" y="706.2150526315789"/>
      <point x="793.5844210526316" y="501.7842105263158" type="curve"/>
      <point x="1023.0863157894737" y="501.7842105263158" type="line"/>
      <point x="988.6201052631579" y="793.4066315789473"/>
      <point x="816.9651578947369" y="968.9752631578947"/>
      <point x="552.1077894736842" y="968.9752631578947" type="curve" smooth="yes"/>
      <point x="267.67526315789473" y="968.9752631578947"/>
      <point x="74.00094736842105" y="765.4476842105263"/>
      <point x="74.00094736842105" y="460.3805263157895" type="curve" smooth="yes"/>
      <point x="74.00094736842105" y="159.09831578947367"/>
      <point x="263.5218947368421" y="-41.519473684210524"/>
    </contour>
    <contour>
      <point x="234.39368421052632" y="501.3862105263158" type="line"/>
      <point x="985.5294736842105" y="501.7842105263158" type="line"/>
      <point x="983.2708421052632" y="567.6617894736842" type="line"/>
      <point x="220.97526315789474" y="567.6617894736842" type="line"/>
    </contour>
  </outline>
</glyph>
<glyph name="f" format="2">
  <advance width="730.2494736842106"/>
  <unicode hex="0066"/>
  <note>
f
</note>
  <anchor x="365.27473684210526" y="9.457894736842107" name="bottom"/>
  <anchor x="365.27473684210526" y="1516.622105263158" name="top"/>
  <outline>
    <contour>
      <point x="232.12578947368422" y="0.0" type="line"/>
      <point x="459.1078947368421" y="0.0" type="line"/>
      <point x="459.1078947368421" y="1107.6526315789474" type="line" smooth="yes"/>
      <point x="459.1078947368421" y="1250.6672631578947"/>
      <point x="439.5281052631579" y="1450.4656842105262"/>
      <point x="514.3481052631579" y="1479.1376842105262" type="curve" smooth="yes"/>
      <point x="575.1406315789474" y="1476.3656842105263"/>
      <point x="626.7394736842106" y="1449.9845263157895"/>
      <point x="626.7394736842106" y="1375.3894736842105" type="curve" smooth="yes"/>
      <point x="626.7394736842106" y="1348.7381052631579"/>
      <point x="620.3888421052632" y="1306.1593684210527"/>
      <point x="611.9717894736842" y="1273.4721052631578" type="curve"/>
      <point x="745.2465263157894" y="1273.4721052631578" type="line"/>
      <point x="752.108947368421" y="1305.5486315789474"/>
      <point x="756.8352631578948" y="1340.5656842105263"/>
      <point x="756.8352631578948" y="1366.0947368421052" type="curve" smooth="yes"/>
      <point x="756.8352631578948" y="1481.673052631579"/>
      <point x="654.3577894736842" y="1562.591052631579"/>
      <point x="499.5684210526316" y="1562.591052631579" type="curve" smooth="yes"/>
      <point x="299.1462105263158" y="1562.591052631579"/>
      <point x="232.12578947368422" y="1422.4655789473684"/>
      <point x="232.12578947368422" y="1137.0157894736842" type="curve" smooth="yes"/>
    </contour>
    <contour>
      <point x="47.11" y="857.8421052631579" type="line"/>
      <point x="661.3342105263158" y="857.8421052631579" type="line"/>
      <point x="661.3342105263158" y="933.6136842105263" type="line"/>
      <point x="47.11" y="933.6136842105263" type="line"/>
    </contour>
  </outline>
</glyph>
<glyph name="g" format="2">
  <advance width="1194.4995789473685"/>
  <unicode hex="0067"/>
  <note>
g
</note>
  <anchor x="593.5246315789474" y="-516.5421052631579" name="bottom"/>
  <anchor x="563.6930526315789" y="947.7868421052632" name="top"/>
  <outline>
    <contour>
      <point x="541.6722105263158" y="-562.1015789473685" type="curve" smooth="yes"/>
      <point x="874.2353684210526" y="-562.1015789473685"/>
      <point x="1064.3843157894737" y="-336.65736842105264"/>
      <point x="1064.3843157894737" y="96.32105263157895" type="curve" smooth="yes"/>
      <point x="1064.3843157894737" y="942.6752631578947" type="line"/>
      <point x="836.2022105263158" y="942.6752631578947" type="line"/>
      <point x="836.2022105263158" y="656.2763157894736" type="line"/>
      <point x="876.9271578947369" y="693.0762105263158" type="line"/>
      <point x="823.0877894736842" y="865.1218947368421"/>
      <point x="702.4565263157895" y="968.9752631578947"/>
      <point x="513.2827368421052" y="968.9752631578947" type="curve" smooth="yes"/>
      <point x="245.75852631578948" y="968.9752631578947"/>
      <point x="76.37063157894737" y="757.8086315789474"/>
      <point x="76.37063157894737" y="458.11578947368423" type="curve" smooth="yes"/>
      <point x="76.37063157894737" y="157.51294736842107"/>
      <point x="248.25926315789474" y="-44.83315789473684"/>
      <point x="518.8301052631579" y="-44.83315789473684" type="curve" smooth="yes"/>
      <point x="715.6028421052631" y="-44.83315789473684"/>
      <point x="828.6253684210526" y="63.20863157894737"/>
      <point x="880.4534736842105" y="223.01652631578946" type="curve"/>
      <point x="840.8811578947368" y="266.8384210526316" type="line"/>
      <point x="839.7495789473684" y="33.94736842105263" type="line"/>
      <point x="839.7495789473684" y="-326.18957894736843"/>
      <point x="694.9355789473684" y="-484.7036842105263"/>
      <point x="517.2827368421052" y="-484.7036842105263" type="curve" smooth="yes"/>
      <point x="359.07863157894735" y="-484.7036842105263"/>
      <point x="240.42463157894738" y="-374.0307368421053"/>
      <point x="223.12842105263158" y="-221.93526315789472" type="curve"/>
      <point x="80.27989473684211" y="-221.93526315789472" type="line"/>
      <point x="133.77284210526315" y="-449.0192631578947"/>
      <point x="293.0261052631579" y="-562.1015789473685"/>
    </contour>
    <contour>
      <point x="548.5248421052631" y="32.93842105263158" type="curve" smooth="yes"/>
      <point x="363.37368421052633" y="32.93842105263158"/>
      <point x="303.9158947368421" y="239.0517894736842"/>
      <point x="303.9158947368421" y="463.72105263157897" type="curve" smooth="yes"/>
      <point x="303.9158947368421" y="711.55"/>
      <point x="373.7906315789474" y="891.2773684210526"/>
      <point x="543.9774736842105" y="891.2773684210526" type="curve" smooth="yes"/>
      <point x="723.6926315789474" y="891.2773684210526"/>
      <point x="832.7074736842105" y="676.5665263157895"/>
      <point x="832.7074736842105" y="455.2684210526316" type="curve" smooth="yes"/>
      <point x="832.7074736842105" y="243.39663157894736"/>
      <point x="730.5966315789474" y="32.93842105263158"/>
    </contour>
  </outline>
</glyph>
<glyph name="h" format="2">
  <advance width="1138.5597894736843"/>
  <unicode hex="0068"/>
  <note>
h
</note>
  <anchor x="568.9193684210526" y="0.0" name="bottom"/>
  <anchor x="253.4482105263158" y="1305.9265263157895" name="center"/>
  <anchor x="568.9193684210526" y="1516.622105263158" name="top"/>
  <outline>
    <contour>
      <point x="132.86463157894738" y="0.0" type="line"/>
      <point x="363.0322105263158" y="0.0" type="line"/>
      <point x="363.0322105263158" y="497.46315789473687" type="line" smooth="yes"/>
      <point x="363.0322105263158" y="717.833052631579"/>
      <point x="479.57105263157894" y="888.0483157894737"/>
      <point x="632.679052631579" y="888.0483157894737" type="curve" smooth="yes"/>
      <point x="749.2851578947368" y="888.0483157894737"/>
      <point x="802.1195789473684" y="786.6929473684211"/>
      <point x="802.1195789473684" y="541.8726315789473" type="curve" smooth="yes"/>
      <point x="802.1195789473684" y="0.0" type="line"/>
      <point x="1032.0911578947369" y="0.0" type="line"/>
      <point x="1032.0911578947369" y="604.0431578947369" type="line" smooth="yes"/>
      <point x="1032.0911578947369" y="831.0241052631579"/>
      <point x="896.1744210526316" y="968.6015789473685"/>
      <point x="670.9048421052631" y="968.6015789473685" type="curve" smooth="yes"/>
      <point x="488.4577894736842" y="968.6015789473685"/>
      <point x="367.9842105263158" y="871.8722105263158"/>
      <point x="313.08621052631577" y="677.682" type="curve"/>
      <point x="361.1058947368421" y="594.5362105263158" type="line"/>
      <point x="363.05726315789474" y="1517.112105263158" type="line"/>
      <point x="132.86463157894738" y="1517.112105263158" type="line"/>
    </contour>
  </outline>
</glyph>
<glyph name="k" format="2">
  <advance width="1041.8178947368422"/>
  <unicode hex="006B"/>
  <note>
k
</note>
  <anchor x="518.1734736842105" y="0.0" name="bottom"/>
  <anchor x="524.5103157894737" y="1516.622105263158" name="top"/>
  <outline>
    <contour>
      <point x="132.86463157894735" y="0.0" type="line"/>
      <point x="359.9993684210526" y="0.0" type="line"/>
      <point x="359.9993684210526" y="1517.112105263158" type="line"/>
      <point x="132.86463157894735" y="1517.112105263158" type="line"/>
    </contour>
    <contour>
      <point x="751.3266315789474" y="0.0" type="line"/>
      <point x="996.7472631578947" y="0.0" type="line"/>
      <point x="526.8715789473684" y="583.7472631578947" type="line"/>
      <point x="395.7648421052632" y="427.8281052631579" type="line"/>
    </contour>
    <contour>
      <point x="302.48936842105263" y="281.6408421052631" type="line"/>
      <point x="897.2784210526315" y="944.2432631578947" type="line"/>
      <point x="766.7156842105263" y="944.2432631578947" type="line"/>
      <point x="295.08031578947373" y="412.3741052631579" type="line"/>
    </contour>
  </outline>
</glyph>
<glyph name="l" format="2">
  <advance width="492.41136842105266"/>
  <unicode hex="006C"/>
  <note>
l
</note>
  <anchor x="227.3998947368421" y="0.0" name="bottom"/>
  <anchor x="247.03463157894737" y="783.2531578947369" name="center"/>
  <anchor x="587.4772631578948" y="786.9631578947368" name="dot"/>
  <anchor x="333.8662105263158" y="1514.2015789473685" name="top"/>
  <anchor x="475.6362105263158" y="1488.6905263157894" name="topright"/>
  <outline>
    <contour>
      <point x="132.86463157894735" y="0.0" type="line"/>
      <point x="359.54673684210525" y="0.0" type="line"/>
      <point x="359.54673684210525" y="1517.112105263158" type="line"/>
      <point x="132.86463157894735" y="1517.112105263158" type="line"/>
    </contour>
  </outline>
</glyph>
<glyph name="m" format="2">
  <advance width="1751.146947368421"/>
  <unicode hex="006D"/>
  <note>
m
</note>
  <anchor x="878.7743157894737" y="0.0" name="bottom"/>
  <anchor x="880.7343157894737" y="949.7468421052631" name="top"/>
  <outline>
    <contour>
      <point x="121.96463157894736" y="0.0" type="line"/>
      <point x="351.1888421052631" y="0.0" type="line"/>
      <point x="351.1888421052631" y="497.46315789473687" type="line" smooth="yes"/>
      <point x="351.1888421052631" y="678.3833684210526"/>
      <point x="437.5698947368421" y="890.83"/>
      <point x="596.3609473684211" y="890.83" type="curve" smooth="yes"/>
      <point x="732.9761052631579" y="890.83"/>
      <point x="784.4488421052631" y="736.288105263158"/>
      <point x="784.4488421052631" y="542.4157894736842" type="curve" smooth="yes"/>
      <point x="784.4488421052631" y="0.0" type="line"/>
      <point x="1013.6730526315789" y="0.0" type="line"/>
      <point x="1013.6730526315789" y="497.46315789473687" type="line" smooth="yes"/>
      <point x="1013.6730526315789" y="687.6956842105263"/>
      <point x="1080.648105263158" y="880.5773684210526"/>
      <point x="1237.9714736842107" y="880.5773684210526" type="curve" smooth="yes"/>
      <point x="1373.9683157894738" y="880.5773684210526"/>
      <point x="1415.2277894736842" y="737.1701052631579"/>
      <point x="1415.2277894736842" y="542.4157894736842" type="curve" smooth="yes"/>
      <point x="1415.2277894736842" y="0.22631578947368425" type="line"/>
      <point x="1644.452" y="0.22631578947368425" type="line"/>
      <point x="1644.452" y="619.3421052631579" type="line" smooth="yes"/>
      <point x="1644.452" y="833.5115789473684"/>
      <point x="1511.9551578947369" y="968.9752631578947"/>
      <point x="1296.2725263157895" y="968.9752631578947" type="curve" smooth="yes"/>
      <point x="1111.2418947368421" y="968.9752631578947"/>
      <point x="1010.2151578947369" y="869.4715789473685"/>
      <point x="933.7914736842106" y="682.389894736842" type="curve"/>
      <point x="998.9006315789474" y="689.8543157894737" type="line"/>
      <point x="964.2663157894737" y="860.3195789473684"/>
      <point x="842.504" y="968.9752631578947"/>
      <point x="656.762" y="968.9752631578947" type="curve" smooth="yes"/>
      <point x="488.0842105263158" y="968.9752631578947"/>
      <point x="378.76473684210526" y="877.0113684210527"/>
      <point x="309.54515789473686" y="716.794" type="curve"/>
      <point x="352.1414736842105" y="665.6755789473684" type="line"/>
      <point x="352.58884210526315" y="944.2432631578947" type="line"/>
      <point x="121.96463157894736" y="944.2432631578947" type="line"/>
    </contour>
  </outline>
</glyph>
<glyph name="n" format="2">
  <advance width="1126.4837894736843"/>
  <unicode hex="006E"/>
  <note>
n
</note>
  <anchor x="564.828" y="0.0" name="bottom"/>
  <anchor x="593.024" y="947.2968421052632" name="top"/>
  <outline>
    <contour>
      <point x="121.96463157894738" y="0.0" type="line"/>
      <point x="351.9362105263158" y="0.0" type="line"/>
      <point x="351.9362105263158" y="497.46315789473687" type="line" smooth="yes"/>
      <point x="351.9362105263158" y="716.4610526315789"/>
      <point x="468.7690526315789" y="887.6563157894736"/>
      <point x="620.8293684210527" y="887.6563157894736" type="curve" smooth="yes"/>
      <point x="736.6211578947368" y="887.6563157894736"/>
      <point x="790.0435789473685" y="784.5369473684211"/>
      <point x="790.0435789473685" y="542.8526315789474" type="curve" smooth="yes"/>
      <point x="790.0435789473685" y="0.0" type="line"/>
      <point x="1020.0151578947368" y="0.0" type="line"/>
      <point x="1020.0151578947368" y="603.0631578947368" type="line" smooth="yes"/>
      <point x="1020.0151578947368" y="831.0241052631579"/>
      <point x="885.4704210526315" y="968.9752631578947"/>
      <point x="660.2988421052631" y="968.9752631578947" type="curve" smooth="yes"/>
      <point x="476.4938947368421" y="968.9752631578947"/>
      <point x="360.8596842105263" y="870.092"/>
      <point x="307.87021052631576" y="677.5163157894737" type="curve"/>
      <point x="349.6908421052632" y="597.1518947368421" type="line"/>
      <point x="351.9362105263158" y="944.2432631578947" type="line"/>
      <point x="121.96463157894738" y="944.2432631578947" type="line"/>
    </contour>
  </outline>
</glyph>
<glyph name="o" format="2">
  <advance width="1119.2496842105263"/>
  <unicode hex="006F"/>
  <note>
o
</note>
  <anchor x="560.1248421052632" y="0.7947368421052623" name="bottom"/>
  <anchor x="560.1248421052632" y="469.9624210526316" name="center"/>
  <anchor x="715.9126315789474" y="0.0" name="ogonek"/>
  <anchor x="560.1248421052632" y="948.7668421052631" name="top"/>
  <anchor x="1088.5093684210526" y="939.8268421052632" name="topright"/>
  <outline>
    <contour>
      <point x="559.8985263157895" y="-42.009473684210526" type="curve" smooth="yes"/>
      <point x="852.414" y="-42.009473684210526"/>
      <point x="1045.0527368421053" y="157.1498947368421"/>
      <point x="1045.0527368421053" y="459.4554736842105" type="curve" smooth="yes"/>
      <point x="1045.0527368421053" y="765.148"/>
      <point x="850.6876842105263" y="970.3472631578948"/>
      <point x="559.8985263157895" y="970.3472631578948" type="curve" smooth="yes"/>
      <point x="268.83968421052634" y="970.3472631578948"/>
      <point x="74.19694736842105" y="764.952"/>
      <point x="74.19694736842105" y="459.4554736842105" type="curve" smooth="yes"/>
      <point x="74.19694736842105" y="157.1498947368421"/>
      <point x="267.60936842105264" y="-42.009473684210526"/>
    </contour>
    <contour>
      <point x="559.8985263157895" y="35.54105263157895" type="curve" smooth="yes"/>
      <point x="397.92726315789474" y="35.54105263157895"/>
      <point x="310.6211578947368" y="258.07284210526313"/>
      <point x="310.6211578947368" y="460.51336842105263" type="curve" smooth="yes"/>
      <point x="310.6211578947368" y="663.2183157894736"/>
      <point x="398.7778947368421" y="893.0230526315789"/>
      <point x="559.8985263157895" y="893.0230526315789" type="curve" smooth="yes"/>
      <point x="721.0928421052631" y="893.0230526315789"/>
      <point x="810.9495789473684" y="661.1486315789474"/>
      <point x="810.9495789473684" y="459.4554736842105" type="curve" smooth="yes"/>
      <point x="810.9495789473684" y="257.8655789473684"/>
      <point x="722.3224210526316" y="35.54105263157895"/>
    </contour>
  </outline>
</glyph>
<glyph name="p" format="2">
  <advance width="1193.9903157894737"/>
  <unicode hex="0070"/>
  <note>
p
</note>
  <anchor x="595.4510526315789" y="9.457894736842107" name="bottom"/>
  <anchor x="595.4510526315789" y="939.8268421052632" name="top"/>
  <outline>
    <contour>
      <point x="132.45863157894738" y="-528.408" type="line"/>
      <point x="360.4144210526316" y="-528.408" type="line"/>
      <point x="360.4144210526316" y="322.9804210526316" type="line"/>
      <point x="313.2955789473684" y="295.33357894736844" type="line"/>
      <point x="358.0737894736842" y="93.24652631578948"/>
      <point x="476.79642105263156" y="-29.48578947368421"/>
      <point x="682.8812631578948" y="-29.48578947368421" type="curve" smooth="yes"/>
      <point x="950.4357894736842" y="-29.48578947368421"/>
      <point x="1119.7933684210527" y="180.62715789473685"/>
      <point x="1119.7933684210527" y="480.62631578947367" type="curve" smooth="yes"/>
      <point x="1119.7933684210527" y="780.0228421052632"/>
      <point x="950.3850526315789" y="982.9752631578947"/>
      <point x="679.5202105263159" y="982.9752631578947" type="curve" smooth="yes"/>
      <point x="465.16905263157895" y="982.9752631578947"/>
      <point x="353.5554736842105" y="858.889894736842"/>
      <point x="307.7188421052632" y="668.2907368421053" type="curve"/>
      <point x="356.6407368421053" y="638.9315789473684" type="line"/>
      <point x="356.6407368421053" y="944.2432631578947" type="line"/>
      <point x="132.45863157894738" y="944.2432631578947" type="line"/>
    </contour>
    <contour>
      <point x="650.0970526315789" y="48.13842105263158" type="curve" smooth="yes"/>
      <point x="469.11347368421053" y="48.13842105263158"/>
      <point x="359.2038947368421" y="262.79989473684213"/>
      <point x="359.2038947368421" y="483.4736842105263" type="curve" smooth="yes"/>
      <point x="359.2038947368421" y="696.0434736842105"/>
      <point x="462.20947368421054" y="905.5773684210526"/>
      <point x="645.5496842105263" y="905.5773684210526" type="curve" smooth="yes"/>
      <point x="832.0429473684211" y="905.5773684210526"/>
      <point x="892.4744210526316" y="699.9903157894737"/>
      <point x="892.4744210526316" y="475.2473684210526" type="curve" smooth="yes"/>
      <point x="892.4744210526316" y="227.56578947368422"/>
      <point x="822.0786315789474" y="48.13842105263158"/>
    </contour>
  </outline>
</glyph>
<glyph name="q" format="2">
  <advance width="1182.7146315789473"/>
  <unicode hex="0071"/>
  <note>
q
</note>
  <anchor x="588.1249473684211" y="9.457894736842107" name="bottom"/>
  <anchor x="588.1249473684211" y="939.8268421052632" name="top"/>
  <outline>
    <contour>
      <point x="833.8022105263158" y="-528.408" type="line"/>
      <point x="1061.5316842105262" y="-528.408" type="line"/>
      <point x="1061.5316842105262" y="944.2432631578947" type="line"/>
      <point x="837.3495789473684" y="944.2432631578947" type="line"/>
      <point x="837.3495789473684" y="638.1842105263158" type="line"/>
      <point x="886.4977894736842" y="667.5433684210526" type="line"/>
      <point x="840.6611578947369" y="858.3688421052632"/>
      <point x="729.0475789473684" y="982.9752631578947"/>
      <point x="514.4701052631578" y="982.9752631578947" type="curve" smooth="yes"/>
      <point x="243.60526315789474" y="982.9752631578947"/>
      <point x="74.19694736842105" y="779.5997894736843"/>
      <point x="74.19694736842105" y="480.62631578947367" type="curve" smooth="yes"/>
      <point x="74.19694736842105" y="180.72515789473684"/>
      <point x="243.78084210526316" y="-29.48578947368421"/>
      <point x="511.10905263157895" y="-29.48578947368421" type="curve" smooth="yes"/>
      <point x="717.4202105263158" y="-29.48578947368421"/>
      <point x="835.9165263157895" y="93.0202105263158"/>
      <point x="880.6947368421053" y="295.33357894736844" type="curve"/>
      <point x="833.8022105263158" y="322.9804210526316" type="line"/>
    </contour>
    <contour>
      <point x="543.8932631578947" y="48.13842105263158" type="curve" smooth="yes"/>
      <point x="372.138" y="48.13842105263158"/>
      <point x="301.5158947368421" y="227.56578947368422"/>
      <point x="301.5158947368421" y="475.2473684210526" type="curve" smooth="yes"/>
      <point x="301.5158947368421" y="699.242947368421"/>
      <point x="361.94736842105266" y="905.5773684210526"/>
      <point x="548.4406315789474" y="905.5773684210526" type="curve" smooth="yes"/>
      <point x="732.0071578947369" y="905.5773684210526"/>
      <point x="835.0127368421053" y="695.2961052631579"/>
      <point x="835.0127368421053" y="483.4736842105263" type="curve" smooth="yes"/>
      <point x="835.0127368421053" y="262.79989473684213"/>
      <point x="725.1031578947368" y="48.13842105263158"/>
    </contour>
  </outline>
</glyph>
<glyph name="r" format="2">
  <advance width="883.4986315789474"/>
  <unicode hex="0072"/>
  <note>
r
</note>
  <anchor x="201.29673684210525" y="0.0" name="bottom"/>
  <anchor x="601.7788421052632" y="947.2968421052632" name="top"/>
  <outline>
    <contour>
      <point x="121.96463157894736" y="0.0" type="line"/>
      <point x="351.9362105263158" y="0.0" type="line"/>
      <point x="351.9362105263158" y="585.9894736842106" type="line" smooth="yes"/>
      <point x="351.9362105263158" y="743.8543157894737"/>
      <point x="457.5061052631579" y="889.13"/>
      <point x="584.1356842105263" y="889.13" type="curve" smooth="yes"/>
      <point x="646.5282105263158" y="889.13"/>
      <point x="705.6446315789474" y="857.9621052631579"/>
      <point x="698.5498947368421" y="772.1684210526316" type="curve" smooth="yes"/>
      <point x="698.0288421052632" y="735.0111578947368"/>
      <point x="686.4381052631579" y="695.3798947368422"/>
      <point x="665.2807368421053" y="665.4553684210526" type="curve"/>
      <point x="803.686105263158" y="636.383052631579" type="line"/>
      <point x="819.4234736842105" y="684.6666315789473"/>
      <point x="825.8583157894736" y="735.5283157894737"/>
      <point x="825.8583157894736" y="767.9157894736842" type="curve" smooth="yes"/>
      <point x="825.8583157894736" y="902.3496842105263"/>
      <point x="723.1635789473685" y="968.9752631578947"/>
      <point x="606.0514736842106" y="968.9752631578947" type="curve" smooth="yes"/>
      <point x="441.8461052631579" y="968.9752631578947"/>
      <point x="337.9311578947369" y="843.0241052631579"/>
      <point x="298.9721052631579" y="633.3706315789474" type="curve"/>
      <point x="351.1888421052631" y="609.772947368421" type="line"/>
      <point x="351.9362105263158" y="944.2432631578947" type="line"/>
      <point x="121.96463157894736" y="944.2432631578947" type="line"/>
    </contour>
  </outline>
</glyph>
<glyph name="s" format="2">
  <advance width="901.852"/>
  <unicode hex="0073"/>
  <note>
s
</note>
  <anchor x="421.7984210526316" y="-9.489473684210525" name="bottom"/>
  <anchor x="453.3351578947368" y="946.6347368421052" name="top"/>
  <outline>
    <contour>
      <point x="438.21736842105264" y="-28.550421052631577" type="curve" smooth="yes"/>
      <point x="725.0888421052632" y="-28.103052631578947"/>
      <point x="830.261052631579" y="103.51968421052632"/>
      <point x="829.8873684210527" y="272.5798947368421" type="curve" smooth="yes"/>
      <point x="829.74" y="500.19568421052634"/>
      <point x="630.7307368421052" y="556.8447368421052"/>
      <point x="451.3354736842105" y="591.7164210526316" type="curve" smooth="yes"/>
      <point x="338.31284210526314" y="614.1713684210526"/>
      <point x="234.78842105263158" y="650.1301052631579"/>
      <point x="234.78842105263158" y="743.3404210526315" type="curve" smooth="yes"/>
      <point x="234.78842105263158" y="837.569052631579"/>
      <point x="324.83852631578947" y="890.2842105263157"/>
      <point x="445.6226315789474" y="890.5842105263158" type="curve" smooth="yes"/>
      <point x="564.4125263157895" y="890.6578947368421"/>
      <point x="680.6381052631579" y="841.636947368421"/>
      <point x="774.8452631578948" y="721.8696842105263" type="curve"/>
      <point x="774.4715789473685" y="871.2281052631579" type="line"/>
      <point x="653.4486315789474" y="945.0538947368422"/>
      <point x="553.8958947368421" y="969.818947368421"/>
      <point x="446.02263157894737" y="969.7452631578948" type="curve" smooth="yes"/>
      <point x="229.26947368421054" y="969.4452631578947"/>
      <point x="93.57894736842105" y="863.5774736842105"/>
      <point x="93.95263157894738" y="692.9412631578947" type="curve" smooth="yes"/>
      <point x="94.32631578947368" y="505.73252631578947"/>
      <point x="274.4766315789474" y="444.3517894736842"/>
      <point x="408.97168421052635" y="415.13105263157894" type="curve" smooth="yes"/>
      <point x="562.3224210526316" y="381.64305263157894"/>
      <point x="657.1252631578948" y="344.8895789473684"/>
      <point x="657.1252631578948" y="222.71031578947367" type="curve" smooth="yes"/>
      <point x="657.1252631578948" y="84.67536842105264"/>
      <point x="508.51894736842104" y="54.25273684210527"/>
      <point x="427.9015789473684" y="54.25273684210527" type="curve" smooth="yes"/>
      <point x="287.04757894736844" y="53.87905263157895"/>
      <point x="186.8583157894737" y="120.67568421052631"/>
      <point x="78.1" y="265.5541052631579" type="curve"/>
      <point x="78.54736842105264" y="95.48052631578946" type="line"/>
      <point x="138.69073684210525" y="30.839157894736843"/>
      <point x="242.2845263157895" y="-28.924105263157895"/>
    </contour>
  </outline>
</glyph>
<glyph name="t" format="2">
  <advance width="694.2657894736842"/>
  <unicode hex="0074"/>
  <note>
t
</note>
  <anchor x="388.4237894736842" y="-10.0" name="bottom"/>
  <anchor x="337.8006315789474" y="592.9161052631579" name="center"/>
  <anchor x="344.3637894736842" y="939.8268421052632" name="top"/>
  <anchor x="650.0090526315789" y="1350.1973684210527" name="topright"/>
  <outline>
    <contour>
      <point x="417.4642105263158" y="-28.409052631578948" type="curve" smooth="yes"/>
      <point x="505.1709473684211" y="-28.409052631578948"/>
      <point x="584.5365263157895" y="-15.366631578947368"/>
      <point x="639.4394736842105" y="3.38778947368421" type="curve"/>
      <point x="639.4394736842105" y="96.446" type="line"/>
      <point x="567.1483157894737" y="61.49663157894738"/>
      <point x="529.6225263157895" y="50.76252631578948"/>
      <point x="473.22494736842106" y="50.76252631578948" type="curve" smooth="yes"/>
      <point x="425.54694736842106" y="50.76252631578948"/>
      <point x="420.88684210526316" y="101.75273684210526"/>
      <point x="420.88684210526316" y="243.05884210526318" type="curve" smooth="yes"/>
      <point x="420.88684210526316" y="868.8157894736842" type="line"/>
      <point x="582.7078947368421" y="868.8157894736842" type="line"/>
      <point x="582.7078947368421" y="944.6663157894736" type="line"/>
      <point x="420.88684210526316" y="944.6663157894736" type="line"/>
      <point x="420.88684210526316" y="1259.5294736842106" type="line"/>
      <point x="344.90473684210525" y="1259.5294736842106" type="line"/>
      <point x="353.8678947368421" y="1027.5484210526315"/>
      <point x="201.62157894736842" y="944.0663157894737"/>
      <point x="47.11" y="944.6663157894736" type="curve"/>
      <point x="47.11" y="868.8157894736842" type="line"/>
      <point x="198.53105263157892" y="868.8157894736842" type="line"/>
      <point x="198.53105263157892" y="209.31357894736843" type="line" smooth="yes"/>
      <point x="198.53105263157892" y="90.18105263157894"/>
      <point x="255.0658947368421" y="-28.409052631578948"/>
    </contour>
  </outline>
</glyph>
<glyph name="u" format="2">
  <advance width="1121.179052631579"/>
  <unicode hex="0075"/>
  <note>
u
</note>
  <anchor x="518.0906315789474" y="-2.489473684210523" name="bottom"/>
  <anchor x="876.6367368421053" y="0.0" name="ogonek"/>
  <anchor x="559.1832631578948" y="944.2432631578947" name="top"/>
  <anchor x="1266.368" y="888.9852631578948" name="topright"/>
  <outline>
    <contour>
      <point x="461.6978947368421" y="-27.622631578947367" type="curve" smooth="yes"/>
      <point x="636.2964210526316" y="-27.622631578947367"/>
      <point x="746.276947368421" y="81.59821052631578"/>
      <point x="802.7591578947369" y="270.0185263157895" type="curve"/>
      <point x="771.2922105263158" y="350.77305263157893" type="line"/>
      <point x="769.2731578947369" y="0.0" type="line"/>
      <point x="999.0184210526315" y="0.0" type="line"/>
      <point x="999.0184210526315" y="944.1452631578948" type="line"/>
      <point x="769.2731578947369" y="944.1452631578948" type="line"/>
      <point x="769.2731578947369" y="457.32105263157894" type="line" smooth="yes"/>
      <point x="769.2731578947369" y="230.68231578947368"/>
      <point x="647.7748421052631" y="50.52263157894737"/>
      <point x="489.9842105263158" y="50.52263157894737" type="curve" smooth="yes"/>
      <point x="375.34757894736845" y="50.52263157894737"/>
      <point x="337.36052631578946" y="157.79515789473686"/>
      <point x="337.36052631578946" y="413.2421052631579" type="curve" smooth="yes"/>
      <point x="337.36052631578946" y="944.1452631578948" type="line"/>
      <point x="107.38894736842106" y="944.1452631578948" type="line"/>
      <point x="107.38894736842106" y="300.41052631578947" type="line" smooth="yes"/>
      <point x="107.38894736842106" y="102.83831578947368"/>
      <point x="256.40968421052634" y="-27.622631578947367"/>
    </contour>
  </outline>
</glyph>
<glyph name="v" format="2">
  <advance width="1046.3136842105264"/>
  <unicode hex="0076"/>
  <note>
v
</note>
  <anchor x="523.8936842105263" y="9.457894736842107" name="bottom"/>
  <anchor x="523.8936842105263" y="939.8268421052632" name="top"/>
  <outline>
    <contour>
      <point x="500.02147368421055" y="-37.364315789473686" type="line"/>
      <point x="542.9942105263158" y="-37.364315789473686" type="line"/>
      <point x="995.4029473684211" y="944.2432631578947" type="line"/>
      <point x="902.7088421052631" y="944.2432631578947" type="line"/>
      <point x="562.501052631579" y="195.33642105263158" type="line"/>
      <point x="614.7488421052632" y="229.89957894736844" type="line"/>
      <point x="291.00484210526315" y="944.2432631578947" type="line"/>
      <point x="51.61073684210527" y="944.2432631578947" type="line"/>
    </contour>
  </outline>
</glyph>
<glyph name="w" format="2">
  <advance width="1600.3705263157894"/>
  <unicode hex="0077"/>
  <note>
w
</note>
  <anchor x="800.3352631578947" y="0.0" name="bottom"/>
  <anchor x="800.3352631578947" y="944.1452631578948" name="top"/>
  <outline>
    <contour>
      <point x="1057.7853684210527" y="-17.09242105263158" type="line"/>
      <point x="1100.9601052631579" y="-17.09242105263158" type="line"/>
      <point x="1551.401894736842" y="944.2432631578947" type="line"/>
      <point x="1457.9564210526316" y="944.2432631578947" type="line"/>
      <point x="1120.1458947368421" y="214.16873684210526" type="line"/>
      <point x="1180.3403157894736" y="246.88799999999998" type="line"/>
      <point x="857.0845263157895" y="944.2432631578947" type="line"/>
      <point x="615.5087368421052" y="944.2432631578947" type="line"/>
    </contour>
    <contour>
      <point x="491.4715789473684" y="-17.09242105263158" type="line"/>
      <point x="534.6706315789473" y="-17.09242105263158" type="line"/>
      <point x="823.4286315789474" y="613.8065263157895" type="line"/>
      <point x="776.3902105263157" y="712.4202105263157" type="line"/>
      <point x="552.9616842105263" y="213.56673684210529" type="line"/>
      <point x="608.1357894736842" y="245.00831578947367" type="line"/>
      <point x="290.5444210526316" y="944.2432631578947" type="line"/>
      <point x="49.06663157894737" y="944.2432631578947" type="line"/>
    </contour>
    <contour>
      <point x="908.6856842105263" y="734.9777894736842" type="line"/>
      <point x="1005.2028421052631" y="944.2432631578947" type="line"/>
      <point x="921.3523157894737" y="944.2432631578947" type="line"/>
      <point x="851.116" y="788.494105263158" type="line"/>
    </contour>
  </outline>
</glyph>
<glyph name="x" format="2">
  <advance width="997.5131578947369"/>
  <unicode hex="0078"/>
  <note>
x
</note>
  <anchor x="478.36157894736846" y="9.457894736842107" name="bottom"/>
  <anchor x="478.36157894736846" y="942.2768421052632" name="top"/>
  <outline>
    <contour>
      <point x="677.3348421052631" y="0.0" type="line"/>
      <point x="942.6402105263159" y="0.0" type="line"/>
      <point x="322.62357894736846" y="944.2432631578947" type="line"/>
      <point x="57.22021052631578" y="944.2432631578947" type="line"/>
    </contour>
    <contour>
      <point x="69.75705263157894" y="0.0" type="line"/>
      <point x="175.51452631578948" y="0.0" type="line"/>
      <point x="475.33915789473684" y="398.20126315789474" type="line"/>
      <point x="427.52736842105264" y="469.31673684210523" type="line"/>
    </contour>
    <contour>
      <point x="571.319052631579" y="491.4101052631579" type="line"/>
      <point x="912.1657894736842" y="944.2432631578947" type="line"/>
      <point x="808.7313684210526" y="944.2432631578947" type="line"/>
      <point x="520.8606315789474" y="560.3335789473684" type="line"/>
    </contour>
  </outline>
</glyph>
<glyph name="y" format="2">
  <advance width="987.1697894736842"/>
  <unicode hex="0079"/>
  <note>
y
</note>
  <anchor x="750.7906315789473" y="0.0" name="bottom"/>
  <anchor x="535.778" y="944.1452631578948" name="top"/>
  <outline>
    <contour>
      <point x="264.76536842105264" y="-556.1226315789473" type="curve" smooth="yes"/>
      <point x="375.6835789473684" y="-556.1226315789473"/>
      <point x="411.68189473684214" y="-474.62052631578945"/>
      <point x="449.90326315789474" y="-372.23231578947366" type="curve" smooth="yes"/>
      <point x="527.5475789473685" y="-149.55926315789472"/>
      <point x="606.7122105263157" y="74.74736842105261"/>
      <point x="686.4452631578947" y="297.95199999999994" type="curve"/>
      <point x="934.4748421052632" y="944.2432631578947" type="line"/>
      <point x="840.411052631579" y="944.2432631578947" type="line"/>
      <point x="557.004105263158" y="181.84989473684212" type="line"/>
      <point x="620.262947368421" y="213.92757894736843" type="line"/>
      <point x="287.6153684210526" y="944.2432631578947" type="line"/>
      <point x="49.59494736842106" y="944.2432631578947" type="line"/>
      <point x="513.9927368421053" y="-71.62684210526315" type="line"/>
      <point x="515.244" y="68.28800000000001" type="line"/>
      <point x="394.8623157894737" y="-287.1337894736842" type="line" smooth="yes"/>
      <point x="359.8822105263158" y="-389.6944210526316"/>
      <point x="331.1354736842105" y="-492.61526315789473"/>
      <point x="266.1643157894737" y="-492.61526315789473" type="curve" smooth="yes"/>
      <point x="225.1521052631579" y="-492.61526315789473"/>
      <point x="187.84263157894736" y="-468.9784210526316"/>
      <point x="183.51726315789475" y="-425.70473684210526" type="curve"/>
      <point x="96.72368421052632" y="-425.70473684210526" type="line"/>
      <point x="111.18705263157895" y="-508.00684210526316"/>
      <point x="162.2121052631579" y="-556.1226315789473"/>
    </contour>
  </outline>
</glyph>
<glyph name="z" format="2">
  <advance width="965.0953684210526"/>
  <unicode hex="007A"/>
  <note>
z
</note>
  <anchor x="482.71936842105265" y="0.0" name="bottom"/>
  <anchor x="482.71936842105265" y="472.1857894736842" name="center"/>
  <anchor x="482.71936842105265" y="944.1452631578948" name="top"/>
  <outline>
    <contour>
      <point x="54.76463157894737" y="0.0" type="line"/>
      <point x="889.3282105263158" y="0.0" type="line"/>
      <point x="889.3282105263158" y="78.22421052631579" type="line"/>
      <point x="276.9821052631579" y="78.22421052631579" type="line"/>
      <point x="328.7745263157895" y="32.20905263157895" type="line"/>
      <point x="906.1833684210526" y="944.2432631578947" type="line"/>
      <point x="90.97768421052632" y="944.2432631578947" type="line"/>
      <point x="90.97768421052632" y="866.3927368421053" type="line"/>
      <point x="680.9448421052632" y="866.3927368421053" type="line"/>
      <point x="634.3551578947369" y="915.4198947368421" type="line"/>
    </contour>
  </outline>
</glyph>
<glyph name="braceleft" format="2">
  <advance width="650.684"/>
  <unicode hex="007B"/>
  <note>
braceleft
</note>
  <outline>
    <contour>
      <point x="569.1983157894737" y="-396.7338947368421" type="curve"/>
      <point x="569.1983157894737" y="-292.73547368421055" type="line"/>
      <point x="385.49336842105265" y="-305.0983157894737"/>
      <point x="317.6298947368421" y="-204.31273684210527"/>
      <point x="317.6298947368421" y="21.54736842105263" type="curve" smooth="yes"/>
      <point x="317.6298947368421" y="336.7368421052632" type="line" smooth="yes"/>
      <point x="317.6298947368421" y="401.0425263157895"/>
      <point x="272.1483157894737" y="447.26452631578945"/>
      <point x="226.9025263157895" y="481.9684210526316" type="curve"/>
      <point x="272.4423157894737" y="518.818947368421"/>
      <point x="317.6298947368421" y="563.1449473684211"/>
      <point x="317.6298947368421" y="626.9" type="curve" smooth="yes"/>
      <point x="317.6298947368421" y="1044.3684210526317" type="line" smooth="yes"/>
      <point x="317.6298947368421" y="1268.039052631579"/>
      <point x="387.5302105263158" y="1371.014105263158"/>
      <point x="569.1983157894737" y="1358.2775789473685" type="curve"/>
      <point x="569.1983157894737" y="1462.6496842105264" type="line"/>
      <point x="338.1428421052632" y="1473.2272631578946"/>
      <point x="202.07936842105264" y="1331.958842105263"/>
      <point x="202.07936842105264" y="1112.9473684210527" type="curve" smooth="yes"/>
      <point x="202.07936842105264" y="626.9" type="line" smooth="yes"/>
      <point x="202.07936842105264" y="565.007052631579"/>
      <point x="157.65747368421054" y="529.9233684210526"/>
      <point x="83.66663157894737" y="482.3421052631579" type="curve"/>
      <point x="156.97852631578948" y="434.7713684210526"/>
      <point x="202.07936842105264" y="398.62978947368424"/>
      <point x="202.07936842105264" y="336.7368421052632" type="curve" smooth="yes"/>
      <point x="202.07936842105264" y="-46.80526315789473" type="line" smooth="yes"/>
      <point x="202.07936842105264" y="-266.8147368421053"/>
      <point x="336.46715789473683" y="-407.06084210526313"/>
    </contour>
  </outline>
</glyph>
<glyph name="braceright" format="2">
  <advance width="650.9103157894737"/>
  <unicode hex="007D"/>
  <note>
braceright
</note>
  <outline>
    <contour>
      <point x="81.48568421052632" y="-396.7338947368421" type="line"/>
      <point x="314.4431578947368" y="-407.06084210526313"/>
      <point x="448.60463157894736" y="-266.8147368421053"/>
      <point x="448.60463157894736" y="-46.80526315789473" type="curve" smooth="yes"/>
      <point x="448.60463157894736" y="336.7368421052632" type="line" smooth="yes"/>
      <point x="448.60463157894736" y="398.7034736842105"/>
      <point x="493.5581052631579" y="434.4713684210526"/>
      <point x="567.2436842105263" y="482.0421052631579" type="curve"/>
      <point x="492.57915789473685" y="529.997052631579"/>
      <point x="448.60463157894736" y="565.1544210526316"/>
      <point x="448.60463157894736" y="626.9" type="curve" smooth="yes"/>
      <point x="448.60463157894736" y="1112.9473684210527" type="line" smooth="yes"/>
      <point x="448.60463157894736" y="1331.958842105263"/>
      <point x="312.76747368421053" y="1473.2272631578946"/>
      <point x="81.48568421052632" y="1462.6496842105264" type="curve"/>
      <point x="81.48568421052632" y="1358.2775789473685" type="line"/>
      <point x="263.6801052631579" y="1371.014105263158"/>
      <point x="333.2067368421053" y="1268.1127368421053"/>
      <point x="333.2067368421053" y="1044.3684210526317" type="curve" smooth="yes"/>
      <point x="333.2067368421053" y="626.9" type="line" smooth="yes"/>
      <point x="333.2067368421053" y="562.7712631578947"/>
      <point x="378.3943157894737" y="518.8926315789474"/>
      <point x="423.9341052631579" y="481.9684210526316" type="curve"/>
      <point x="378.6883157894737" y="447.1908421052632"/>
      <point x="333.2067368421053" y="401.1162105263158"/>
      <point x="333.2067368421053" y="336.7368421052632" type="curve" smooth="yes"/>
      <point x="333.2067368421053" y="21.54736842105263" type="line" smooth="yes"/>
      <point x="333.2067368421053" y="-204.31273684210527"/>
      <point x="265.34326315789474" y="-305.0983157894737"/>
      <point x="81.48568421052632" y="-292.73547368421055" type="curve"/>
    </contour>
  </outline>
</glyph>
<glyph name="asciitilde" format="2">
  <advance width="1266.4817894736843"/>
  <unicode hex="007E"/>
  <note>
asciitilde
</note>
  <outline>
    <contour>
      <point x="819.3310526315789" y="578.8415789473684" type="curve" smooth="yes"/>
      <point x="933.5984210526316" y="578.8415789473684"/>
      <point x="1057.9252631578947" y="665.1197894736842"/>
      <point x="1137.0545263157894" y="724.0655789473684" type="curve"/>
      <point x="1067.437052631579" y="828.708" type="line"/>
      <point x="967.2307368421052" y="759.1743157894737"/>
      <point x="878.2648421052631" y="728.8468421052631"/>
      <point x="818.9521052631579" y="728.8468421052631" type="curve" smooth="yes"/>
      <point x="755.534" y="728.8468421052631"/>
      <point x="692.3032631578948" y="769.9891578947369"/>
      <point x="650.9287368421053" y="793.0942105263158" type="curve" smooth="yes"/>
      <point x="544.92" y="852.5049473684211"/>
      <point x="481.0629473684211" y="862.9952631578948"/>
      <point x="447.0356842105263" y="862.9952631578948" type="curve" smooth="yes"/>
      <point x="341.23168421052634" y="862.9952631578948"/>
      <point x="223.32157894736844" y="781.8093684210527"/>
      <point x="127.62126315789473" y="702.7498947368421" type="curve"/>
      <point x="200.13494736842105" y="605.0089473684211" type="line"/>
      <point x="308.3327368421053" y="681.2456842105263"/>
      <point x="390.6973684210526" y="712.1636842105263"/>
      <point x="446.4883157894737" y="712.1636842105263" type="curve" smooth="yes"/>
      <point x="504.4196842105263" y="712.1636842105263"/>
      <point x="583.3718947368421" y="669.4882105263158"/>
      <point x="626.9633684210527" y="645.4736842105264" type="curve" smooth="yes"/>
      <point x="739.7589473684211" y="581.3836842105263"/>
      <point x="786.0408421052632" y="578.8415789473684"/>
    </contour>
  </outline>
</glyph>
<glyph name=".notdef" format="2">
  <advance width="1281.088"/>
  <unicode hex="007F"/>
  <note>
.notdef
</note>
  <outline>
    <contour>
      <point x="115.03978947368421" y="-352.6331578947368" type="line"/>
      <point x="1166.0482105263159" y="-352.6331578947368" type="line"/>
      <point x="1166.0482105263159" y="1413.0384210526315" type="line"/>
      <point x="115.03978947368421" y="1413.0384210526315" type="line"/>
    </contour>
    <contour>
      <point x="270.5482105263158" y="-210.73526315789474" type="line"/>
      <point x="270.5482105263158" y="1271.1405263157894" type="line"/>
      <point x="1011.1397894736842" y="1271.1405263157894" type="line"/>
      <point x="1011.1397894736842" y="-210.73526315789474" type="line"/>
    </contour>
  </outline>
</glyph>
<glyph name="Euro" format="2">
  <advance width="1604.846947368421"/>
  <unicode hex="0080"/>
  <note>
Euro
</note>
  <outline>
    <contour>
      <point x="966.4872631578947" y="-39.212105263157895" type="curve" smooth="yes"/>
      <point x="1230.9792631578948" y="-39.212105263157895"/>
      <point x="1396.3936842105263" y="111.62894736842105"/>
      <point x="1466.746" y="300.8752631578947" type="curve"/>
      <point x="1301.7564210526316" y="300.8752631578947" type="line"/>
      <point x="1230.8733684210526" y="157.42894736842106"/>
      <point x="1093.4453684210525" y="31.970000000000006"/>
      <point x="976.0346315789474" y="31.970000000000006" type="curve" smooth="yes"/>
      <point x="698.9686315789473" y="31.970000000000006"/>
      <point x="517.8204210526316" y="378.7128421052632"/>
      <point x="517.8204210526316" y="704.1631578947369" type="curve" smooth="yes"/>
      <point x="517.8204210526316" y="1043.6372631578947"/>
      <point x="703.7693684210526" y="1374.9563157894736"/>
      <point x="975.3188421052631" y="1374.9563157894736" type="curve" smooth="yes"/>
      <point x="1092.5323157894736" y="1374.9563157894736"/>
      <point x="1236.195157894737" y="1235.6768421052632"/>
      <point x="1298.8458947368422" y="1096.3194736842106" type="curve"/>
      <point x="1462.5565263157896" y="1096.3194736842106" type="line"/>
      <point x="1398.5831578947368" y="1283.573052631579"/>
      <point x="1232.2825263157895" y="1445.9121052631579"/>
      <point x="966.7135789473684" y="1445.9121052631579" type="curve" smooth="yes"/>
      <point x="574.9976842105264" y="1445.9121052631579"/>
      <point x="303.6421052631579" y="1124.3944210526315"/>
      <point x="309.28642105263157" y="704.3105263157895" type="curve" smooth="yes"/>
      <point x="316.66442105263155" y="272.4464210526316"/>
      <point x="571.4976842105264" y="-39.212105263157895"/>
    </contour>
    <contour>
      <point x="130.59694736842104" y="516.9194736842105" type="line"/>
      <point x="1028.9663157894736" y="516.9194736842105" type="line"/>
      <point x="1045.9523157894737" y="588.0226315789474" type="line"/>
      <point x="148.33031578947367" y="588.0226315789474" type="line"/>
    </contour>
    <contour>
      <point x="178.89694736842105" y="810.9352631578947" type="line"/>
      <point x="1077.34" y="810.9352631578947" type="line"/>
      <point x="1094.404947368421" y="881.812105263158" type="line"/>
      <point x="196.85663157894737" y="881.812105263158" type="line"/>
    </contour>
  </outline>
</glyph>
<glyph name="sterling" format="2">
  <advance width="1345.5003157894737"/>
  <unicode hex="00A3"/>
  <note>
sterling
</note>
  <outline>
    <contour>
      <point x="469.0963157894737" y="106.20157894736843" type="curve" smooth="yes"/>
      <point x="553.9555789473684" y="106.20157894736843"/>
      <point x="781.9715789473685" y="238.9502105263158"/>
      <point x="781.9715789473685" y="477.62105263157895" type="curve" smooth="yes"/>
      <point x="781.9715789473685" y="620.8583157894736"/>
      <point x="710.9441052631579" y="691.6166315789474"/>
      <point x="589.3965263157895" y="791.0358947368421" type="curve" smooth="yes"/>
      <point x="466.77947368421053" y="891.3932631578947"/>
      <point x="390.75052631578944" y="1002.2704210526316"/>
      <point x="390.75052631578944" y="1137.8052631578948" type="curve" smooth="yes"/>
      <point x="390.75052631578944" y="1295.3110526315788"/>
      <point x="497.87947368421055" y="1399.6036842105264"/>
      <point x="628.77" y="1399.6036842105264" type="curve" smooth="yes"/>
      <point x="781.1630526315789" y="1399.6036842105264"/>
      <point x="913.6682105263158" y="1255.4365263157895"/>
      <point x="922.1453684210526" y="1104.6773684210527" type="curve"/>
      <point x="1103.536" y="1104.6773684210527" type="line"/>
      <point x="1068.3205263157895" y="1349.6436842105263"/>
      <point x="879.7287368421053" y="1465.0857894736841"/>
      <point x="644.6384210526315" y="1465.0857894736841" type="curve" smooth="yes"/>
      <point x="335.3430526315789" y="1465.0857894736841"/>
      <point x="198.14736842105262" y="1262.7374736842105"/>
      <point x="198.14736842105262" y="1059.0315789473684" type="curve" smooth="yes"/>
      <point x="198.14736842105262" y="883.6770526315789"/>
      <point x="303.5593684210526" y="764.5654736842105"/>
      <point x="409.52494736842107" y="690.3450526315789" type="curve" smooth="yes"/>
      <point x="499.77136842105267" y="627.3610526315789"/>
      <point x="583.7421052631579" y="579.5290526315789"/>
      <point x="583.7421052631579" y="468.2578947368421" type="curve" smooth="yes"/>
      <point x="583.7421052631579" y="324.3437894736842"/>
      <point x="400.1482105263158" y="141.13105263157894"/>
      <point x="213.4857894736842" y="141.14684210526318" type="curve"/>
      <point x="305.6068421052631" y="101.70042105263158"/>
      <point x="377.72263157894736" y="106.57957894736842"/>
    </contour>
    <contour>
      <point x="156.0857894736842" y="0.0" type="line"/>
      <point x="1212.3963157894736" y="0.0" type="line"/>
      <point x="1212.3963157894736" y="142.61684210526317" type="line"/>
      <point x="156.0857894736842" y="142.61684210526317" type="line"/>
    </contour>
    <contour>
      <point x="155.40684210526317" y="680.8586315789473" type="line"/>
      <point x="1027.0436842105264" y="680.8586315789473" type="line"/>
      <point x="1027.0436842105264" y="753.0768421052632" type="line"/>
      <point x="155.40684210526317" y="753.0768421052632" type="line"/>
    </contour>
  </outline>
</glyph>
<glyph name="currency" format="2">
  <advance width="1338.5317894736843"/>
  <unicode hex="00A4"/>
  <note>
currency
</note>
  <outline>
    <contour>
      <point x="232.44578947368421" y="168.05936842105265" type="line"/>
      <point x="411.5397894736842" y="349.3653684210526" type="line"/>
      <point x="483.9604210526316" y="295.2918947368421"/>
      <point x="573.9507368421052" y="263.60515789473686"/>
      <point x="671.1127368421053" y="263.60515789473686" type="curve" smooth="yes"/>
      <point x="767.9667368421053" y="263.60515789473686"/>
      <point x="857.551052631579" y="294.8858947368421"/>
      <point x="929.4676842105264" y="347.9513684210526" type="curve"/>
      <point x="1108.676" y="167.96136842105264" type="line"/>
      <point x="1196.2985263157896" y="257.0818947368421" type="line"/>
      <point x="1018.6185263157895" y="437.29821052631576" type="line"/>
      <point x="1074.4" y="509.94515789473684"/>
      <point x="1107.2907368421052" y="600.8151578947368"/>
      <point x="1107.2907368421052" y="699.7831578947369" type="curve" smooth="yes"/>
      <point x="1107.2907368421052" y="799.3531578947368"/>
      <point x="1073.798" y="891.0514736842106"/>
      <point x="1018.1145263157895" y="963.3741052631578" type="curve"/>
      <point x="1196.2985263157893" y="1143.868105263158" type="line"/>
      <point x="1107.0496842105263" y="1234.012947368421" type="line"/>
      <point x="928.1656842105263" y="1052.916947368421" type="line"/>
      <point x="856.2490526315789" y="1105.2824210526317"/>
      <point x="767.2667368421053" y="1136.5631578947368"/>
      <point x="671.1127368421053" y="1136.5631578947368" type="curve" smooth="yes"/>
      <point x="573.281052631579" y="1136.5631578947368"/>
      <point x="483.19273684210526" y="1104.6804210526316"/>
      <point x="411.0497894736842" y="1050.508947368421" type="curve"/>
      <point x="230.55578947368423" y="1233.8846315789474" type="line"/>
      <point x="140.93126315789473" y="1143.868105263158" type="line"/>
      <point x="321.3272631578947" y="961.0641052631579" type="line"/>
      <point x="266.6214736842105" y="888.6434736842106"/>
      <point x="234.33273684210525" y="798.1491578947368"/>
      <point x="234.33273684210525" y="699.7831578947369" type="curve" smooth="yes"/>
      <point x="234.33273684210525" y="601.2211578947368"/>
      <point x="267.4194736842105" y="510.65915789473684"/>
      <point x="322.1929473684211" y="437.9142105263158" type="curve"/>
      <point x="143.32526315789474" y="257.3082105263158" type="line"/>
    </contour>
    <contour>
      <point x="671.1127368421053" y="382.97410526315787" type="curve" smooth="yes"/>
      <point x="495.68" y="382.97410526315787"/>
      <point x="353.7016842105263" y="524.3504210526315"/>
      <point x="353.7016842105263" y="699.7831578947369" type="curve" smooth="yes"/>
      <point x="353.7016842105263" y="875.2158947368421"/>
      <point x="495.68" y="1017.1942105263158"/>
      <point x="671.1127368421053" y="1017.1942105263158" type="curve" smooth="yes"/>
      <point x="846.5454736842105" y="1017.1942105263158"/>
      <point x="987.9217894736842" y="875.2158947368421"/>
      <point x="987.9217894736842" y="699.7831578947369" type="curve" smooth="yes"/>
      <point x="987.9217894736842" y="524.3504210526315"/>
      <point x="846.5454736842105" y="382.97410526315787"/>
    </contour>
  </outline>
</glyph>
<glyph name="brokenbar" format="2">
  <advance width="588.5898947368421"/>
  <unicode hex="00A6"/>
  <note>
brokenbar
</note>
  <outline>
    <contour>
      <point x="202.79494736842105" y="-300.0" type="line"/>
      <point x="385.79494736842105" y="-300.0" type="line"/>
      <point x="385.79494736842105" y="518.7447368421052" type="line"/>
      <point x="202.79494736842105" y="518.7447368421052" type="line"/>
    </contour>
    <contour>
      <point x="202.79494736842105" y="873.2552631578948" type="line"/>
      <point x="385.79494736842105" y="873.2552631578948" type="line"/>
      <point x="385.79494736842105" y="1664.0" type="line"/>
      <point x="202.79494736842105" y="1664.0" type="line"/>
    </contour>
  </outline>
</glyph>
<glyph name="section" format="2">
  <advance width="1238.0183157894737"/>
  <unicode hex="00A7"/>
  <note>
section
</note>
  <outline>
    <contour>
      <point x="596.814" y="-428.2332631578947" type="curve" smooth="yes"/>
      <point x="858.2546315789474" y="-428.2332631578947"/>
      <point x="1039.9596842105263" y="-308.59684210526314"/>
      <point x="1038.7556842105264" y="-111.1598947368421" type="curve" smooth="yes"/>
      <point x="1037.5516842105264" y="73.36768421052632"/>
      <point x="895.2584210526315" y="155.81157894736842"/>
      <point x="652.5036842105263" y="216.0898947368421" type="curve"/>
      <point x="646.1142105263158" y="154.15147368421052" type="line"/>
      <point x="929.236947368421" y="169.52547368421054"/>
      <point x="1109.3233684210527" y="290.2262105263158"/>
      <point x="1107.5173684210527" y="512.9371578947369" type="curve" smooth="yes"/>
      <point x="1106.3133684210527" y="697.0411578947369"/>
      <point x="991.4457894736842" y="800.2738947368421"/>
      <point x="742.7397894736841" y="888.336105263158" type="curve" smooth="yes"/>
      <point x="553.4472631578948" y="955.3749473684211"/>
      <point x="441.0481052631579" y="1015.0991578947369"/>
      <point x="439.84410526315787" y="1137.6368421052632" type="curve" smooth="yes"/>
      <point x="438.0381052631579" y="1278.3126315789473"/>
      <point x="507.5201052631579" y="1375.954947368421"/>
      <point x="626.4043157894737" y="1375.954947368421" type="curve" smooth="yes"/>
      <point x="746.818947368421" y="1375.954947368421"/>
      <point x="809.9855789473684" y="1281.2752631578946"/>
      <point x="806.3748421052632" y="1105.1088421052632" type="curve"/>
      <point x="1038.11" y="1105.1088421052632" type="line"/>
      <point x="1038.11" y="1145.5171578947368" type="line" smooth="yes"/>
      <point x="1038.11" y="1343.410105263158"/>
      <point x="892.5772631578948" y="1455.3858947368421"/>
      <point x="637.1023157894737" y="1455.3858947368421" type="curve" smooth="yes"/>
      <point x="374.7496842105263" y="1455.3858947368421"/>
      <point x="193.27863157894737" y="1336.6391578947369"/>
      <point x="194.48263157894738" y="1139.6368421052632" type="curve" smooth="yes"/>
      <point x="195.68663157894736" y="976.9029473684211"/>
      <point x="306.5641052631579" y="890.8544210526316"/>
      <point x="610.5158947368421" y="807.7792631578948" type="curve"/>
      <point x="582.0108421052631" y="871.9194736842105" type="line"/>
      <point x="320.25336842105264" y="875.4761052631579"/>
      <point x="131.08894736842106" y="740.0436842105263"/>
      <point x="132.89494736842104" y="514.2154736842106" type="curve" smooth="yes"/>
      <point x="134.09894736842105" y="336.56515789473684"/>
      <point x="237.2736842105263" y="230.66547368421053"/>
      <point x="558.2812631578947" y="124.62021052631579" type="curve" smooth="yes"/>
      <point x="697.4057894736842" y="79.14852631578947"/>
      <point x="795.3842105263158" y="-1.6723157894736893"/>
      <point x="795.9862105263157" y="-104.5578947368421" type="curve" smooth="yes"/>
      <point x="797.1902105263158" y="-239.5"/>
      <point x="725.0781052631579" y="-348.8023157894737"/>
      <point x="600.814" y="-348.8023157894737" type="curve" smooth="yes"/>
      <point x="479.02063157894736" y="-348.8023157894737"/>
      <point x="402.9993684210526" y="-247.1915789473684"/>
      <point x="407.38178947368425" y="-70.0298947368421" type="curve"/>
      <point x="174.45263157894738" y="-70.0298947368421" type="line"/>
      <point x="174.45263157894738" y="-110.66452631578947" type="line" smooth="yes"/>
      <point x="174.45263157894738" y="-299.53315789473686"/>
      <point x="339.65536842105263" y="-428.2332631578947"/>
    </contour>
    <contour>
      <point x="620.4803157894737" y="229.7141052631579" type="curve" smooth="yes"/>
      <point x="486.3164210526316" y="229.7141052631579"/>
      <point x="367.28642105263157" y="371.6438947368421"/>
      <point x="366.0824210526316" y="520.3894736842105" type="curve" smooth="yes"/>
      <point x="364.8784210526316" y="670.1573684210526"/>
      <point x="480.52473684210526" y="805.2245263157895"/>
      <point x="616.34" y="805.2245263157895" type="curve" smooth="yes"/>
      <point x="753.0815789473685" y="805.2245263157895"/>
      <point x="872.5975789473684" y="672.4936842105263"/>
      <point x="873.8015789473684" y="524.5297894736842" type="curve" smooth="yes"/>
      <point x="875.0055789473685" y="375.72757894736844"/>
      <point x="753.1895789473684" y="229.7141052631579"/>
    </contour>
  </outline>
</glyph>
<glyph name="copyright" format="2">
  <advance width="1787.5508421052632"/>
  <unicode hex="00A9"/>
  <note>
copyright
</note>
  <outline>
    <contour>
      <point x="892.6527368421052" y="-19.12284210526316" type="curve" smooth="yes"/>
      <point x="1096.649052631579" y="-19.12284210526316"/>
      <point x="1294.834842105263" y="65.27168421052632"/>
      <point x="1431.8856842105263" y="196.54884210526316" type="curve" smooth="yes"/>
      <point x="1579.6867368421053" y="338.02884210526315"/>
      <point x="1650.949894736842" y="510.2217894736842"/>
      <point x="1650.949894736842" y="707.1789473684211" type="curve" smooth="yes"/>
      <point x="1650.949894736842" y="908.4065263157895"/>
      <point x="1577.1584210526316" y="1079.8573684210526"/>
      <point x="1433.1067368421052" y="1221.2847368421053" type="curve" smooth="yes"/>
      <point x="1297.480947368421" y="1353.1368421052632"/>
      <point x="1102.2254736842106" y="1433.4807368421052"/>
      <point x="892.6527368421052" y="1433.4807368421052" type="curve" smooth="yes"/>
      <point x="695.4211578947369" y="1433.4807368421052"/>
      <point x="501.5295789473684" y="1362.141894736842"/>
      <point x="361.9724210526316" y="1222.5110526315789" type="curve" smooth="yes"/>
      <point x="215.01673684210527" y="1075.5553684210527"/>
      <point x="135.82726315789475" y="902.3097894736842"/>
      <point x="135.82726315789475" y="707.1789473684211" type="curve" smooth="yes"/>
      <point x="135.82726315789475" y="512.1303157894737"/>
      <point x="211.49568421052632" y="339.4762105263158"/>
      <point x="360.49873684210525" y="194.92252631578947" type="curve" smooth="yes"/>
      <point x="500.34884210526315" y="58.09147368421053"/>
      <point x="693.4095789473685" y="-19.12284210526316"/>
    </contour>
    <contour>
      <point x="891.1843157894737" y="274.32652631578947" type="curve" smooth="yes"/>
      <point x="1101.0686315789474" y="274.32652631578947"/>
      <point x="1246.694105263158" y="395.6150526315789"/>
      <point x="1262.8451578947368" y="564.5442105263157" type="curve"/>
      <point x="1100.7143157894736" y="564.5442105263157" type="line"/>
      <point x="1076.8008421052632" y="440.59915789473683"/>
      <point x="1006.4771578947368" y="374.44157894736844"/>
      <point x="898.0126315789473" y="374.44157894736844" type="curve" smooth="yes"/>
      <point x="757.7398947368421" y="374.44157894736844"/>
      <point x="664.5824210526316" y="499.53"/>
      <point x="664.5824210526316" y="705.1789473684211" type="curve" smooth="yes"/>
      <point x="664.5824210526316" y="912.4717894736842"/>
      <point x="754.3201052631579" y="1044.2183157894738"/>
      <point x="898.0126315789473" y="1044.2183157894738" type="curve" smooth="yes"/>
      <point x="1001.3711578947368" y="1044.2183157894738"/>
      <point x="1065.304105263158" y="984.3482105263158"/>
      <point x="1091.3333684210527" y="872.4966315789474" type="curve"/>
      <point x="1253.145157894737" y="872.4966315789474" type="line"/>
      <point x="1237.4677894736842" y="1027.9277894736842"/>
      <point x="1100.1463157894736" y="1142.6333684210526"/>
      <point x="900.8106315789473" y="1142.6333684210526" type="curve" smooth="yes"/>
      <point x="650.3907368421053" y="1142.6333684210526"/>
      <point x="487.6641052631579" y="971.5341052631579"/>
      <point x="487.6641052631579" y="703.5526315789474" type="curve" smooth="yes"/>
      <point x="487.6641052631579" y="442.12452631578947"/>
      <point x="641.9130526315789" y="274.32652631578947"/>
    </contour>
    <contour>
      <point x="892.6527368421052" y="90.18557894736843" type="curve" smooth="yes"/>
      <point x="729.6958947368421" y="90.18557894736843"/>
      <point x="584.3676842105264" y="153.72515789473684"/>
      <point x="463.35842105263157" y="273.48905263157894" type="curve" smooth="yes"/>
      <point x="350.1138947368421" y="383.9842105263158"/>
      <point x="283.26" y="543.3578947368421"/>
      <point x="283.26" y="707.1789473684211" type="curve" smooth="yes"/>
      <point x="283.26" y="873.012"/>
      <point x="348.2218947368421" y="1032.029052631579"/>
      <point x="465.2057894736842" y="1146.8655789473685" type="curve" smooth="yes"/>
      <point x="585.2373684210527" y="1265.7497894736841"/>
      <point x="722.2728421052632" y="1326.6216842105264"/>
      <point x="892.6527368421052" y="1326.6216842105264" type="curve" smooth="yes"/>
      <point x="1059.5063157894738" y="1326.6216842105264"/>
      <point x="1205.4187368421053" y="1264.170842105263"/>
      <point x="1328.326" y="1144.9392631578946" type="curve" smooth="yes"/>
      <point x="1441.4362105263158" y="1035.129052631579"/>
      <point x="1505.2908421052632" y="871.0593684210527"/>
      <point x="1505.2908421052632" y="707.1789473684211" type="curve" smooth="yes"/>
      <point x="1505.2908421052632" y="534.1616842105263"/>
      <point x="1440.3552631578948" y="379.82357894736845"/>
      <point x="1330.5713684210527" y="275.48905263157894" type="curve" smooth="yes"/>
      <point x="1208.3661052631578" y="158.22915789473683"/>
      <point x="1058.2155789473684" y="90.18557894736843"/>
    </contour>
  </outline>
</glyph>
<glyph name="ordfeminine" format="2">
  <advance width="904.4014736842106"/>
  <unicode hex="00AA"/>
  <note>
ordfeminine
</note>
  <outline>
    <contour>
      <point x="411.1178947368421" y="821.7352631578947" type="curve" smooth="yes"/>
      <point x="503.22515789473687" y="821.7352631578947"/>
      <point x="569.8175789473685" y="870.1488421052632"/>
      <point x="606.5005263157894" y="942.6801052631579" type="curve"/>
      <point x="606.5005263157894" y="842.312105263158" type="line"/>
      <point x="748.9142105263159" y="842.312105263158" type="line"/>
      <point x="748.9142105263159" y="1441.9857894736842" type="line"/>
      <point x="604.5005263157894" y="1441.9857894736842" type="line"/>
      <point x="604.5005263157894" y="1332.2191578947368" type="line"/>
      <point x="568.4123157894737" y="1407.1734736842104"/>
      <point x="501.57452631578946" y="1457.612105263158"/>
      <point x="406.8178947368421" y="1457.612105263158" type="curve" smooth="yes"/>
      <point x="234.69189473684213" y="1457.612105263158"/>
      <point x="122.27947368421053" y="1325.6015789473684"/>
      <point x="122.27947368421053" y="1137.6368421052632" type="curve" smooth="yes"/>
      <point x="122.27947368421053" y="949.6377894736842"/>
      <point x="238.1958947368421" y="821.7352631578947"/>
    </contour>
    <contour>
      <point x="424.41789473684213" y="879.4436842105263" type="curve" smooth="yes"/>
      <point x="317.908" y="879.4436842105263"/>
      <point x="273.6563157894737" y="1010.1793684210527"/>
      <point x="273.6563157894737" y="1148.4263157894736" type="curve" smooth="yes"/>
      <point x="273.6563157894737" y="1284.0481052631578"/>
      <point x="323.4996842105263" y="1399.9036842105263"/>
      <point x="422.1178947368421" y="1399.9036842105263" type="curve" smooth="yes"/>
      <point x="523.578" y="1399.9036842105263"/>
      <point x="594.8952631578948" y="1270.4423157894737"/>
      <point x="594.8952631578948" y="1135.8631578947368" type="curve" smooth="yes"/>
      <point x="594.8952631578948" y="1006.1696842105263"/>
      <point x="527.784" y="879.4436842105263"/>
    </contour>
    <contour>
      <point x="115.4321052631579" y="658.2384210526316" type="line"/>
      <point x="774.0668421052632" y="658.2384210526316" type="line"/>
      <point x="774.0668421052632" y="739.068947368421" type="line"/>
      <point x="115.4321052631579" y="739.068947368421" type="line"/>
    </contour>
  </outline>
</glyph>
<glyph name="logicalnot" format="2">
  <advance width="1081.3187368421052"/>
  <unicode hex="00AC"/>
  <note>
logicalnot
</note>
  <outline>
    <contour>
      <point x="1181.2613684210526" y="336.73526315789474" type="line"/>
      <point x="1332.1697894736842" y="336.73526315789474" type="line"/>
      <point x="1332.1697894736842" y="854.4542105263158" type="line"/>
      <point x="135.0876842105263" y="854.4542105263158" type="line"/>
      <point x="135.0876842105263" y="713.051052631579" type="line"/>
      <point x="1181.2613684210526" y="713.051052631579" type="line"/>
    </contour>
  </outline>
</glyph>
<glyph name="registered" format="2">
  <advance width="1749.6248421052633"/>
  <unicode hex="00AE"/>
  <note>
registered
</note>
  <outline>
    <contour>
      <point x="873.3887368421052" y="-14.306842105263158" type="curve" smooth="yes"/>
      <point x="1067.7810526315789" y="-14.306842105263158"/>
      <point x="1255.0328421052632" y="63.08768421052632"/>
      <point x="1397.9776842105264" y="199.55884210526315" type="curve" smooth="yes"/>
      <point x="1539.7587368421052" y="335.01884210526316"/>
      <point x="1612.4218947368422" y="509.82978947368423"/>
      <point x="1612.4218947368422" y="707.1789473684211" type="curve" smooth="yes"/>
      <point x="1612.4218947368422" y="905.2005263157895"/>
      <point x="1537.9304210526316" y="1081.4673684210527"/>
      <point x="1399.9967368421053" y="1216.2727368421054" type="curve" smooth="yes"/>
      <point x="1260.072947368421" y="1353.122842105263"/>
      <point x="1075.8494736842106" y="1428.6647368421052"/>
      <point x="873.3887368421052" y="1428.6647368421052" type="curve" smooth="yes"/>
      <point x="674.4631578947368" y="1428.6647368421052"/>
      <point x="495.3135789473684" y="1357.031894736842"/>
      <point x="357.9544210526316" y="1220.999052631579" type="curve" smooth="yes"/>
      <point x="211.41873684210526" y="1075.8633684210527"/>
      <point x="136.42926315789472" y="897.8997894736842"/>
      <point x="136.42926315789472" y="707.1789473684211" type="curve" smooth="yes"/>
      <point x="136.42926315789472" y="513.4323157894737"/>
      <point x="211.90168421052633" y="338.5662105263158"/>
      <point x="353.68073684210526" y="199.33252631578947" type="curve" smooth="yes"/>
      <point x="496.3448421052632" y="58.88947368421053"/>
      <point x="681.8735789473684" y="-14.306842105263158"/>
    </contour>
    <contour>
      <point x="871.9887368421053" y="95.00157894736843" type="curve" smooth="yes"/>
      <point x="708.1218947368421" y="95.00157894736843"/>
      <point x="555.0656842105263" y="159.45115789473684"/>
      <point x="436.87042105263157" y="276.49905263157893" type="curve" smooth="yes"/>
      <point x="317.5218947368421" y="394.4002105263158"/>
      <point x="254.364" y="547.2498947368421"/>
      <point x="254.364" y="707.1789473684211" type="curve" smooth="yes"/>
      <point x="254.364" y="871.808"/>
      <point x="319.5218947368421" y="1025.505052631579"/>
      <point x="440.1177894736842" y="1144.6535789473685" type="curve" smooth="yes"/>
      <point x="557.2373684210527" y="1260.625789473684"/>
      <point x="702.7008421052632" y="1321.2036842105263"/>
      <point x="873.3887368421052" y="1321.2036842105263" type="curve" smooth="yes"/>
      <point x="1043.9523157894737" y="1321.2036842105263"/>
      <point x="1196.9907368421052" y="1257.6468421052632"/>
      <point x="1317.686" y="1139.9272631578947" type="curve" smooth="yes"/>
      <point x="1435.0102105263159" y="1025.903052631579"/>
      <point x="1496.2608421052632" y="869.8553684210526"/>
      <point x="1496.2608421052632" y="704.3789473684211" type="curve" smooth="yes"/>
      <point x="1496.2608421052632" y="538.2636842105263"/>
      <point x="1433.9292631578946" y="389.1475789473684"/>
      <point x="1317.0333684210527" y="277.09905263157896" type="curve" smooth="yes"/>
      <point x="1194.436105263158" y="159.25115789473685"/>
      <point x="1040.1555789473684" y="95.00157894736843"/>
    </contour>
    <contour>
      <point x="587.4263157894737" y="321.18726315789473" type="line"/>
      <point x="737.2805263157895" y="321.18726315789473" type="line"/>
      <point x="737.2805263157895" y="658.222" type="line"/>
      <point x="874.6845263157895" y="658.222" type="line"/>
      <point x="1053.055052631579" y="321.18726315789473" type="line"/>
      <point x="1218.183157894737" y="321.18726315789473" type="line"/>
      <point x="1025.0173684210527" y="675.186" type="line"/>
      <point x="1145.6455789473684" y="706.7970526315789"/>
      <point x="1199.5206315789474" y="784.1531578947369"/>
      <point x="1199.5206315789474" y="893.6746315789474" type="curve" smooth="yes"/>
      <point x="1199.5206315789474" y="1041.9477894736842"/>
      <point x="1099.487052631579" y="1117.918"/>
      <point x="868.5288421052632" y="1117.918" type="curve" smooth="yes"/>
      <point x="587.4263157894737" y="1117.918" type="line"/>
    </contour>
    <contour>
      <point x="737.2805263157895" y="754.8444210526316" type="line"/>
      <point x="737.2805263157895" y="1019.3291578947368" type="line"/>
      <point x="858.1985263157894" y="1019.2554736842105" type="line" smooth="yes"/>
      <point x="1001.9258947368421" y="1018.9554736842106"/>
      <point x="1048.2085263157894" y="982.6916842105263"/>
      <point x="1048.2085263157894" y="885.2778947368421" type="curve" smooth="yes"/>
      <point x="1048.2085263157894" y="793.7811578947368"/>
      <point x="1005.2955789473684" y="754.8444210526316"/>
      <point x="862.1742105263158" y="754.8444210526316" type="curve" smooth="yes"/>
    </contour>
  </outline>
</glyph>
<glyph name="degree" format="2">
  <advance width="847.434"/>
  <unicode hex="00B0"/>
  <note>
degree
</note>
  <outline>
    <contour>
      <point x="422.14621052631577" y="863.695052631579" type="curve" smooth="yes"/>
      <point x="578.436" y="863.695052631579"/>
      <point x="704.7067368421053" y="989.7394736842105"/>
      <point x="704.7067368421053" y="1144.7706315789474" type="curve" smooth="yes"/>
      <point x="704.7067368421053" y="1299.4037894736841"/>
      <point x="578.436" y="1425.4482105263157"/>
      <point x="423.80284210526315" y="1425.4482105263157" type="curve" smooth="yes"/>
      <point x="267.3413684210526" y="1425.4482105263157"/>
      <point x="142.72726315789473" y="1300.8341052631579"/>
      <point x="142.72726315789473" y="1144.7706315789474" type="curve" smooth="yes"/>
      <point x="142.72726315789473" y="988.3091578947368"/>
      <point x="266.13736842105266" y="863.695052631579"/>
    </contour>
    <contour>
      <point x="423.80284210526315" y="950.6906315789474" type="curve" smooth="yes"/>
      <point x="316.10231578947366" y="950.6906315789474"/>
      <point x="229.94915789473686" y="1037.070105263158"/>
      <point x="229.94915789473686" y="1144.7706315789474" type="curve" smooth="yes"/>
      <point x="229.94915789473686" y="1250.8691578947369"/>
      <point x="316.10231578947366" y="1337.0223157894736"/>
      <point x="423.80284210526315" y="1337.0223157894736" type="curve" smooth="yes"/>
      <point x="531.3316842105263" y="1337.0223157894736"/>
      <point x="616.2808421052632" y="1250.8691578947369"/>
      <point x="616.2808421052632" y="1144.7706315789474" type="curve" smooth="yes"/>
      <point x="616.2808421052632" y="1037.070105263158"/>
      <point x="531.3316842105263" y="950.6906315789474"/>
    </contour>
  </outline>
</glyph>
<glyph name="plusminus" format="2">
  <advance width="1081.3187368421052"/>
  <unicode hex="00B1"/>
  <note>
plusminus
</note>
  <outline>
    <contour>
      <point x="493.2023157894737" y="348.74052631578945" type="line"/>
      <point x="608.716" y="348.74052631578945" type="line"/>
      <point x="608.716" y="601.2826315789474" type="line"/>
      <point x="956.1265263157895" y="601.2826315789474" type="line"/>
      <point x="956.1265263157895" y="734.57" type="line"/>
      <point x="608.716" y="734.57" type="line"/>
      <point x="608.716" y="987.0384210526316" type="line"/>
      <point x="493.2023157894737" y="987.0384210526316" type="line"/>
      <point x="493.2023157894737" y="734.57" type="line"/>
      <point x="145.79178947368422" y="734.57" type="line"/>
      <point x="145.79178947368422" y="601.2826315789474" type="line"/>
      <point x="493.2023157894737" y="601.2826315789474" type="line"/>
    </contour>
    <contour>
      <point x="145.62010526315788" y="107.79947368421053" type="line"/>
      <point x="955.7285263157895" y="107.79947368421053" type="line"/>
      <point x="955.7285263157895" y="240.86052631578946" type="line"/>
      <point x="145.62010526315788" y="240.86052631578946" type="line"/>
    </contour>
  </outline>
</glyph>
<glyph name="paragraph" format="2">
  <advance width="1197.6075789473684"/>
  <unicode hex="00B6"/>
  <note>
paragraph
</note>
  <outline>
    <contour>
      <point x="496.4212631578947" y="0.0" type="line"/>
      <point x="644.8323157894737" y="0.0" type="line"/>
      <point x="644.8323157894737" y="1346.109894736842" type="line"/>
      <point x="804.3318947368421" y="1346.109894736842" type="line"/>
      <point x="804.3318947368421" y="0.0" type="line"/>
      <point x="950.9692631578947" y="0.0" type="line"/>
      <point x="950.9692631578947" y="1346.109894736842" type="line"/>
      <point x="1074.1692631578946" y="1346.109894736842" type="line"/>
      <point x="1074.1692631578946" y="1449.9767368421053" type="line"/>
      <point x="546.7114736842105" y="1449.9767368421053" type="line" smooth="yes"/>
      <point x="297.6384210526316" y="1449.9767368421053"/>
      <point x="127.19494736842105" y="1290.9262105263158"/>
      <point x="127.19494736842105" y="1066.497052631579" type="curve" smooth="yes"/>
      <point x="127.19494736842105" y="857.2313684210526"/>
      <point x="273.7751578947368" y="691.3950526315789"/>
      <point x="496.4212631578947" y="686.1344210526315" type="curve"/>
    </contour>
  </outline>
</glyph>
<glyph name="ordmasculine" format="2">
  <advance width="846.4048421052631"/>
  <unicode hex="00BA"/>
  <note>
ordmasculine
</note>
  <outline>
    <contour>
      <point x="423.51557894736845" y="823.0247368421053" type="curve" smooth="yes"/>
      <point x="613.8435789473684" y="823.0247368421053"/>
      <point x="745.7855789473684" y="947.4054736842105"/>
      <point x="745.7855789473684" y="1137.8631578947368" type="curve" smooth="yes"/>
      <point x="745.7855789473684" y="1329.7945263157894"/>
      <point x="614.1678947368421" y="1456.4752631578947"/>
      <point x="423.51557894736845" y="1456.4752631578947" type="curve" smooth="yes"/>
      <point x="232.63694736842106" y="1456.4752631578947"/>
      <point x="101.77189473684211" y="1330.0208421052632"/>
      <point x="101.77189473684211" y="1137.8631578947368" type="curve" smooth="yes"/>
      <point x="101.77189473684211" y="947.1054736842106"/>
      <point x="233.03494736842106" y="823.0247368421053"/>
    </contour>
    <contour>
      <point x="422.0418947368421" y="881.1857894736842" type="curve" smooth="yes"/>
      <point x="319.0901052631579" y="881.1857894736842"/>
      <point x="251.52242105263156" y="1016.4776842105263"/>
      <point x="251.52242105263156" y="1137.8631578947368" type="curve" smooth="yes"/>
      <point x="251.52242105263156" y="1259.4203157894738"/>
      <point x="319.4144210526316" y="1398.3142105263157"/>
      <point x="422.0418947368421" y="1398.3142105263157" type="curve" smooth="yes"/>
      <point x="524.7673684210527" y="1398.3142105263157"/>
      <point x="594.4087368421052" y="1259.3223157894736"/>
      <point x="594.4087368421052" y="1137.8631578947368" type="curve" smooth="yes"/>
      <point x="594.4087368421052" y="1016.4776842105263"/>
      <point x="524.8653684210526" y="881.1857894736842"/>
    </contour>
    <contour>
      <point x="92.17715789473684" y="658.2384210526316" type="line"/>
      <point x="753.075052631579" y="658.2384210526316" type="line"/>
      <point x="753.075052631579" y="739.068947368421" type="line"/>
      <point x="92.17715789473684" y="739.068947368421" type="line"/>
    </contour>
  </outline>
</glyph>
<glyph name="AE" format="2">
  <advance width="1952.9227368421052"/>
  <unicode hex="00C6"/>
  <note>
AE
</note>
  <anchor x="1002.7454736842105" y="5.94736842105263" name="bottom"/>
  <anchor x="1002.7454736842105" y="1430.0" name="top"/>
  <outline>
    <contour>
      <point x="77.69894736842105" y="-4.440892098500626e-16" type="line"/>
      <point x="168.54315789473685" y="-4.440892098500626e-16" type="line"/>
      <point x="1059.265052631579" y="1432.6647368421052" type="line"/>
      <point x="968.7208421052632" y="1432.6647368421052" type="line"/>
    </contour>
    <contour>
      <point x="432.7945263157895" y="451.20894736842104" type="line"/>
      <point x="1137.0976842105263" y="451.20894736842104" type="line"/>
      <point x="1137.0976842105263" y="522.5384210526316" type="line"/>
      <point x="432.7945263157895" y="522.5384210526316" type="line"/>
    </contour>
    <contour>
      <point x="979.0208421052632" y="-4.440892098500626e-16" type="line"/>
      <point x="1851.9713684210526" y="-4.440892098500626e-16" type="line"/>
      <point x="1851.9713684210526" y="71.10315789473685" type="line"/>
      <point x="1065.8766315789474" y="71.10315789473685" type="line"/>
      <point x="1212.9082105263158" y="12.724315789473685" type="line"/>
      <point x="1212.9082105263158" y="747.1182105263158" type="line"/>
      <point x="1099.7947368421053" y="693.4561052631578" type="line"/>
      <point x="1851.9713684210526" y="693.4561052631578" type="line"/>
      <point x="1851.9713684210526" y="764.5592631578947" type="line"/>
      <point x="1095.5684210526315" y="764.5592631578947" type="line"/>
      <point x="1212.9082105263158" y="711.4287368421053" type="line"/>
      <point x="1212.9082105263158" y="1420.2456842105264" type="line"/>
      <point x="1053.2766315789474" y="1361.5615789473684" type="line"/>
      <point x="1851.9713684210526" y="1361.5615789473684" type="line"/>
      <point x="1851.9713684210526" y="1432.6647368421052" type="line"/>
      <point x="979.0208421052632" y="1432.6647368421052" type="line"/>
    </contour>
  </outline>
</glyph>
<glyph name="Thorn" format="2">
  <advance width="1161.152947368421"/>
  <unicode hex="00DE"/>
  <note>
Thorn
</note>
  <anchor x="580.9103157894737" y="5.947368421052637" name="bottom"/>
  <anchor x="580.9103157894737" y="1430.0" name="top"/>
  <outline>
    <contour>
      <point x="355.4133684210526" y="332.65526315789475" type="line"/>
      <point x="536.7188421052632" y="332.65526315789475" type="line" smooth="yes"/>
      <point x="737.0304210526316" y="332.65526315789475"/>
      <point x="839.3466315789474" y="353.7307368421053"/>
      <point x="914.5578947368421" y="413.71768421052633" type="curve" smooth="yes"/>
      <point x="1013.134" y="492.3676842105263"/>
      <point x="1067.452" y="599.7034736842105"/>
      <point x="1067.452" y="743.62" type="curve" smooth="yes"/>
      <point x="1067.452" y="880.4185263157894"/>
      <point x="1018.7216842105263" y="987.5189473684211"/>
      <point x="923.4546315789473" y="1065.0486315789474" type="curve" smooth="yes"/>
      <point x="852.1736842105263" y="1123.3538947368422"/>
      <point x="741.6281052631579" y="1151.8847368421052"/>
      <point x="537.0188421052632" y="1151.8847368421052" type="curve" smooth="yes"/>
      <point x="355.11336842105266" y="1151.8847368421052" type="line"/>
      <point x="355.11336842105266" y="1083.5447368421053" type="line"/>
      <point x="483.1241052631579" y="1083.5447368421053" type="line" smooth="yes"/>
      <point x="759.5865263157895" y="1083.5447368421053"/>
      <point x="829.2646315789474" y="939.5235789473684"/>
      <point x="829.2646315789474" y="736.02" type="curve" smooth="yes"/>
      <point x="829.2646315789474" y="539.8204210526316"/>
      <point x="763.4925263157895" y="400.9952631578947"/>
      <point x="483.1241052631579" y="400.9952631578947" type="curve" smooth="yes"/>
      <point x="355.4133684210526" y="400.9952631578947" type="line"/>
    </contour>
    <contour>
      <point x="163.99094736842105" y="0.0" type="line"/>
      <point x="395.9362105263158" y="0.0" type="line"/>
      <point x="395.9362105263158" y="1432.6647368421052" type="line"/>
      <point x="163.99094736842105" y="1432.6647368421052" type="line"/>
    </contour>
  </outline>
</glyph>
<glyph name="germandbls" format="2">
  <advance width="1326.749052631579"/>
  <unicode hex="00DF"/>
  <note>
germandbls
</note>
  <anchor x="663.6633684210526" y="9.457894736842107" name="bottom"/>
  <anchor x="663.6633684210526" y="939.8268421052632" name="top"/>
  <outline>
    <contour>
      <point x="876.1641052631579" y="-43.33842105263158" type="curve" smooth="yes"/>
      <point x="1159.459052631579" y="-43.33842105263158"/>
      <point x="1264.0804210526317" y="82.95042105263158"/>
      <point x="1264.0804210526317" y="265.02526315789476" type="curve" smooth="yes"/>
      <point x="1264.0804210526317" y="489.49084210526314"/>
      <point x="1093.785052631579" y="549.5073684210527"/>
      <point x="907.203052631579" y="587.1494736842105" type="curve" smooth="yes"/>
      <point x="836.3835789473685" y="600.657052631579"/>
      <point x="718.8972631578947" y="630.0295789473685"/>
      <point x="718.8972631578947" y="718.64" type="curve" smooth="yes"/>
      <point x="718.8972631578947" y="788.4791578947369"/>
      <point x="778.102" y="822.3753684210526"/>
      <point x="851.8586315789473" y="874.1006315789474" type="curve" smooth="yes"/>
      <point x="939.8987368421052" y="937.2582105263158"/>
      <point x="1055.655157894737" y="1013.8726315789473"/>
      <point x="1055.655157894737" y="1198.0105263157895" type="curve" smooth="yes"/>
      <point x="1055.655157894737" y="1384.5406315789473"/>
      <point x="939.7527368421053" y="1566.248947368421"/>
      <point x="632.3335789473684" y="1566.248947368421" type="curve" smooth="yes"/>
      <point x="373.974" y="1566.248947368421"/>
      <point x="222.5225263157895" y="1420.890947368421"/>
      <point x="222.5225263157895" y="1133.878947368421" type="curve" smooth="yes"/>
      <point x="222.5225263157895" y="0.0" type="line"/>
      <point x="449.13094736842106" y="0.0" type="line"/>
      <point x="449.13094736842106" y="1113.4947368421053" type="line" smooth="yes"/>
      <point x="449.13094736842106" y="1394.3490526315788"/>
      <point x="515.3621052631579" y="1487.0773684210526"/>
      <point x="644.6546315789474" y="1487.0773684210526" type="curve" smooth="yes"/>
      <point x="823.3082105263159" y="1487.0773684210526"/>
      <point x="905.7677894736842" y="1346.7552631578947"/>
      <point x="905.7677894736842" y="1205.0736842105264" type="curve" smooth="yes"/>
      <point x="905.7677894736842" y="1077.7142105263158"/>
      <point x="827.2371578947368" y="1023.5265263157895"/>
      <point x="745.506947368421" y="963.8246315789473" type="curve" smooth="yes"/>
      <point x="669.0198947368422" y="908.0511578947369"/>
      <point x="580.9835789473684" y="846.6507368421053"/>
      <point x="580.9835789473684" y="699.5821052631579" type="curve" smooth="yes"/>
      <point x="580.9835789473684" y="520.1789473684211"/>
      <point x="706.7171578947368" y="445.20042105263155"/>
      <point x="862.2112631578948" y="409.9613684210526" type="curve" smooth="yes"/>
      <point x="962.2926315789474" y="387.7398947368421"/>
      <point x="1093.8056842105264" y="355.05873684210525"/>
      <point x="1093.8056842105264" y="215.53368421052633" type="curve" smooth="yes"/>
      <point x="1093.8056842105264" y="82.53210526315789"/>
      <point x="976.9213684210526" y="39.796315789473695"/>
      <point x="871.0388421052631" y="39.796315789473695" type="curve" smooth="yes"/>
      <point x="749.6789473684211" y="39.796315789473695"/>
      <point x="678.1724210526315" y="99.33526315789474"/>
      <point x="575.0941052631579" y="234.31010526315788" type="curve"/>
      <point x="572.2572631578947" y="68.8201052631579" type="line"/>
      <point x="630.4088421052631" y="13.361263157894737"/>
      <point x="707.5840000000001" y="-43.33842105263158"/>
    </contour>
    <contour>
      <point x="47.712" y="869.1473684210526" type="line"/>
      <point x="337.2204210526316" y="869.1473684210526" type="line"/>
      <point x="337.2204210526316" y="945.1452631578948" type="line"/>
      <point x="47.712" y="945.1452631578948" type="line"/>
    </contour>
  </outline>
</glyph>
